SplineFontDB: 3.2
FontName: Bender
FullName: Bender
FamilyName: Bender
Weight: Regular
Copyright: Copyright (c) 2009 by Oleg Zhuravlev, Gladkikh Ivan. All rights reserved.
Version: 001.001
ItalicAngle: 0
UnderlinePosition: -100
UnderlineWidth: 50
Ascent: 800
Descent: 200
InvalidEm: 0
sfntRevision: 0x00010000
LayerCount: 2
Layer: 0 0 "Back" 1
Layer: 1 0 "Fore" 0
XUID: [1021 811 -1780499127 19530]
StyleMap: 0x0040
FSType: 4
OS2Version: 2
OS2_WeightWidthSlopeOnly: 0
OS2_UseTypoMetrics: 0
CreationTime: 1245964666
ModificationTime: 1672872881
PfmFamily: 17
TTFWeight: 400
TTFWidth: 5
LineGap: 30
VLineGap: 0
Panose: 2 0 5 3 2 0 0 2 0 4
OS2TypoAscent: 710
OS2TypoAOffset: 0
OS2TypoDescent: -180
OS2TypoDOffset: 0
OS2TypoLinegap: 60
OS2WinAscent: 920
OS2WinAOffset: 0
OS2WinDescent: 180
OS2WinDOffset: 0
HheadAscent: 920
HheadAOffset: 0
HheadDescent: -180
HheadDOffset: 0
OS2SubXSize: 700
OS2SubYSize: 650
OS2SubXOff: 0
OS2SubYOff: 140
OS2SupXSize: 700
OS2SupYSize: 650
OS2SupXOff: 0
OS2SupYOff: 477
OS2StrikeYSize: 50
OS2StrikeYPos: 250
OS2CapHeight: 710
OS2XHeight: 543
OS2Vendor: 'PYRS'
OS2CodePages: 20000097.00000000
OS2UnicodeRanges: 8000020f.0000000a.00000000.00000000

StartChar: quotedbl
Encoding: 34 34 1
Width: 275
Flags: MW
HStem: 447 21G<41 41 41 89 186 234 186 186> 680 20G<30 100 100 100 175 245 245 245>
VStem: 35 59 180 59
LayerCount: 2
Fore
SplineSet
41 447 m 1
 30 700 l 1
 100 700 l 1
 89 447 l 1
 41 447 l 1
186 447 m 1
 175 700 l 1
 245 700 l 1
 234 447 l 1
 186 447 l 1
EndSplineSet
Validated: 1
EndChar

StartChar: numbersign
Encoding: 35 35 2
Width: 734
Flags: MW
HStem: 0 21G<60 127 60 60 331 331 331 398> 192 65<0 136 0 160 0 203 229 407 499 632> 443 65<102 235 102 259 327 506 102 302 598 734> 680 20G<336 403 403 403 607 674 674 674>
LayerCount: 2
Fore
SplineSet
127 0 m 1
 60 0 l 1
 136 192 l 1
 0 192 l 1
 0 257 l 1
 160 257 l 1
 235 443 l 1
 102 443 l 1
 102 508 l 1
 259 508 l 1
 336 700 l 1
 403 700 l 1
 327 508 l 1
 530 508 l 1
 607 700 l 1
 674 700 l 1
 598 508 l 1
 734 508 l 1
 734 443 l 1
 573 443 l 1
 499 257 l 1
 632 257 l 1
 632 192 l 1
 474 192 l 1
 398 0 l 1
 331 0 l 1
 407 192 l 1
 203 192 l 1
 127 0 l 1
302 443 m 1
 229 257 l 1
 431 257 l 1
 506 443 l 1
 302 443 l 1
EndSplineSet
Validated: 1
EndChar

StartChar: dollar
Encoding: 36 36 3
Width: 544
Flags: MW
HStem: -70 135<239 304 239 239> 0 65<150 239 143 375 304 375 150 402 304 304> 635 65<169 240 305 392 169 169> 635 135<240 305 240 392 169 305>
VStem: 40 65<499 571 499 598 499 598> 239 65<-70 0 -70 0> 439 65<129 224 224 224>
LayerCount: 2
Fore
SplineSet
150 65 m 1x6e
 375 65 l 1
 439 129 l 1
 439 224 l 1
 425 250 l 1
 67 424 l 1
 40 480 l 1
 40 598 l 1
 142 700 l 1
 240 700 l 1x6e
 240 770 l 1
 305 770 l 1x9e
 305 700 l 1
 404 700 l 1
 502 667 l 1
 482 607 l 1
 392 635 l 1
 169 635 l 1
 105 571 l 1
 105 499 l 1
 117 474 l 1
 473 301 l 1
 504 243 l 1
 504 102 l 1
 402 0 l 1
 304 0 l 1x6e
 304 -70 l 1
 239 -70 l 1xae
 239 0 l 1
 143 0 l 1
 42 34 l 1
 63 95 l 1
 150 65 l 1x6e
EndSplineSet
Validated: 1
EndChar

StartChar: percent
Encoding: 37 37 4
Width: 701
Flags: MW
HStem: -11 21G<111 111> 0 65<490 562 490 589 463 562> 225 65<490 562 490 490> 410 65<139 211 139 238 112 211> 635 65<139 211 139 139> 693 20G<590 590>
VStem: 30 65<519 591 519 618 519 618> 255 65<519 591 591 591> 381 65<109 181 109 208 109 208> 606 65<109 181 181 181>
LayerCount: 2
Fore
SplineSet
61 28 m 1xb7c0
 590 713 l 1
 639 675 l 1
 111 -11 l 1
 61 28 l 1xb7c0
463 290 m 1
 589 290 l 1
 671 208 l 1
 671 82 l 1
 589 0 l 1
 463 0 l 1x7bc0
 381 82 l 1
 381 208 l 1
 463 290 l 1
562 225 m 1
 490 225 l 1
 446 181 l 1
 446 109 l 1
 490 65 l 1
 562 65 l 1
 606 109 l 1
 606 181 l 1
 562 225 l 1
112 700 m 1
 238 700 l 1
 320 618 l 1
 320 492 l 1
 238 410 l 1
 112 410 l 1
 30 492 l 1
 30 618 l 1
 112 700 l 1
211 635 m 1
 139 635 l 1
 95 591 l 1
 95 519 l 1
 139 475 l 1
 211 475 l 1
 255 519 l 1
 255 591 l 1
 211 635 l 1
EndSplineSet
Validated: 1
EndChar

StartChar: ampersand
Encoding: 38 38 5
Width: 605
Flags: MW
HStem: -12 21G<547 547> 0 65<160 330 160 356 133 330> 635 65<228 378 228 228>
VStem: 30 65<130 213 130 240 130 240> 443 65<502 570 570 570>
LayerCount: 2
Fore
SplineSet
547 -12 m 1xb8
 451 95 l 1
 356 0 l 1
 133 0 l 1x78
 30 102 l 1
 30 240 l 1
 184 392 l 1
 98 488 l 1
 98 598 l 1
 201 700 l 1
 405 700 l 1
 508 597 l 1
 508 502 l 1
 443 502 l 1
 443 570 l 1
 378 635 l 1
 228 635 l 1
 163 570 l 1
 163 513 l 1
 453 190 l 1
 544 280 l 1
 590 234 l 1
 497 141 l 1
 595 31 l 1
 547 -12 l 1xb8
160 65 m 1x78
 330 65 l 1
 408 143 l 1
 227 344 l 1
 95 213 l 1
 95 130 l 1
 160 65 l 1x78
EndSplineSet
Validated: 1
EndChar

StartChar: quotesingle
Encoding: 39 39 6
Width: 130
Flags: MW
HStem: 447 21G<41 41 41 89> 680 20G<30 100 100 100>
VStem: 35 59
LayerCount: 2
Fore
SplineSet
41 447 m 1
 30 700 l 1
 100 700 l 1
 89 447 l 1
 41 447 l 1
EndSplineSet
Validated: 1
EndChar

StartChar: parenleft
Encoding: 40 40 7
Width: 250
Flags: MW
HStem: -178 21G<228 228> 694 20G<228 228>
VStem: 40 65<-8 544 -8 558 -8 558>
LayerCount: 2
Fore
SplineSet
105 544 m 1
 105 -8 l 1
 152 -82 l 1
 250 -118 l 1
 228 -178 l 1
 111 -136 l 1
 40 -22 l 1
 40 558 l 1
 111 672 l 1
 228 714 l 1
 250 654 l 1
 152 618 l 1
 105 544 l 1
EndSplineSet
Validated: 1
EndChar

StartChar: parenright
Encoding: 41 41 8
Width: 250
Flags: MW
HStem: -178 21G<22 22> 694 20G<22 22>
VStem: 145 65<-8 544 544 544>
LayerCount: 2
Fore
SplineSet
145 -8 m 1
 145 544 l 1
 98 618 l 1
 0 654 l 1
 22 714 l 1
 139 672 l 1
 210 558 l 1
 210 -22 l 1
 139 -136 l 1
 22 -178 l 1
 0 -118 l 1
 98 -82 l 1
 145 -8 l 1
EndSplineSet
Validated: 1
EndChar

StartChar: asterisk
Encoding: 42 42 9
Width: 377
Flags: MW
HStem: 368 21G<156 221 156 156> 680 20G<156 221 221 221>
VStem: 156 65<368 476 368 476 592 700>
LayerCount: 2
Fore
SplineSet
156 592 m 1
 156 700 l 1
 221 700 l 1
 221 592 l 1
 313 646 l 1
 347 589 l 1
 254 534 l 1
 347 479 l 1
 313 422 l 1
 221 476 l 1
 221 368 l 1
 156 368 l 1
 156 476 l 1
 64 422 l 1
 30 479 l 1
 123 534 l 1
 30 589 l 1
 64 646 l 1
 156 592 l 1
EndSplineSet
Validated: 1
EndChar

StartChar: plus
Encoding: 43 43 10
Width: 470
Flags: MW
HStem: 130 21G<202 267 202 202> 312 65<20 202 20 202 267 450> 540 20G<202 267 267 267>
VStem: 202 65<130 312 130 312 377 560>
LayerCount: 2
Fore
SplineSet
202 560 m 1
 267 560 l 1
 267 377 l 1
 450 377 l 1
 450 312 l 1
 267 312 l 1
 267 130 l 1
 202 130 l 1
 202 312 l 1
 20 312 l 1
 20 377 l 1
 202 377 l 1
 202 560 l 1
EndSplineSet
Validated: 1
EndChar

StartChar: comma
Encoding: 44 44 11
Width: 150
Flags: MW
HStem: -180 21G<0 0 0 45> 40 20G<55 130 130 130>
LayerCount: 2
Fore
SplineSet
0 -180 m 1
 55 60 l 1
 130 60 l 1
 45 -180 l 1
 0 -180 l 1
EndSplineSet
Validated: 1
EndChar

StartChar: hyphen
Encoding: 45 45 12
Width: 450
Flags: MW
HStem: 312 65<20 430 20 430>
LayerCount: 2
Fore
SplineSet
20 312 m 1
 20 377 l 1
 430 377 l 1
 430 312 l 1
 20 312 l 1
EndSplineSet
Validated: 1
EndChar

StartChar: period
Encoding: 46 46 13
Width: 150
Flags: MW
HStem: -10 21G<54 54 54 96> 60 20G<54 96 96 96>
LayerCount: 2
Fore
SplineSet
54 -10 m 1
 30 14 l 1
 30 56 l 1
 54 80 l 1
 96 80 l 1
 120 56 l 1
 120 14 l 1
 96 -10 l 1
 54 -10 l 1
EndSplineSet
Validated: 1
EndChar

StartChar: slash
Encoding: 47 47 14
Width: 506
Flags: MW
HStem: -14 21G<53 53> 692 20G<453 453>
LayerCount: 2
Fore
SplineSet
0 20 m 1
 453 712 l 1
 506 679 l 1
 53 -14 l 1
 0 20 l 1
EndSplineSet
Validated: 1
EndChar

StartChar: zero
Encoding: 48 48 15
Width: 604
Flags: MW
HStem: 0 65<188 414 188 441 162 414> 635 65<190 416 190 190>
VStem: 60 65<125 125 125 571> 479 65<129 575 575 575>
LayerCount: 2
Fore
SplineSet
125 125 m 1
 430 622 l 1
 416 635 l 1
 190 635 l 1
 125 571 l 1
 125 125 l 1
479 575 m 1
 174 78 l 1
 188 65 l 1
 414 65 l 1
 479 129 l 1
 479 575 l 1
442 700 m 1
 544 598 l 1
 544 102 l 1
 441 0 l 1
 162 0 l 1
 60 102 l 1
 60 598 l 1
 163 700 l 1
 442 700 l 1
EndSplineSet
Validated: 1
EndChar

StartChar: one
Encoding: 49 49 16
Width: 360
Flags: MW
HStem: 0 65<43 159 224 340 43 159> 681 20G<159 224 224 224>
VStem: 159 65<65 609 609 609 65 701>
LayerCount: 2
Fore
SplineSet
340 0 m 1
 43 0 l 1
 43 65 l 1
 159 65 l 1
 159 609 l 1
 66 516 l 1
 20 562 l 1
 159 701 l 1
 224 701 l 1
 224 65 l 1
 340 65 l 1
 340 0 l 1
EndSplineSet
Validated: 1
EndChar

StartChar: two
Encoding: 50 50 17
Width: 546
Flags: MW
HStem: 0 65<86 506 86 506> 635 65<128 128 128 378>
VStem: 441 65<445 571 571 571>
LayerCount: 2
Fore
SplineSet
128 635 m 1
 40 607 l 1
 20 668 l 1
 123 700 l 1
 404 700 l 1
 506 597 l 1
 506 416 l 1
 413 323 l 1
 86 109 l 1
 86 65 l 1
 506 65 l 1
 506 0 l 1
 21 0 l 1
 21 144 l 1
 368 371 l 1
 441 445 l 1
 441 571 l 1
 378 635 l 1
 128 635 l 1
EndSplineSet
Validated: 1
EndChar

StartChar: three
Encoding: 51 51 18
Width: 535
Flags: MW
HStem: 0 65<111 366 118 366 118 392> 345 65<241 367> 635 65<21 401 21 495>
VStem: 430 65<128 282 282 282>
LayerCount: 2
Fore
SplineSet
111 0 m 1
 10 34 l 1
 31 95 l 1
 118 65 l 1
 366 65 l 1
 430 128 l 1
 430 282 l 1
 367 345 l 1
 151 345 l 1
 151 414 l 1
 401 635 l 1
 21 635 l 1
 21 700 l 1
 495 700 l 1
 495 634 l 1
 241 410 l 1
 393 410 l 1
 495 308 l 1
 495 102 l 1
 392 0 l 1
 111 0 l 1
EndSplineSet
Validated: 1
EndChar

StartChar: four
Encoding: 52 52 19
Width: 556
Flags: MW
HStem: 0 21G<408 473 408 408> 171 65<79 408 79 408 473 546> 682 20G<408 473 473 473>
VStem: 408 65<0 171 0 171 236 602 602 602>
LayerCount: 2
Fore
SplineSet
473 236 m 1
 546 236 l 1
 546 171 l 1
 473 171 l 1
 473 0 l 1
 408 0 l 1
 408 171 l 1
 10 171 l 1
 10 259 l 1
 408 702 l 1
 473 702 l 1
 473 236 l 1
408 236 m 1
 408 602 l 1
 79 236 l 1
 408 236 l 1
EndSplineSet
Validated: 1
EndChar

StartChar: five
Encoding: 53 53 20
Width: 559
Flags: MW
HStem: 0 65<158 388 158 416 151 388> 353 65<124 389> 635 65<124 519 124 124>
VStem: 59 65<418 635 418 700> 454 65<130 288 288 288>
LayerCount: 2
Fore
SplineSet
59 700 m 1
 519 700 l 1
 519 635 l 1
 124 635 l 1
 124 418 l 1
 417 418 l 1
 519 316 l 1
 519 102 l 1
 416 0 l 1
 151 0 l 1
 50 34 l 1
 71 95 l 1
 158 65 l 1
 388 65 l 1
 454 130 l 1
 454 288 l 1
 389 353 l 1
 59 353 l 1
 59 700 l 1
EndSplineSet
Validated: 1
EndChar

StartChar: six
Encoding: 54 54 21
Width: 585
Flags: MW
HStem: 0 65<190 415 190 442 163 415> 360 65<158 415 158 442> 635 65<188 431 188 188>
VStem: 60 65<130 349 414 571> 480 65<130 293 293 293>
LayerCount: 2
Fore
SplineSet
60 103 m 1
 60 597 l 1
 162 700 l 1
 444 700 l 1
 542 667 l 1
 520 606 l 1
 431 635 l 1
 188 635 l 1
 125 571 l 1
 125 414 l 1
 158 425 l 1
 442 425 l 1
 545 320 l 1
 545 102 l 1
 442 0 l 1
 163 0 l 1
 60 103 l 1
415 360 m 1
 158 360 l 1
 125 349 l 1
 125 130 l 1
 190 65 l 1
 415 65 l 1
 480 130 l 1
 480 293 l 1
 415 360 l 1
EndSplineSet
Validated: 1
EndChar

StartChar: seven
Encoding: 55 55 22
Width: 505
Flags: MW
HStem: 0 21G<184 249 184 184> 635 65<10 420 10 485>
VStem: 184 65<0 175 0 191 0 191>
LayerCount: 2
Fore
SplineSet
249 175 m 1
 249 0 l 1
 184 0 l 1
 184 191 l 1
 420 592 l 1
 420 635 l 1
 10 635 l 1
 10 700 l 1
 485 700 l 1
 485 575 l 1
 249 175 l 1
EndSplineSet
Validated: 1
EndChar

StartChar: eight
Encoding: 56 56 23
Width: 603
Flags: MW
HStem: 0 65<190 412 190 440 163 412> 332 65<191 412 191 414 190 412> 635 65<193 410 193 193>
VStem: 60 65<129 267 129 295 129 295> 478 65<130 268 268 268>
LayerCount: 2
Fore
SplineSet
478 268 m 1
 414 332 l 1
 190 332 l 1
 125 267 l 1
 125 129 l 1
 190 65 l 1
 412 65 l 1
 478 130 l 1
 478 268 l 1
410 635 m 1
 193 635 l 1
 130 572 l 1
 130 457 l 1
 191 397 l 1
 412 397 l 1
 473 457 l 1
 473 569 l 1
 410 635 l 1
440 0 m 1
 163 0 l 1
 60 102 l 1
 60 295 l 1
 130 365 l 1
 65 429 l 1
 65 598 l 1
 167 700 l 1
 440 700 l 1
 538 598 l 1
 538 429 l 1
 473 365 l 1
 543 295 l 1
 543 102 l 1
 440 0 l 1
EndSplineSet
Validated: 1
EndChar

StartChar: nine
Encoding: 57 57 24
Width: 585
Flags: MW
HStem: 0 65<154 397 154 423 141 397> 275 65<170 427 170 427 143 427> 635 65<170 395 170 170>
VStem: 40 65<407 570 407 598 407 598> 460 65<129 286 286 286 351 570 570 570>
LayerCount: 2
Fore
SplineSet
525 597 m 1
 525 103 l 1
 423 0 l 1
 141 0 l 1
 43 33 l 1
 65 94 l 1
 154 65 l 1
 397 65 l 1
 460 129 l 1
 460 286 l 1
 427 275 l 1
 143 275 l 1
 40 380 l 1
 40 598 l 1
 143 700 l 1
 422 700 l 1
 525 597 l 1
170 340 m 1
 427 340 l 1
 460 351 l 1
 460 570 l 1
 395 635 l 1
 170 635 l 1
 105 570 l 1
 105 407 l 1
 170 340 l 1
EndSplineSet
Validated: 1
EndChar

StartChar: colon
Encoding: 58 58 25
Width: 150
Flags: MW
HStem: -10 21G<54 54 54 96> 448 20G<54 96 96 96>
VStem: 30 90<14 56 14 56 402 444>
LayerCount: 2
Fore
SplineSet
54 -10 m 1
 30 14 l 1
 30 56 l 1
 54 80 l 1
 96 80 l 1
 120 56 l 1
 120 14 l 1
 96 -10 l 1
 54 -10 l 1
54 378 m 1
 30 402 l 1
 30 444 l 1
 54 468 l 1
 96 468 l 1
 120 444 l 1
 120 402 l 1
 96 378 l 1
 54 378 l 1
EndSplineSet
Validated: 1
EndChar

StartChar: semicolon
Encoding: 59 59 26
Width: 156
Flags: MW
HStem: -180 21G<0 0 0 45> 448 20G<60 102 102 102>
LayerCount: 2
Fore
SplineSet
60 378 m 1
 36 402 l 1
 36 444 l 1
 60 468 l 1
 102 468 l 1
 126 444 l 1
 126 402 l 1
 102 378 l 1
 60 378 l 1
0 -180 m 1
 55 60 l 1
 130 60 l 1
 45 -180 l 1
 0 -180 l 1
EndSplineSet
Validated: 1
EndChar

StartChar: less
Encoding: 60 60 27
Width: 349
Flags: MW
HStem: 3 21G<296 296> 503 20G<296 296>
LayerCount: 2
Fore
SplineSet
20 240 m 1
 20 286 l 1
 296 523 l 1
 339 474 l 1
 94 263 l 1
 339 52 l 1
 296 3 l 1
 20 240 l 1
EndSplineSet
Validated: 1
EndChar

StartChar: equal
Encoding: 61 61 28
Width: 450
Flags: MW
HStem: 222 65<20 430 20 430> 403 65<20 430 20 430>
LayerCount: 2
Fore
SplineSet
20 403 m 1
 20 468 l 1
 430 468 l 1
 430 403 l 1
 20 403 l 1
20 222 m 1
 20 287 l 1
 430 287 l 1
 430 222 l 1
 20 222 l 1
EndSplineSet
Validated: 1
EndChar

StartChar: greater
Encoding: 62 62 29
Width: 349
Flags: MW
HStem: 3 21G<53 53> 503 20G<53 53>
LayerCount: 2
Fore
SplineSet
329 286 m 1
 329 240 l 1
 53 3 l 1
 10 52 l 1
 255 263 l 1
 10 474 l 1
 53 523 l 1
 329 286 l 1
EndSplineSet
Validated: 1
EndChar

StartChar: question
Encoding: 63 63 30
Width: 544
Flags: MW
HStem: -12 21G<235 235 235 277> 635 65<145 145 145 375>
VStem: 224 65<125 234 125 269 125 269> 439 65<449 571 571 571>
LayerCount: 2
Fore
SplineSet
145 635 m 1
 47 537 l 1
 0 583 l 1
 118 700 l 1
 402 700 l 1
 504 598 l 1
 504 414 l 1
 289 234 l 1
 289 125 l 1
 224 125 l 1
 224 269 l 1
 439 449 l 1
 439 571 l 1
 375 635 l 1
 145 635 l 1
235 -12 m 1
 211 12 l 1
 211 54 l 1
 235 78 l 1
 277 78 l 1
 301 54 l 1
 301 12 l 1
 277 -12 l 1
 235 -12 l 1
EndSplineSet
Validated: 1
EndChar

StartChar: at
Encoding: 64 64 31
Width: 879
Flags: MW
HStem: -114 65<230 676 230 676 206 676> 63 65<360 481 360 509 333 481> 272 65<360 549 360 360> 453 65<370 504 370 370> 635 65<230 649 230 230>
VStem: 70 65<36 550 36 578 36 578> 549 65<194 272 272 272 337 409 409 409> 744 65<176 550 550 550>
LayerCount: 2
Fore
SplineSet
809 578 m 1
 809 149 l 1
 726 67 l 1
 579 67 l 1
 563 117 l 1
 509 63 l 1
 333 63 l 1
 250 145 l 1
 250 255 l 1
 333 337 l 1
 549 337 l 1
 549 409 l 1
 504 453 l 1
 370 453 l 1
 283 423 l 1
 262 484 l 1
 363 518 l 1
 531 518 l 1
 614 436 l 1
 614 172 l 1
 627 132 l 1
 699 132 l 1
 744 176 l 1
 744 550 l 1
 649 635 l 1
 230 635 l 1
 135 550 l 1
 135 36 l 1
 230 -49 l 1
 676 -49 l 1
 676 -114 l 1
 206 -114 l 1
 70 8 l 1
 70 578 l 1
 206 700 l 1
 673 700 l 1
 809 578 l 1
481 128 m 1
 549 194 l 1
 549 272 l 1
 360 272 l 1
 315 228 l 1
 315 172 l 1
 360 128 l 1
 481 128 l 1
EndSplineSet
Validated: 1
EndChar

StartChar: A
Encoding: 65 65 32
Width: 578
Flags: MW
HStem: -10 21G<83 83 495 495> 212 65<155 402 176 402 176 423> 680 20G<243 335 335 335>
LayerCount: 2
Fore
SplineSet
155 212 m 1
 83 -10 l 1
 20 10 l 1
 243 700 l 1
 335 700 l 1
 558 10 l 1
 495 -10 l 1
 423 212 l 1
 155 212 l 1
176 277 m 1
 402 277 l 1
 289 627 l 1
 176 277 l 1
EndSplineSet
Validated: 1
EndChar

StartChar: B
Encoding: 66 66 33
Width: 615
Flags: MW
HStem: 0 65<145 437 145 462> 337 65<145 435 145 437 145 435> 635 65<145 145 145 435>
VStem: 80 65<65 337 402 635> 479 65<446 591 591 591> 500 65<128 273 273 273>
LayerCount: 2
Fore
SplineSet
495 370 m 1xf8
 565 299 l 1
 565 103 l 1xf4
 462 0 l 1
 80 0 l 1
 80 700 l 1
 461 700 l 1
 544 617 l 1
 544 419 l 1
 495 370 l 1xf8
500 273 m 1
 437 337 l 1
 145 337 l 1
 145 65 l 1
 437 65 l 1
 500 128 l 1
 500 273 l 1
145 635 m 1
 145 402 l 1
 435 402 l 1
 479 446 l 1
 479 591 l 1xf8
 435 635 l 1
 145 635 l 1
EndSplineSet
Validated: 1
EndChar

StartChar: C
Encoding: 67 67 34
Width: 579
Flags: MW
HStem: 0 65<190 426 190 454 163 426> 635 65<190 415 190 190>
VStem: 60 65<130 570 130 597 130 597> 480 65<485 570 570 570>
LayerCount: 2
Fore
SplineSet
426 65 m 1
 502 141 l 1
 549 95 l 1
 454 0 l 1
 163 0 l 1
 60 103 l 1
 60 597 l 1
 163 700 l 1
 442 700 l 1
 545 597 l 1
 545 485 l 1
 480 485 l 1
 480 570 l 1
 415 635 l 1
 190 635 l 1
 125 570 l 1
 125 130 l 1
 190 65 l 1
 426 65 l 1
EndSplineSet
Validated: 1
EndChar

StartChar: D
Encoding: 68 68 35
Width: 626
Flags: MW
HStem: 0 65<145 436 145 463> 635 65<145 436 145 145>
VStem: 80 65<65 635 65 700> 501 65<131 569 569 569>
LayerCount: 2
Fore
SplineSet
80 700 m 1
 463 700 l 1
 566 596 l 1
 566 104 l 1
 463 0 l 1
 80 0 l 1
 80 700 l 1
501 569 m 1
 436 635 l 1
 145 635 l 1
 145 65 l 1
 436 65 l 1
 501 131 l 1
 501 569 l 1
EndSplineSet
Validated: 1
EndChar

StartChar: E
Encoding: 69 69 36
Width: 533
Flags: MW
HStem: 0 65<145 513 145 513> 338 65<145 471 145 471> 635 65<145 513 145 145>
VStem: 80 65<65 338 403 635>
LayerCount: 2
Fore
SplineSet
80 0 m 1
 80 700 l 1
 513 700 l 1
 513 635 l 1
 145 635 l 1
 145 403 l 1
 471 403 l 1
 471 338 l 1
 145 338 l 1
 145 65 l 1
 513 65 l 1
 513 0 l 1
 80 0 l 1
EndSplineSet
Validated: 1
EndChar

StartChar: F
Encoding: 70 70 37
Width: 523
Flags: MW
HStem: 0 21G<80 80 80 145> 330 65<145 471 145 471> 635 65<145 513 145 145>
VStem: 80 65<0 330 395 635>
LayerCount: 2
Fore
SplineSet
80 0 m 1
 80 700 l 1
 513 700 l 1
 513 635 l 1
 145 635 l 1
 145 395 l 1
 471 395 l 1
 471 330 l 1
 145 330 l 1
 145 0 l 1
 80 0 l 1
EndSplineSet
Validated: 1
EndChar

StartChar: G
Encoding: 71 71 38
Width: 605
Flags: MW
HStem: 0 65<188 417 188 443 162 417> 296 65<312 480 312 545> 635 65<188 417 188 188>
VStem: 60 65<129 571 129 598 129 598> 312 233<296 361 102 361> 480 65<129 296 296 296 485 571 571 571>
LayerCount: 2
Fore
SplineSet
545 598 m 1xf8
 545 485 l 1
 480 485 l 1
 480 571 l 1
 417 635 l 1
 188 635 l 1
 125 571 l 1
 125 129 l 1
 188 65 l 1
 417 65 l 1
 480 129 l 1
 480 296 l 1xf4
 312 296 l 1
 312 361 l 1
 545 361 l 1
 545 102 l 1
 443 0 l 1
 162 0 l 1
 60 102 l 1
 60 598 l 1
 162 700 l 1
 443 700 l 1
 545 598 l 1xf8
EndSplineSet
Validated: 1
EndChar

StartChar: H
Encoding: 72 72 39
Width: 645
Flags: MW
HStem: 0 21G<80 145 80 80 500 565 500 500> 331 65<145 500 145 500> 680 20G<80 145 145 145 500 565 565 565>
VStem: 80 65<0 331 396 700> 500 65<0 331 331 331 396 700 0 700>
LayerCount: 2
Fore
SplineSet
500 396 m 1
 500 700 l 1
 565 700 l 1
 565 0 l 1
 500 0 l 1
 500 331 l 1
 145 331 l 1
 145 0 l 1
 80 0 l 1
 80 700 l 1
 145 700 l 1
 145 396 l 1
 500 396 l 1
EndSplineSet
Validated: 1
EndChar

StartChar: I
Encoding: 73 73 40
Width: 357
Flags: MW
HStem: 0 65<30 146 211 327 30 146> 635 65<30 146 30 327 211 211 211 327>
VStem: 146 65<65 635 65 635>
LayerCount: 2
Fore
SplineSet
327 0 m 1
 30 0 l 1
 30 65 l 1
 146 65 l 1
 146 635 l 1
 30 635 l 1
 30 700 l 1
 327 700 l 1
 327 635 l 1
 211 635 l 1
 211 65 l 1
 327 65 l 1
 327 0 l 1
EndSplineSet
Validated: 1
EndChar

StartChar: J
Encoding: 74 74 41
Width: 527
Flags: MW
HStem: 0 65<117 327 146 327 146 354> 635 65<224 392 224 457>
VStem: 224 233<635 700 103 700> 392 65<130 635 635 635>
LayerCount: 2
Fore
SplineSet
117 0 m 1xe0
 0 117 l 1
 47 163 l 1
 146 65 l 1
 327 65 l 1
 392 130 l 1
 392 635 l 1xd0
 224 635 l 1
 224 700 l 1
 457 700 l 1
 457 103 l 1
 354 0 l 1
 117 0 l 1xe0
EndSplineSet
Validated: 1
EndChar

StartChar: K
Encoding: 75 75 42
Width: 563
Flags: MW
HStem: -20 20G<80 145 80 80> -10 21G<509 509> 690 20G<510 510>
VStem: 80 65<0 232 326 700>
LayerCount: 2
Fore
SplineSet
314 409 m 1xb0
 563 25 l 1
 509 -10 l 1x70
 268 361 l 1
 145 232 l 1
 145 0 l 1
 80 0 l 1
 80 700 l 1
 145 700 l 1
 145 326 l 1
 510 710 l 1
 557 665 l 1
 314 409 l 1xb0
EndSplineSet
Validated: 1
EndChar

StartChar: L
Encoding: 76 76 43
Width: 513
Flags: MW
HStem: 0 65<145 513 145 513> 680 20G<80 145 145 145>
VStem: 80 65<65 700 65 700 65 700>
LayerCount: 2
Fore
SplineSet
80 0 m 1
 80 700 l 1
 145 700 l 1
 145 65 l 1
 513 65 l 1
 513 0 l 1
 80 0 l 1
EndSplineSet
Validated: 1
EndChar

StartChar: M
Encoding: 77 77 44
Width: 832
Flags: MW
HStem: 0 21G<80 145 80 80 687 687 687 752> 680 20G<80 152 152 152 680 752 752 752>
VStem: 80 65<0 581 0 700> 687 65<0 581 581 581>
LayerCount: 2
Fore
SplineSet
444 166 m 1
 388 166 l 1
 145 581 l 1
 145 0 l 1
 80 0 l 1
 80 700 l 1
 152 700 l 1
 416 249 l 1
 680 700 l 1
 752 700 l 1
 752 0 l 1
 687 0 l 1
 687 581 l 1
 444 166 l 1
EndSplineSet
Validated: 1
EndChar

StartChar: N
Encoding: 78 78 45
Width: 646
Flags: MW
HStem: 0 21G<80 145 80 80 493 566 493 493> 680 20G<80 153 153 153 501 566 566 566>
VStem: 80 65<0 587 0 700> 501 65<113 700 0 700>
LayerCount: 2
Fore
SplineSet
493 0 m 1
 145 587 l 1
 145 0 l 1
 80 0 l 1
 80 700 l 1
 153 700 l 1
 501 113 l 1
 501 700 l 1
 566 700 l 1
 566 0 l 1
 493 0 l 1
EndSplineSet
Validated: 1
EndChar

StartChar: O
Encoding: 79 79 46
Width: 635
Flags: MW
HStem: 0 65<197 438 197 462 173 438> 635 65<197 438 197 197>
VStem: 60 65<130 570 130 597 130 597> 510 65<130 570 570 570>
LayerCount: 2
Fore
SplineSet
173 700 m 1
 462 700 l 1
 575 597 l 1
 575 103 l 1
 462 0 l 1
 173 0 l 1
 60 103 l 1
 60 597 l 1
 173 700 l 1
510 570 m 1
 438 635 l 1
 197 635 l 1
 125 570 l 1
 125 130 l 1
 197 65 l 1
 438 65 l 1
 510 130 l 1
 510 570 l 1
EndSplineSet
Validated: 1
EndChar

StartChar: P
Encoding: 80 80 47
Width: 605
Flags: MW
HStem: 0 21G<80 145 80 80> 267 65<145 434 145 434 145 462> 635 65<145 434 145 145>
VStem: 80 65<0 267 332 635> 500 65<397 570 570 570>
LayerCount: 2
Fore
SplineSet
145 267 m 1
 145 0 l 1
 80 0 l 1
 80 700 l 1
 462 700 l 1
 565 598 l 1
 565 369 l 1
 462 267 l 1
 145 267 l 1
434 635 m 1
 145 635 l 1
 145 332 l 1
 434 332 l 1
 500 397 l 1
 500 570 l 1
 434 635 l 1
EndSplineSet
Validated: 1
EndChar

StartChar: Q
Encoding: 81 81 48
Width: 635
Flags: MW
HStem: -138 21G<285 350 285 285> 0 65<197 285 197 285 173 285 350 438> 635 65<197 438 197 197>
VStem: 60 65<130 570 130 597 130 597> 285 65<-138 0 -138 0 65 125> 510 65<130 570 570 570>
CounterMasks: 1 1c
LayerCount: 2
Fore
SplineSet
285 0 m 1
 173 0 l 1
 60 103 l 1
 60 597 l 1
 173 700 l 1
 462 700 l 1
 575 597 l 1
 575 103 l 1
 462 0 l 1
 350 0 l 1
 350 -138 l 1
 285 -138 l 1
 285 0 l 1
350 65 m 1
 438 65 l 1
 510 130 l 1
 510 570 l 1
 438 635 l 1
 197 635 l 1
 125 570 l 1
 125 130 l 1
 197 65 l 1
 285 65 l 1
 285 125 l 1
 350 125 l 1
 350 65 l 1
EndSplineSet
Validated: 1
EndChar

StartChar: R
Encoding: 82 82 49
Width: 605
Flags: MW
HStem: -20 20G<80 145 80 80> -15 21G<517 517> 274 65<145 434 145 229 321 321 321 434 145 462> 635 65<145 434 145 145>
VStem: 80 65<0 274 339 635> 500 65<404 570 570 570>
LayerCount: 2
Fore
SplineSet
145 274 m 1x7c
 145 0 l 1
 80 0 l 1xbc
 80 700 l 1
 462 700 l 1
 565 598 l 1
 565 376 l 1
 462 274 l 1
 321 274 l 1
 563 32 l 1
 517 -15 l 1
 229 274 l 1
 145 274 l 1x7c
434 635 m 1
 145 635 l 1
 145 339 l 1
 434 339 l 1
 500 404 l 1
 500 570 l 1
 434 635 l 1
EndSplineSet
Validated: 1
EndChar

StartChar: S
Encoding: 83 83 50
Width: 544
Flags: MW
HStem: 0 65<150 375 150 402 143 375> 635 65<169 392 169 169>
VStem: 40 65<499 571 499 598 499 598> 439 65<129 224 224 224>
LayerCount: 2
Fore
SplineSet
392 635 m 1
 169 635 l 1
 105 571 l 1
 105 499 l 1
 117 474 l 1
 473 301 l 1
 504 243 l 1
 504 102 l 1
 402 0 l 1
 143 0 l 1
 42 34 l 1
 63 95 l 1
 150 65 l 1
 375 65 l 1
 439 129 l 1
 439 224 l 1
 425 250 l 1
 67 424 l 1
 40 480 l 1
 40 598 l 1
 142 700 l 1
 404 700 l 1
 502 667 l 1
 482 607 l 1
 392 635 l 1
EndSplineSet
Validated: 1
EndChar

StartChar: T
Encoding: 84 84 51
Width: 505
Flags: MW
HStem: 0 21G<220 285 220 220> 635 65<0 220 0 505 285 505 285 285>
VStem: 220 65<0 635 0 635>
LayerCount: 2
Fore
SplineSet
285 635 m 1
 285 0 l 1
 220 0 l 1
 220 635 l 1
 0 635 l 1
 0 700 l 1
 505 700 l 1
 505 635 l 1
 285 635 l 1
EndSplineSet
Validated: 1
EndChar

StartChar: U
Encoding: 85 85 52
Width: 625
Flags: MW
HStem: 0 65<173 424 201 424 201 452> 680 20G<70 135 135 135 490 555 555 555>
VStem: 70 65<130 700 130 700 130 700> 490 65<130 700 102 700>
LayerCount: 2
Fore
SplineSet
173 0 m 1
 70 102 l 1
 70 700 l 1
 135 700 l 1
 135 130 l 1
 201 65 l 1
 424 65 l 1
 490 130 l 1
 490 700 l 1
 555 700 l 1
 555 102 l 1
 452 0 l 1
 173 0 l 1
EndSplineSet
Validated: 1
EndChar

StartChar: V
Encoding: 86 86 53
Width: 586
Flags: MW
HStem: 0 21G<249 337 249 249> 690 20G<83 83 503 503>
LayerCount: 2
Fore
SplineSet
337 0 m 1
 249 0 l 1
 20 689 l 1
 83 710 l 1
 293 79 l 1
 503 710 l 1
 566 689 l 1
 337 0 l 1
EndSplineSet
Validated: 1
EndChar

StartChar: W
Encoding: 87 87 54
Width: 908
Flags: MW
HStem: 0 21G<218 292 218 218 616 690 616 616> 690 20G<84 84 824 824>
LayerCount: 2
Fore
SplineSet
418 679 m 1
 490 679 l 1
 653 113 l 1
 824 710 l 1
 888 692 l 1
 690 0 l 1
 616 0 l 1
 454 564 l 1
 292 0 l 1
 218 0 l 1
 20 692 l 1
 84 710 l 1
 255 113 l 1
 418 679 l 1
EndSplineSet
Validated: 1
EndChar

StartChar: X
Encoding: 88 88 55
Width: 544
Flags: MW
HStem: -10 21G<77 77 467 467> 690 20G<75 75 469 469>
LayerCount: 2
Fore
SplineSet
75 710 m 1
 272 410 l 1
 469 710 l 1
 524 674 l 1
 311 350 l 1
 522 26 l 1
 467 -10 l 1
 272 290 l 1
 77 -10 l 1
 22 26 l 1
 233 350 l 1
 20 674 l 1
 75 710 l 1
EndSplineSet
Validated: 1
EndChar

StartChar: Y
Encoding: 89 89 56
Width: 560
Flags: MW
HStem: 0 21G<247 312 247 247> 690 20G<68 68 492 492>
VStem: 247 65<0 263>
LayerCount: 2
Fore
SplineSet
312 0 m 1
 247 0 l 1
 247 264 l 1
 10 676 l 1
 68 710 l 1
 280 342 l 1
 492 710 l 1
 550 676 l 1
 312 263 l 1
 312 0 l 1
EndSplineSet
Validated: 1
EndChar

StartChar: Z
Encoding: 90 90 57
Width: 515
Flags: MW
HStem: 0 65<106 490 106 490> 635 65<25 409 25 495>
LayerCount: 2
Fore
SplineSet
106 65 m 1
 490 65 l 1
 490 0 l 1
 20 0 l 1
 20 62 l 1
 409 635 l 1
 25 635 l 1
 25 700 l 1
 495 700 l 1
 495 636 l 1
 106 65 l 1
EndSplineSet
Validated: 1
EndChar

StartChar: bracketleft
Encoding: 91 91 58
Width: 224
Flags: MW
HStem: -168 65<105 224 105 224> 635 65<105 224 105 105>
VStem: 40 65<-103 635 -103 700> 40 184<-168 -103 635 700>
LayerCount: 2
Fore
SplineSet
224 -168 m 1xd0
 40 -168 l 1
 40 700 l 1
 224 700 l 1
 224 635 l 1xd0
 105 635 l 1
 105 -103 l 1xe0
 224 -103 l 1
 224 -168 l 1xd0
EndSplineSet
Validated: 1
EndChar

StartChar: backslash
Encoding: 92 92 59
Width: 506
Flags: MW
HStem: -14 21G<453 453> 692 20G<53 53>
LayerCount: 2
Fore
SplineSet
53 712 m 1
 506 20 l 1
 453 -14 l 1
 0 679 l 1
 53 712 l 1
EndSplineSet
Validated: 1
EndChar

StartChar: bracketright
Encoding: 93 93 60
Width: 224
Flags: MW
HStem: -168 65<0 119 0 184 0 119> 635 65<0 119 0 184>
VStem: 0 184<-168 -103 -103 -103 635 700 -168 700> 119 65<-103 635 635 635>
LayerCount: 2
Fore
SplineSet
184 700 m 1xe0
 184 -168 l 1
 0 -168 l 1
 0 -103 l 1xe0
 119 -103 l 1
 119 635 l 1xd0
 0 635 l 1
 0 700 l 1
 184 700 l 1xe0
EndSplineSet
Validated: 1
EndChar

StartChar: asciicircum
Encoding: 94 94 61
Width: 470
Flags: MW
HStem: 374 21G<52 52 418 418> 680 20G<212 258 258 258>
LayerCount: 2
Fore
SplineSet
212 700 m 1
 258 700 l 1
 470 412 l 1
 418 374 l 1
 235 621 l 1
 52 374 l 1
 0 412 l 1
 212 700 l 1
EndSplineSet
Validated: 1
EndChar

StartChar: underscore
Encoding: 95 95 62
Width: 446
Flags: MW
HStem: -65 65<0 446 0 446>
LayerCount: 2
Fore
SplineSet
0 -65 m 1
 0 0 l 1
 446 0 l 1
 446 -65 l 1
 0 -65 l 1
EndSplineSet
Validated: 1
EndChar

StartChar: grave
Encoding: 96 96 63
Width: 200
Flags: MW
HStem: 480 21G<154 210 154 154> 680 20G<-10 69 69 69>
LayerCount: 2
Fore
SplineSet
69 700 m 1
 210 480 l 1
 154 480 l 1
 -10 700 l 1
 69 700 l 1
EndSplineSet
Validated: 1
EndChar

StartChar: a
Encoding: 97 97 64
Width: 551
Flags: MW
HStem: -8 21G<439 439> 0 65<160 341 160 367 133 341> 244 65<160 408 160 160> 468 65<171 363 171 171>
VStem: 50 65<109 200 109 227 109 227> 408 65<132 244 244 244 309 424 424 424>
LayerCount: 2
Fore
SplineSet
473 451 m 1x7c
 473 120 l 1
 501 7 l 1
 439 -8 l 1xbc
 423 56 l 1
 367 0 l 1
 133 0 l 1
 50 82 l 1
 50 227 l 1
 133 309 l 1
 408 309 l 1
 408 424 l 1
 363 468 l 1
 171 468 l 1
 84 438 l 1
 63 499 l 1
 164 533 l 1
 390 533 l 1
 473 451 l 1x7c
341 65 m 1x7c
 408 132 l 1
 408 244 l 1
 160 244 l 1
 115 200 l 1
 115 109 l 1
 160 65 l 1
 341 65 l 1x7c
EndSplineSet
Validated: 1
EndChar

StartChar: b
Encoding: 98 98 65
Width: 561
Flags: MW
HStem: 0 65<187 393 187 419 161 393> 468 65<204 393 204 204> 687 20G
VStem: 79 65<108 408 501 599 599 599> 436 65<108 425 425 425>
LayerCount: 2
Fore
SplineSet
144 501 m 1
 176 533 l 1
 419 533 l 1
 501 451 l 1
 501 82 l 1
 419 0 l 1
 161 0 l 1
 79 82 l 1
 79 599 l 1
 50 687 l 1
 111 707 l 1
 144 606 l 1
 144 501 l 1
144 408 m 1
 144 108 l 1
 187 65 l 1
 393 65 l 1
 436 108 l 1
 436 425 l 1
 393 468 l 1
 204 468 l 1
 144 408 l 1
EndSplineSet
Validated: 1
EndChar

StartChar: c
Encoding: 99 99 66
Width: 514
Flags: MW
HStem: 0 65<168 376 168 382 142 376> 468 65<168 374 168 168>
VStem: 60 65<107 426 107 450 107 450> 417 65<340 426 426 426>
LayerCount: 2
Fore
SplineSet
376 65 m 1
 464 93 l 1
 484 32 l 1
 382 0 l 1
 142 0 l 1
 60 83 l 1
 60 450 l 1
 142 533 l 1
 400 533 l 1
 482 450 l 1
 482 340 l 1
 417 340 l 1
 417 426 l 1
 374 468 l 1
 168 468 l 1
 125 426 l 1
 125 107 l 1
 168 65 l 1
 376 65 l 1
EndSplineSet
Validated: 1
EndChar

StartChar: d
Encoding: 100 100 67
Width: 560
Flags: MW
HStem: -8 21G<448 448> 0 65<168 350 168 376 141 350> 468 65<168 357 168 168> 680 20G<417 482 482 482>
VStem: 60 65<108 425 108 452 108 452> 417 65<132 408 408 408 501 700 120 700>
LayerCount: 2
Fore
SplineSet
417 408 m 1x7c
 357 468 l 1
 168 468 l 1
 125 425 l 1
 125 108 l 1
 168 65 l 1
 350 65 l 1
 417 132 l 1
 417 408 l 1x7c
417 501 m 1
 417 700 l 1
 482 700 l 1
 482 120 l 1
 510 7 l 1
 448 -8 l 1xbc
 432 56 l 1
 376 0 l 1
 141 0 l 1
 60 81 l 1
 60 452 l 1
 141 533 l 1
 385 533 l 1
 417 501 l 1
EndSplineSet
Validated: 1
EndChar

StartChar: e
Encoding: 101 101 68
Width: 524
Flags: MW
HStem: 0 65<169 376 169 382 142 376> 223 65<125 373 125 400 125 373> 468 65<169 169 169 373>
VStem: 60 65<109 223 288 424> 417 65<332 424 424 424>
LayerCount: 2
Fore
SplineSet
376 65 m 1
 464 93 l 1
 484 32 l 1
 382 0 l 1
 142 0 l 1
 60 82 l 1
 60 451 l 1
 142 533 l 1
 400 533 l 1
 482 451 l 1
 482 304 l 1
 400 223 l 1
 125 223 l 1
 125 109 l 1
 169 65 l 1
 376 65 l 1
169 468 m 1
 125 424 l 1
 125 288 l 1
 373 288 l 1
 417 332 l 1
 417 424 l 1
 373 468 l 1
 169 468 l 1
EndSplineSet
Validated: 1
EndChar

StartChar: f
Encoding: 102 102 69
Width: 373
Flags: MW
HStem: 0 21G<105 170 105 105> 402 65<20 105 20 105 170 339> 635 65<213 314 213 213>
VStem: 105 65<0 402 0 402 467 592>
LayerCount: 2
Fore
SplineSet
105 402 m 1
 20 402 l 1
 20 467 l 1
 105 467 l 1
 105 618 l 1
 188 700 l 1
 321 700 l 1
 423 666 l 1
 401 605 l 1
 314 635 l 1
 213 635 l 1
 170 592 l 1
 170 467 l 1
 339 467 l 1
 339 402 l 1
 170 402 l 1
 170 0 l 1
 105 0 l 1
 105 402 l 1
EndSplineSet
Validated: 1
EndChar

StartChar: g
Encoding: 103 103 70
Width: 518
Flags: MW
HStem: -168 65<150 392 150 420 125 392> -6 65<142 392 113 420> 125 65<155 371 181 371 181 398> 468 65<162 348 162 162> 541 20G<473 473>
VStem: 53 65<253 424 253 451 253 451> 415 65<-80 -29 -29 -29 234 401 401 401>
LayerCount: 2
Fore
SplineSet
155 125 m 1
 135 144 l 1
 119 128 l 1
 119 82 l 1
 142 59 l 1
 420 59 l 1
 480 -1 l 1
 480 -108 l 1
 420 -168 l 1
 125 -168 l 1
 50 -95 l 1
 94 -49 l 1
 150 -103 l 1
 392 -103 l 1
 415 -80 l 1
 415 -29 l 1
 392 -6 l 1
 113 -6 l 1
 53 54 l 1
 53 156 l 1
 88 191 l 1
 53 226 l 1
 53 451 l 1
 135 533 l 1
 360 533 l 1
 473 561 l 1
 488 499 l 1
 425 483 l 1
 480 428 l 1
 480 207 l 1
 398 125 l 1
 155 125 l 1
348 468 m 1
 162 468 l 1
 118 424 l 1
 118 253 l 1
 181 190 l 1
 371 190 l 1
 415 234 l 1
 415 401 l 1
 348 468 l 1
EndSplineSet
Validated: 1
EndChar

StartChar: h
Encoding: 104 104 71
Width: 560
Flags: MW
HStem: 0 21G<79 144 79 79 435 435 435 500> 468 65<204 392 204 204> 687 20G
VStem: 79 65<0 408 501 599 599 599> 435 65<0 425 425 425>
LayerCount: 2
Fore
SplineSet
144 408 m 1
 144 0 l 1
 79 0 l 1
 79 599 l 1
 50 687 l 1
 111 707 l 1
 144 606 l 1
 144 501 l 1
 176 533 l 1
 418 533 l 1
 500 451 l 1
 500 0 l 1
 435 0 l 1
 435 425 l 1
 392 468 l 1
 204 468 l 1
 144 408 l 1
EndSplineSet
Validated: 1
EndChar

StartChar: i
Encoding: 105 105 72
Width: 216
Flags: MW
HStem: 0 21G<79 144 79 79> 675 20G<90 132 132 132>
VStem: 79 65<0 433 433 433>
LayerCount: 2
Fore
SplineSet
79 433 m 1
 50 521 l 1
 111 541 l 1
 144 440 l 1
 144 0 l 1
 79 0 l 1
 79 433 l 1
90 605 m 1
 66 629 l 1
 66 671 l 1
 90 695 l 1
 132 695 l 1
 156 671 l 1
 156 629 l 1
 132 605 l 1
 90 605 l 1
EndSplineSet
Validated: 1
EndChar

StartChar: j
Encoding: 106 106 73
Width: 214
Flags: MW
HStem: -178 21G<-49 -49> 675 20G<88 130 130 130>
VStem: 77 65<-32 433 433 433>
LayerCount: 2
Fore
SplineSet
91 -127 m 1
 -49 -178 l 1
 -70 -117 l 1
 46 -77 l 1
 77 -32 l 1
 77 433 l 1
 48 521 l 1
 109 541 l 1
 142 440 l 1
 142 -46 l 1
 91 -127 l 1
88 605 m 1
 64 629 l 1
 64 671 l 1
 88 695 l 1
 130 695 l 1
 154 671 l 1
 154 629 l 1
 130 605 l 1
 88 605 l 1
EndSplineSet
Validated: 1
EndChar

StartChar: k
Encoding: 107 107 74
Width: 493
Flags: MW
HStem: -20 20G<79 144 79 79> -10 21G<441 441> 687 20G
VStem: 79 65<0 192 277 599 599 599>
LayerCount: 2
Fore
SplineSet
144 606 m 1xb0
 144 277 l 1
 445 543 l 1
 488 495 l 1
 280 311 l 1
 493 29 l 1
 441 -10 l 1x70
 231 268 l 1
 144 192 l 1
 144 0 l 1
 79 0 l 1
 79 599 l 1
 50 687 l 1
 111 707 l 1
 144 606 l 1xb0
EndSplineSet
Validated: 1
EndChar

StartChar: l
Encoding: 108 108 75
Width: 204
Flags: MW
HStem: 0 21G<79 144 79 79> 687 20G
VStem: 79 65<0 599 599 599>
LayerCount: 2
Fore
SplineSet
144 606 m 1
 144 0 l 1
 79 0 l 1
 79 599 l 1
 50 687 l 1
 111 707 l 1
 144 606 l 1
EndSplineSet
Validated: 1
EndChar

StartChar: m
Encoding: 109 109 76
Width: 831
Flags: MW
HStem: 0 21G<78 78 78 143 392 392 392 457 706 706 706 771> 468 65<210 347 210 210 501 661 501 501> 521 20G<112 112>
VStem: 78 65<0 401 0 413 0 413> 392 65<0 423 423 423> 706 65<0 423 423 423>
CounterMasks: 1 1c
LayerCount: 2
Fore
SplineSet
78 0 m 1xdc
 78 413 l 1
 50 526 l 1
 112 541 l 1xbc
 128 477 l 1
 184 533 l 1
 376 533 l 1
 425 484 l 1
 474 533 l 1
 689 533 l 1
 771 450 l 1
 771 0 l 1
 706 0 l 1
 706 423 l 1
 661 468 l 1
 501 468 l 1
 457 424 l 1
 457 0 l 1
 392 0 l 1
 392 423 l 1
 347 468 l 1
 210 468 l 1
 143 401 l 1
 143 0 l 1
 78 0 l 1xdc
EndSplineSet
Validated: 1
EndChar

StartChar: n
Encoding: 110 110 77
Width: 561
Flags: MW
HStem: 0 21G<78 78 78 143 436 436 436 501> 468 65<210 391 210 210> 521 20G<112 112>
VStem: 78 65<0 401 0 413 0 413> 436 65<0 423 423 423>
LayerCount: 2
Fore
SplineSet
78 0 m 1xd8
 78 413 l 1
 50 526 l 1
 112 541 l 1xb8
 128 477 l 1
 184 533 l 1
 419 533 l 1
 501 451 l 1
 501 0 l 1
 436 0 l 1
 436 423 l 1
 391 468 l 1
 210 468 l 1
 143 401 l 1
 143 0 l 1
 78 0 l 1xd8
EndSplineSet
Validated: 1
EndChar

StartChar: o
Encoding: 111 111 78
Width: 547
Flags: MW
HStem: 0 65<169 378 169 405 142 378> 468 65<169 378 169 169>
VStem: 60 65<110 423 110 450 110 450> 422 65<110 423 423 423>
LayerCount: 2
Fore
SplineSet
487 83 m 1
 405 0 l 1
 142 0 l 1
 60 83 l 1
 60 450 l 1
 142 533 l 1
 405 533 l 1
 487 450 l 1
 487 83 l 1
169 65 m 1
 378 65 l 1
 422 110 l 1
 422 423 l 1
 378 468 l 1
 169 468 l 1
 125 423 l 1
 125 110 l 1
 169 65 l 1
EndSplineSet
Validated: 1
EndChar

StartChar: p
Encoding: 112 112 79
Width: 560
Flags: MW
HStem: -168 21G<78 143 78 78> 0 65<203 392 203 419 175 392> 468 65<210 392 210 210> 521 20G<112 112>
VStem: 78 65<-168 32 125 401> 435 65<108 425 425 425>
LayerCount: 2
Fore
SplineSet
143 125 m 1xec
 203 65 l 1
 392 65 l 1
 435 108 l 1
 435 425 l 1
 392 468 l 1
 210 468 l 1
 143 401 l 1
 143 125 l 1xec
143 32 m 1
 143 -168 l 1
 78 -168 l 1
 78 413 l 1
 50 526 l 1
 112 541 l 1xdc
 128 477 l 1
 184 533 l 1
 419 533 l 1
 500 452 l 1
 500 81 l 1
 419 0 l 1
 175 0 l 1
 143 32 l 1
EndSplineSet
Validated: 1
EndChar

StartChar: q
Encoding: 113 113 80
Width: 551
Flags: MW
HStem: -174 21G<450 450> 0 65<168 357 168 385 142 357> 468 65<168 374 168 168>
VStem: 60 65<108 425 108 451 108 451> 417 65<-66 32 32 32 125 425 425 425>
LayerCount: 2
Fore
SplineSet
417 32 m 1
 385 0 l 1
 142 0 l 1
 60 82 l 1
 60 451 l 1
 142 533 l 1
 400 533 l 1
 482 451 l 1
 482 -66 l 1
 511 -154 l 1
 450 -174 l 1
 417 -73 l 1
 417 32 l 1
417 125 m 1
 417 425 l 1
 374 468 l 1
 168 468 l 1
 125 425 l 1
 125 108 l 1
 168 65 l 1
 357 65 l 1
 417 125 l 1
EndSplineSet
Validated: 1
EndChar

StartChar: r
Encoding: 114 114 81
Width: 459
Flags: MW
HStem: 0 21G<78 143 78 78> 468 65<210 335 210 210> 521 20G<112 112>
VStem: 78 65<0 401 0 413 0 413>
LayerCount: 2
Fore
SplineSet
335 468 m 1xd0
 210 468 l 1xd0
 143 401 l 1
 143 0 l 1
 78 0 l 1
 78 413 l 1
 50 526 l 1
 112 541 l 1xb0
 128 477 l 1
 184 533 l 1
 362 533 l 1
 459 438 l 1
 414 391 l 1
 335 468 l 1xd0
EndSplineSet
Validated: 1
EndChar

StartChar: s
Encoding: 115 115 82
Width: 477
Flags: MW
HStem: 0 65<139 335 139 363 131 335> 468 65<142 339 142 142>
VStem: 380 65<110 170 170 170>
LayerCount: 2
Fore
SplineSet
380 170 m 1
 369 192 l 1
 63 300 l 1
 32 360 l 1
 32 451 l 1
 114 533 l 1
 346 533 l 1
 447 499 l 1
 426 438 l 1
 339 468 l 1
 142 468 l 1
 97 423 l 1
 97 376 l 1
 108 353 l 1
 414 245 l 1
 445 186 l 1
 445 82 l 1
 363 0 l 1
 131 0 l 1
 30 32 l 1
 50 94 l 1
 139 65 l 1
 335 65 l 1
 380 110 l 1
 380 170 l 1
EndSplineSet
Validated: 1
EndChar

StartChar: t
Encoding: 116 116 83
Width: 428
Flags: MW
HStem: 0 65<224 318 224 326 197 318> 445 65<20 115 20 115 180 350> 650 20G<115 180 180 180>
VStem: 115 65<109 445 109 445 109 445 510 670>
LayerCount: 2
Fore
SplineSet
115 445 m 1
 20 445 l 1
 20 510 l 1
 115 510 l 1
 115 670 l 1
 180 670 l 1
 180 510 l 1
 350 510 l 1
 350 445 l 1
 180 445 l 1
 180 109 l 1
 224 65 l 1
 318 65 l 1
 408 93 l 1
 428 32 l 1
 326 0 l 1
 197 0 l 1
 115 82 l 1
 115 445 l 1
EndSplineSet
Validated: 1
EndChar

StartChar: u
Encoding: 117 117 84
Width: 561
Flags: MW
HStem: -8 21G<449 449> 0 65<170 351 170 377 142 351> 513 20G<60 125 125 125 418 483 483 483>
VStem: 60 65<110 533 110 533 110 533> 418 65<132 533 120 533>
LayerCount: 2
Fore
SplineSet
483 533 m 1x78
 483 120 l 1
 511 7 l 1
 449 -8 l 1xb8
 433 56 l 1
 377 0 l 1
 142 0 l 1
 60 82 l 1
 60 533 l 1
 125 533 l 1
 125 110 l 1
 170 65 l 1
 351 65 l 1
 418 132 l 1
 418 533 l 1
 483 533 l 1x78
EndSplineSet
Validated: 1
EndChar

StartChar: v
Encoding: 118 118 85
Width: 500
Flags: MW
HStem: 0 21G<217 283 217 217> 523 20G<70 70 430 430>
LayerCount: 2
Fore
SplineSet
283 0 m 1
 217 0 l 1
 10 519 l 1
 70 543 l 1
 250 90 l 1
 430 543 l 1
 490 519 l 1
 283 0 l 1
EndSplineSet
Validated: 1
EndChar

StartChar: w
Encoding: 119 119 86
Width: 728
Flags: MW
HStem: 0 21G<166 234 166 166 494 562 494 494> 523 20G<73 73 655 655>
LayerCount: 2
Fore
SplineSet
329 511 m 1
 399 511 l 1
 527 111 l 1
 655 543 l 1
 718 524 l 1
 562 0 l 1
 494 0 l 1
 364 406 l 1
 234 0 l 1
 166 0 l 1
 10 524 l 1
 73 543 l 1
 201 111 l 1
 329 511 l 1
EndSplineSet
Validated: 1
EndChar

StartChar: x
Encoding: 120 120 87
Width: 452
Flags: MW
HStem: -10 21G<64 64 388 388> 523 20G<63 63 389 389>
LayerCount: 2
Fore
SplineSet
226 323 m 1
 389 543 l 1
 442 504 l 1
 266 266 l 1
 441 29 l 1
 388 -10 l 1
 226 209 l 1
 64 -10 l 1
 11 29 l 1
 186 266 l 1
 10 504 l 1
 63 543 l 1
 226 323 l 1
EndSplineSet
Validated: 1
EndChar

StartChar: y
Encoding: 121 121 88
Width: 493
Flags: MW
HStem: -168 65<86 189 86 214 86 189> -20 20G<223 241 223 223> 523 20G
LayerCount: 2
Fore
SplineSet
214 -168 m 1
 86 -168 l 1
 86 -103 l 1
 189 -103 l 1
 216 -76 l 1
 241 0 l 1
 223 0 l 1
 10 518 l 1
 72 543 l 1
 265 72 l 1
 422 543 l 1
 483 523 l 1
 273 -109 l 1
 214 -168 l 1
EndSplineSet
Validated: 1
EndChar

StartChar: z
Encoding: 122 122 89
Width: 452
Flags: MW
HStem: 0 65<106 430 106 430> 468 65<22 346 22 432 22 432>
LayerCount: 2
Fore
SplineSet
346 468 m 1
 22 468 l 1
 22 533 l 1
 432 533 l 1
 432 468 l 1
 106 65 l 1
 430 65 l 1
 430 0 l 1
 20 0 l 1
 20 64 l 1
 346 468 l 1
EndSplineSet
Validated: 1
EndChar

StartChar: braceleft
Encoding: 123 123 90
Width: 319
Flags: MW
HStem: -178 21G<304 304> 694 20G<304 304>
VStem: 108 65<-25 169 169 169 367 561>
LayerCount: 2
Fore
SplineSet
108 169 m 1
 20 246 l 1
 20 290 l 1
 108 367 l 1
 108 574 l 1
 177 683 l 1
 304 714 l 1
 319 652 l 1
 216 627 l 1
 173 561 l 1
 173 336 l 1
 95 268 l 1
 173 200 l 1
 173 -25 l 1
 216 -91 l 1
 319 -116 l 1
 304 -178 l 1
 177 -147 l 1
 108 -38 l 1
 108 169 l 1
EndSplineSet
Validated: 1
EndChar

StartChar: bar
Encoding: 124 124 91
Width: 226
Flags: MW
HStem: -168 21G<80 146 80 80> 680 20G<80 146 146 146>
VStem: 80 66<-168 700>
LayerCount: 2
Fore
SplineSet
146 -168 m 1
 80 -168 l 1
 80 700 l 1
 146 700 l 1
 146 -168 l 1
EndSplineSet
Validated: 1
EndChar

StartChar: braceright
Encoding: 125 125 92
Width: 319
Flags: MW
HStem: -178 21G<15 15> 694 20G<15 15>
VStem: 146 65<-25 169 -38 200 -38 200 367 561 561 561>
LayerCount: 2
Fore
SplineSet
299 246 m 1
 211 169 l 1
 211 -38 l 1
 142 -147 l 1
 15 -178 l 1
 0 -116 l 1
 103 -91 l 1
 146 -25 l 1
 146 200 l 1
 224 268 l 1
 146 336 l 1
 146 561 l 1
 103 627 l 1
 0 652 l 1
 15 714 l 1
 142 683 l 1
 211 574 l 1
 211 367 l 1
 299 290 l 1
 299 246 l 1
EndSplineSet
Validated: 1
EndChar

StartChar: asciitilde
Encoding: 126 126 93
Width: 624
Flags: MW
HStem: 260 65<166 247 166 274 137 247> 363 65<377 377 377 458>
LayerCount: 2
Fore
SplineSet
377 363 m 1
 274 260 l 1
 137 260 l 1
 20 377 l 1
 67 423 l 1
 166 325 l 1
 247 325 l 1
 350 428 l 1
 487 428 l 1
 604 311 l 1
 557 265 l 1
 458 363 l 1
 377 363 l 1
EndSplineSet
Validated: 1
EndChar

StartChar: afii10051
Encoding: 1026 1026 94
Width: 657
Flags: MW
HStem: -60 21G<416 416> -20 20G<125 190 125 125> 367 65<224 499 224 224> 635 65<-20 125 -20 335 190 190 190 335>
VStem: 125 65<0 356 424 635> 542 65<86 325 325 325>
LayerCount: 2
Fore
SplineSet
607 72 m 1
 556 -9 l 1
 416 -60 l 1
 395 1 l 1
 511 41 l 1
 542 86 l 1
 542 325 l 1
 499 367 l 1
 224 367 l 1
 190 356 l 1
 190 0 l 1
 125 0 l 1
 125 635 l 1
 -20 635 l 1
 -20 700 l 1
 335 700 l 1
 335 635 l 1
 190 635 l 1
 190 424 l 1
 218 432 l 1
 525 432 l 1
 607 349 l 1
 607 72 l 1
EndSplineSet
Validated: 1
EndChar

StartChar: afii10052
Encoding: 1027 1027 95
Width: 512
Flags: MW
HStem: 0 21G<80 145 80 80> 635 65<145 145 145 512> 895 20G<345 420 420 420>
VStem: 80 65<0 635 0 700>
LayerCount: 2
Fore
SplineSet
145 635 m 1
 145 0 l 1
 80 0 l 1
 80 700 l 1
 512 700 l 1
 512 635 l 1
 145 635 l 1
245 745 m 1
 345 915 l 1
 420 915 l 1
 310 745 l 1
 245 745 l 1
EndSplineSet
Validated: 1
EndChar

StartChar: quotesinglbase
Encoding: 8218 8218 96
Width: 140
Flags: MW
HStem: -180 21G<10 10 10 55> 40 20G<65 140 140 140>
LayerCount: 2
Fore
SplineSet
10 -180 m 1
 65 60 l 1
 140 60 l 1
 55 -180 l 1
 10 -180 l 1
EndSplineSet
Validated: 1
EndChar

StartChar: afii10100
Encoding: 1107 1107 97
Width: 430
Flags: MW
HStem: 0 21G<60 126 60 60> 468 65<126 126 126 430> 728 20G<300 375 375 375>
VStem: 60 66<0 468 0 533 0 533>
LayerCount: 2
Fore
SplineSet
126 468 m 1
 126 0 l 1
 60 0 l 1
 60 533 l 1
 430 533 l 1
 430 468 l 1
 126 468 l 1
200 578 m 1
 300 748 l 1
 375 748 l 1
 265 578 l 1
 200 578 l 1
EndSplineSet
Validated: 1
EndChar

StartChar: quotedblbase
Encoding: 8222 8222 98
Width: 275
Flags: MW
HStem: -180 21G<10 10 10 55 145 190 145 145> 40 20G<65 140 140 140 200 275 275 275>
LayerCount: 2
Fore
SplineSet
10 -180 m 1
 65 60 l 1
 140 60 l 1
 55 -180 l 1
 10 -180 l 1
145 -180 m 1
 200 60 l 1
 275 60 l 1
 190 -180 l 1
 145 -180 l 1
EndSplineSet
Validated: 1
EndChar

StartChar: ellipsis
Encoding: 8230 8230 99
Width: 450
Flags: MW
HStem: -10 90<54 96 54 96 204 246 354 396>
LayerCount: 2
Fore
SplineSet
54 -10 m 1
 30 14 l 1
 30 56 l 1
 54 80 l 1
 96 80 l 1
 120 56 l 1
 120 14 l 1
 96 -10 l 1
 54 -10 l 1
204 -10 m 1
 180 14 l 1
 180 56 l 1
 204 80 l 1
 246 80 l 1
 270 56 l 1
 270 14 l 1
 246 -10 l 1
 204 -10 l 1
354 -10 m 1
 330 14 l 1
 330 56 l 1
 354 80 l 1
 396 80 l 1
 420 56 l 1
 420 14 l 1
 396 -10 l 1
 354 -10 l 1
EndSplineSet
Validated: 1
EndChar

StartChar: dagger
Encoding: 8224 8224 100
Width: 410
Flags: MW
HStem: -168 21G<172 238 172 172> 405 65<0 172 0 172 238 410> 680 20G<172 238 238 238>
VStem: 172 66<-168 405 -168 405 470 700>
LayerCount: 2
Fore
SplineSet
0 405 m 1
 0 470 l 1
 172 470 l 1
 172 700 l 1
 238 700 l 1
 238 470 l 1
 410 470 l 1
 410 405 l 1
 238 405 l 1
 238 -168 l 1
 172 -168 l 1
 172 405 l 1
 0 405 l 1
EndSplineSet
Validated: 1
EndChar

StartChar: daggerdbl
Encoding: 8225 8225 101
Width: 410
Flags: MW
HStem: -168 21G<172 238 172 172> 62 65<0 172 0 172 238 410> 405 65<0 172 0 172 238 410> 680 20G<172 238 238 238>
VStem: 172 66<-168 62 -168 62 127 405 470 700>
LayerCount: 2
Fore
SplineSet
0 405 m 1
 0 470 l 1
 172 470 l 1
 172 700 l 1
 238 700 l 1
 238 470 l 1
 410 470 l 1
 410 405 l 1
 238 405 l 1
 238 127 l 1
 410 127 l 1
 410 62 l 1
 238 62 l 1
 238 -168 l 1
 172 -168 l 1
 172 62 l 1
 0 62 l 1
 0 127 l 1
 172 127 l 1
 172 405 l 1
 0 405 l 1
EndSplineSet
Validated: 1
EndChar

StartChar: Euro
Encoding: 8364 8364 102
Width: 579
Flags: MW
HStem: 0 65<190 426 190 454 163 426> 260 60<-10 60 -10 60 125 410> 380 60<0 60 0 60 125 420> 635 65<190 415 190 190>
VStem: 60 65<130 260 130 260 130 260 320 380 440 570> 480 65<485 570 570 570>
LayerCount: 2
Fore
SplineSet
0 380 m 1
 0 440 l 1
 60 440 l 1
 60 597 l 1
 163 700 l 1
 442 700 l 1
 545 597 l 1
 545 485 l 1
 480 485 l 1
 480 570 l 1
 415 635 l 1
 190 635 l 1
 125 570 l 1
 125 440 l 1
 420 440 l 1
 420 380 l 1
 125 380 l 1
 125 320 l 1
 410 320 l 1
 410 260 l 1
 125 260 l 1
 125 130 l 1
 190 65 l 1
 426 65 l 1
 502 141 l 1
 549 95 l 1
 454 0 l 1
 163 0 l 1
 60 103 l 1
 60 260 l 1
 -10 260 l 1
 -10 320 l 1
 60 320 l 1
 60 380 l 1
 0 380 l 1
EndSplineSet
Validated: 1
EndChar

StartChar: perthousand
Encoding: 8240 8240 103
Width: 1041
Flags: MW
HStem: -11 21G<111 111> 0 65<490 562 490 589 463 562 830 902> 225 65<490 562 490 490 830 830 830 902> 410 65<139 211 139 238 112 211> 635 65<139 211 139 139> 693 20G<590 590>
VStem: 30 65<519 591 519 618 519 618> 255 65<519 591 591 591> 381 65<109 181 109 208 109 208> 606 65<109 181 181 181> 721 65<109 181 109 208 109 208> 946 65<109 181 181 181>
LayerCount: 2
Fore
SplineSet
61 28 m 1xb7f0
 590 713 l 1
 639 675 l 1
 111 -11 l 1
 61 28 l 1xb7f0
463 290 m 1
 589 290 l 1
 671 208 l 1
 671 82 l 1
 589 0 l 1
 463 0 l 1x7bf0
 381 82 l 1
 381 208 l 1
 463 290 l 1
562 225 m 1
 490 225 l 1
 446 181 l 1
 446 109 l 1
 490 65 l 1
 562 65 l 1
 606 109 l 1
 606 181 l 1
 562 225 l 1
112 700 m 1
 238 700 l 1
 320 618 l 1
 320 492 l 1
 238 410 l 1
 112 410 l 1
 30 492 l 1
 30 618 l 1
 112 700 l 1
211 635 m 1
 139 635 l 1
 95 591 l 1
 95 519 l 1
 139 475 l 1
 211 475 l 1
 255 519 l 1
 255 591 l 1
 211 635 l 1
803 290 m 1
 929 290 l 1
 1011 208 l 1
 1011 82 l 1
 929 0 l 1
 803 0 l 1
 721 82 l 1
 721 208 l 1
 803 290 l 1
902 225 m 1
 830 225 l 1
 786 181 l 1
 786 109 l 1
 830 65 l 1
 902 65 l 1
 946 109 l 1
 946 181 l 1
 902 225 l 1
EndSplineSet
Validated: 1
EndChar

StartChar: afii10058
Encoding: 1033 1033 104
Width: 967
Flags: MW
HStem: -10 21G<20 20> 0 65<548 807 548 835> 352 65<548 807 548 835> 635 65<238 483 238 238>
VStem: 483 65<65 352 417 635 635 635> 872 65<132 285 285 285>
LayerCount: 2
Fore
SplineSet
483 0 m 1x7c
 483 635 l 1
 238 635 l 1
 178 88 l 1
 115 20 l 1
 20 -10 l 1xbc
 0 52 l 1
 78 77 l 1
 116 118 l 1
 180 700 l 1
 548 700 l 1
 548 417 l 1
 835 417 l 1
 937 313 l 1
 937 104 l 1
 835 0 l 1
 483 0 l 1x7c
872 285 m 1x7c
 807 352 l 1
 548 352 l 1
 548 65 l 1
 807 65 l 1
 872 132 l 1
 872 285 l 1x7c
EndSplineSet
Validated: 1
EndChar

StartChar: guilsinglleft
Encoding: 8249 8249 105
Width: 349
Flags: MW
HStem: 3 21G<296 296> 503 20G<296 296>
LayerCount: 2
Fore
SplineSet
20 240 m 1
 20 286 l 1
 296 523 l 1
 339 474 l 1
 94 263 l 1
 339 52 l 1
 296 3 l 1
 20 240 l 1
EndSplineSet
Validated: 1
EndChar

StartChar: afii10059
Encoding: 1034 1034 106
Width: 954
Flags: MW
HStem: 0 65<535 794 535 822> 344 65<145 470 145 470 535 794> 680 20G<80 145 145 145 470 535 535 535>
VStem: 80 65<0 344 409 700> 470 65<65 344 65 344 65 344 409 700> 859 65<132 277 277 277>
LayerCount: 2
Fore
SplineSet
470 409 m 1
 470 700 l 1
 535 700 l 1
 535 409 l 1
 822 409 l 1
 924 305 l 1
 924 104 l 1
 822 0 l 1
 470 0 l 1
 470 344 l 1
 145 344 l 1
 145 0 l 1
 80 0 l 1
 80 700 l 1
 145 700 l 1
 145 409 l 1
 470 409 l 1
859 277 m 1
 794 344 l 1
 535 344 l 1
 535 65 l 1
 794 65 l 1
 859 132 l 1
 859 277 l 1
EndSplineSet
Validated: 1
EndChar

StartChar: afii10061
Encoding: 1036 1036 107
Width: 570
Flags: MW
HStem: -20 20G<80 146 80 80> -10 21G<540 540> 317 65<146 259 146 259> 690 20G<235 235 235 300 540 540> 860 20G<335 410 410 410>
VStem: 80 66<0 317 382 700>
LayerCount: 2
Fore
SplineSet
146 700 m 1xbc
 146 382 l 1
 259 382 l 1
 434 676 l 1
 540 710 l 1
 560 647 l 1
 479 621 l 1
 318 350 l 1
 480 79 l 1
 560 53 l 1
 540 -10 l 1x7c
 434 24 l 1
 259 317 l 1
 146 317 l 1
 146 0 l 1
 80 0 l 1
 80 700 l 1
 146 700 l 1xbc
235 710 m 1
 335 880 l 1
 410 880 l 1
 300 710 l 1
 235 710 l 1
EndSplineSet
Validated: 1
EndChar

StartChar: afii10060
Encoding: 1035 1035 108
Width: 657
Flags: MW
HStem: 0 21G<125 190 125 125 542 607 542 542> 367 65<224 499 224 224> 635 65<-20 125 -20 335 190 335 190 190>
VStem: 125 65<0 356 424 635> 542 65<0 325 325 325>
LayerCount: 2
Fore
SplineSet
335 635 m 1
 190 635 l 1
 190 424 l 1
 218 432 l 1
 525 432 l 1
 607 349 l 1
 607 0 l 1
 542 0 l 1
 542 325 l 1
 499 367 l 1
 224 367 l 1
 190 356 l 1
 190 0 l 1
 125 0 l 1
 125 635 l 1
 -20 635 l 1
 -20 700 l 1
 335 700 l 1
 335 635 l 1
EndSplineSet
Validated: 1
EndChar

StartChar: afii10145
Encoding: 1039 1039 109
Width: 644
Flags: MW
HStem: -168 233<290 355 290 290> 0 65<145 290 355 499 145 564 355 355> 678 20G<80 145 145 145 499 564 564 564>
VStem: 80 65<65 698 65 698 65 698> 290 65<-168 0 -168 0> 499 65<65 698 0 698>
LayerCount: 2
Fore
SplineSet
355 0 m 1x7c
 355 -168 l 1
 290 -168 l 1xbc
 290 0 l 1
 80 0 l 1
 80 698 l 1
 145 698 l 1
 145 65 l 1
 499 65 l 1
 499 698 l 1
 564 698 l 1
 564 0 l 1
 355 0 l 1x7c
EndSplineSet
Validated: 1
EndChar

StartChar: afii10099
Encoding: 1106 1106 110
Width: 556
Flags: MW
HStem: -60 21G<315 315> -20 20G<85 150 85 85> 388 65<210 398 210 210> 524 65<0 85 0 85 150 319> 687 20G
VStem: 85 65<0 328 421 524 589 599 599 599> 441 65<86 345 345 345>
LayerCount: 2
Fore
SplineSet
441 86 m 1
 441 345 l 1
 398 388 l 1
 210 388 l 1
 150 328 l 1
 150 0 l 1
 85 0 l 1
 85 524 l 1
 0 524 l 1
 0 589 l 1
 85 589 l 1
 85 599 l 1
 56 687 l 1
 117 707 l 1
 150 606 l 1
 150 589 l 1
 319 589 l 1
 319 524 l 1
 150 524 l 1
 150 421 l 1
 182 453 l 1
 424 453 l 1
 506 371 l 1
 506 72 l 1
 455 -9 l 1
 315 -60 l 1
 294 1 l 1
 410 41 l 1
 441 86 l 1
EndSplineSet
Validated: 1
EndChar

StartChar: quoteleft
Encoding: 8216 8216 111
Width: 140
Flags: MW
HStem: 460 21G<0 75 0 0> 680 20G<85 130 130 130>
LayerCount: 2
Fore
SplineSet
130 700 m 1
 75 460 l 1
 0 460 l 1
 85 700 l 1
 130 700 l 1
EndSplineSet
Validated: 1
EndChar

StartChar: quoteright
Encoding: 8217 8217 112
Width: 140
Flags: MW
HStem: 460 21G<10 10 10 55> 680 20G<65 140 140 140>
LayerCount: 2
Fore
SplineSet
10 460 m 1
 65 700 l 1
 140 700 l 1
 55 460 l 1
 10 460 l 1
EndSplineSet
Validated: 1
EndChar

StartChar: quotedblleft
Encoding: 8220 8220 113
Width: 275
Flags: MW
HStem: 460 21G<0 75 0 0 135 210 135 135> 680 20G<85 130 130 130 220 265 265 265>
LayerCount: 2
Fore
SplineSet
265 700 m 1
 210 460 l 1
 135 460 l 1
 220 700 l 1
 265 700 l 1
130 700 m 1
 75 460 l 1
 0 460 l 1
 85 700 l 1
 130 700 l 1
EndSplineSet
Validated: 1
EndChar

StartChar: quotedblright
Encoding: 8221 8221 114
Width: 275
Flags: MW
HStem: 460 21G<10 10 10 55 145 190 145 145> 680 20G<65 140 140 140 200 275 275 275>
LayerCount: 2
Fore
SplineSet
10 460 m 1
 65 700 l 1
 140 700 l 1
 55 460 l 1
 10 460 l 1
145 460 m 1
 200 700 l 1
 275 700 l 1
 190 460 l 1
 145 460 l 1
EndSplineSet
Validated: 1
EndChar

StartChar: bullet
Encoding: 8226 8226 115
Width: 390
Flags: MW
HStem: 205 21G<132 258 132 132> 475 20G<132 258 258 258>
LayerCount: 2
Fore
SplineSet
132 495 m 1
 258 495 l 1
 340 413 l 1
 340 287 l 1
 258 205 l 1
 132 205 l 1
 50 287 l 1
 50 413 l 1
 132 495 l 1
EndSplineSet
Validated: 1
EndChar

StartChar: endash
Encoding: 8211 8211 116
Width: 526
Flags: MW
HStem: 267 66<20 506 20 506>
LayerCount: 2
Fore
SplineSet
20 267 m 1
 20 333 l 1
 506 333 l 1
 506 267 l 1
 20 267 l 1
EndSplineSet
Validated: 1
EndChar

StartChar: emdash
Encoding: 8212 8212 117
Width: 712
Flags: MW
HStem: 267 66<20 692 20 692>
LayerCount: 2
Fore
SplineSet
20 267 m 1
 20 333 l 1
 692 333 l 1
 692 267 l 1
 20 267 l 1
EndSplineSet
Validated: 1
EndChar

StartChar: trademark
Encoding: 8482 8482 118
Width: 729
Flags: MW
HStem: 370 21G<120 185 120 120 335 335 335 400 614 614 614 679> 635 65<0 120 0 305 185 305 185 185>
VStem: 120 65<370 635 370 635> 335 65<370 580 370 700> 614 65<370 580 580 580>
LayerCount: 2
Fore
SplineSet
0 700 m 1
 305 700 l 1
 305 635 l 1
 185 635 l 1
 185 370 l 1
 120 370 l 1
 120 635 l 1
 0 635 l 1
 0 700 l 1
535 454 m 1
 479 454 l 1
 400 580 l 1
 400 370 l 1
 335 370 l 1
 335 700 l 1
 404 700 l 1
 508 535 l 1
 611 700 l 1
 679 700 l 1
 679 370 l 1
 614 370 l 1
 614 580 l 1
 535 454 l 1
EndSplineSet
Validated: 1
EndChar

StartChar: afii10106
Encoding: 1113 1113 119
Width: 821
Flags: MW
HStem: -10 21G<19 19> 0 65<463 682 463 709> 263 65<463 682 463 709> 468 65<212 398 212 212>
VStem: 398 65<65 263 328 468 468 468> 726 65<109 219 219 219>
LayerCount: 2
Fore
SplineSet
398 0 m 1x7c
 398 468 l 1
 212 468 l 1
 172 84 l 1
 106 17 l 1
 19 -10 l 1xbc
 0 53 l 1
 65 73 l 1
 109 118 l 1
 153 533 l 1
 463 533 l 1
 463 328 l 1
 709 328 l 1
 791 246 l 1
 791 82 l 1
 709 0 l 1
 398 0 l 1x7c
726 219 m 1x7c
 682 263 l 1
 463 263 l 1
 463 65 l 1
 682 65 l 1
 726 109 l 1
 726 219 l 1x7c
EndSplineSet
Validated: 1
EndChar

StartChar: guilsinglright
Encoding: 8250 8250 120
Width: 349
Flags: MW
HStem: 3 21G<53 53> 503 20G<53 53>
LayerCount: 2
Fore
SplineSet
329 286 m 1
 329 240 l 1
 53 3 l 1
 10 52 l 1
 255 263 l 1
 10 474 l 1
 53 523 l 1
 329 286 l 1
EndSplineSet
Validated: 1
EndChar

StartChar: afii10107
Encoding: 1114 1114 121
Width: 829
Flags: MW
HStem: 0 65<471 690 471 717> 254 65<144 406 144 406 471 690> 521 20G
VStem: 79 65<0 254 319 433 433 433> 406 65<65 254 65 254 65 254 319 533> 734 65<109 210 210 210>
LayerCount: 2
Fore
SplineSet
406 0 m 1
 406 254 l 1
 144 254 l 1
 144 0 l 1
 79 0 l 1
 79 433 l 1
 50 521 l 1
 111 541 l 1
 144 440 l 1
 144 319 l 1
 406 319 l 1
 406 533 l 1
 471 533 l 1
 471 319 l 1
 717 319 l 1
 799 237 l 1
 799 82 l 1
 717 0 l 1
 406 0 l 1
734 210 m 1
 690 254 l 1
 471 254 l 1
 471 65 l 1
 690 65 l 1
 734 109 l 1
 734 210 l 1
EndSplineSet
Validated: 1
EndChar

StartChar: afii10109
Encoding: 1116 1116 122
Width: 486
Flags: MW
HStem: -20 20G<60 125 60 60> -10 21G<446 446> 233 65<125 219 125 220 125 219> 523 20G<200 200 200 265 446 446> 693 20G<300 375 375 375>
VStem: 60 65<0 233 298 533>
LayerCount: 2
Fore
SplineSet
125 533 m 1xbc
 125 298 l 1
 219 298 l 1
 367 501 l 1
 446 543 l 1
 476 486 l 1
 414 453 l 1
 277 266 l 1
 414 80 l 1
 476 47 l 1
 446 -10 l 1x7c
 367 32 l 1
 220 233 l 1
 125 233 l 1
 125 0 l 1
 60 0 l 1
 60 533 l 1
 125 533 l 1xbc
200 543 m 1
 300 713 l 1
 375 713 l 1
 265 543 l 1
 200 543 l 1
EndSplineSet
Validated: 1
EndChar

StartChar: afii10108
Encoding: 1115 1115 123
Width: 556
Flags: MW
HStem: 0 21G<85 150 85 85 441 506 441 441> 393 65<210 398 210 210> 524 65<0 85 0 85 150 319> 687 20G
VStem: 85 65<0 333 426 524 589 599 599 599> 441 65<0 350 350 350>
LayerCount: 2
Fore
SplineSet
319 524 m 1
 150 524 l 1
 150 426 l 1
 182 458 l 1
 424 458 l 1
 506 376 l 1
 506 0 l 1
 441 0 l 1
 441 350 l 1
 398 393 l 1
 210 393 l 1
 150 333 l 1
 150 0 l 1
 85 0 l 1
 85 524 l 1
 0 524 l 1
 0 589 l 1
 85 589 l 1
 85 599 l 1
 56 687 l 1
 117 707 l 1
 150 606 l 1
 150 589 l 1
 319 589 l 1
 319 524 l 1
EndSplineSet
Validated: 1
EndChar

StartChar: afii10193
Encoding: 1119 1119 124
Width: 542
Flags: MW
HStem: -140 205<239 304 239 239> 0 65<125 239 304 417 125 482 304 304> 513 20G<60 125 125 125 417 482 482 482>
VStem: 60 65<65 533 65 533 65 533> 239 65<-140 0 -140 0> 417 65<65 533 0 533>
LayerCount: 2
Fore
SplineSet
304 0 m 1x7c
 304 -140 l 1
 239 -140 l 1xbc
 239 0 l 1
 60 0 l 1
 60 533 l 1
 125 533 l 1
 125 65 l 1
 417 65 l 1
 417 533 l 1
 482 533 l 1
 482 0 l 1
 304 0 l 1x7c
EndSplineSet
Validated: 1
EndChar

StartChar: afii10062
Encoding: 1038 1038 125
Width: 558
Flags: MW
HStem: 0 65<100 213 100 238 100 213> 752 65<194 371 194 398 167 371> 752 149<167 171 394 398 167 167>
VStem: 106 65<840 901 840 901 840 901> 394 65<840 901>
LayerCount: 2
Fore
SplineSet
459 812 m 1xb8
 398 752 l 1
 167 752 l 1
 106 812 l 1
 106 901 l 1
 171 901 l 1xb8
 171 840 l 1
 194 817 l 1
 371 817 l 1xd8
 394 840 l 1
 394 901 l 1
 459 901 l 1
 459 812 l 1xb8
269 149 m 1
 0 683 l 1
 57 712 l 1
 301 227 l 1
 500 712 l 1
 558 688 l 1
 300 60 l 1
 238 0 l 1
 100 0 l 1
 100 65 l 1
 213 65 l 1
 248 99 l 1
 269 149 l 1
EndSplineSet
Validated: 1
EndChar

StartChar: afii10110
Encoding: 1118 1118 126
Width: 493
Flags: MW
HStem: -168 65<86 189 86 214 86 189> -20 20G<223 241 223 223> 597 65<172 339 172 366 145 339> 597 149<145 149 362 366 145 145>
VStem: 84 65<685 746 685 746 685 746> 362 65<685 746>
LayerCount: 2
Fore
SplineSet
427 657 m 1xdc
 366 597 l 1
 145 597 l 1
 84 657 l 1
 84 746 l 1
 149 746 l 1xdc
 149 685 l 1
 172 662 l 1
 339 662 l 1xec
 362 685 l 1
 362 746 l 1
 427 746 l 1
 427 657 l 1xdc
214 -168 m 1
 86 -168 l 1
 86 -103 l 1
 189 -103 l 1
 216 -76 l 1
 241 0 l 1
 223 0 l 1
 10 518 l 1
 72 543 l 1
 265 72 l 1
 422 543 l 1
 483 523 l 1
 273 -109 l 1
 214 -168 l 1
EndSplineSet
Validated: 1
EndChar

StartChar: afii10057
Encoding: 1032 1032 127
Width: 527
Flags: MW
HStem: 0 65<117 327 146 327 146 354> 635 65<224 392 224 457>
VStem: 224 233<635 700 103 700> 392 65<130 635 635 635>
LayerCount: 2
Fore
SplineSet
117 0 m 1xe0
 0 117 l 1
 47 163 l 1
 146 65 l 1
 327 65 l 1
 392 130 l 1
 392 635 l 1xd0
 224 635 l 1
 224 700 l 1
 457 700 l 1
 457 103 l 1
 354 0 l 1
 117 0 l 1xe0
EndSplineSet
Validated: 1
EndChar

StartChar: currency
Encoding: 164 164 128
Width: 579
Flags: MW
HStem: -20 20G<50 115 50 50> -13 21G<523 523> 240 55<0 50 0 50 115 342> 330 55<0 50 0 50 115 404> 635 65<115 404 115 115>
VStem: 50 65<0 240 0 240 295 330 385 635> 470 65<450 570 570 570>
LayerCount: 2
Fore
SplineSet
404 635 m 1xbe
 115 635 l 1
 115 385 l 1
 404 385 l 1
 470 450 l 1
 470 570 l 1
 404 635 l 1xbe
394 295 m 1
 475 72 l 1
 544 49 l 1
 523 -13 l 1x7e
 421 21 l 1
 342 240 l 1
 115 240 l 1
 115 0 l 1
 50 0 l 1
 50 240 l 1
 0 240 l 1
 0 295 l 1
 50 295 l 1
 50 330 l 1
 0 330 l 1
 0 385 l 1
 50 385 l 1
 50 700 l 1
 432 700 l 1
 535 598 l 1
 535 422 l 1
 442 330 l 1
 115 330 l 1
 115 295 l 1
 394 295 l 1
EndSplineSet
Validated: 1
EndChar

StartChar: afii10050
Encoding: 1168 1168 129
Width: 512
Flags: MW
HStem: 0 21G<80 145 80 80> 635 155<446 512 446 512>
VStem: 80 65<0 635 0 700> 446 66<700 790>
LayerCount: 2
Fore
SplineSet
512 635 m 1
 145 635 l 1
 145 0 l 1
 80 0 l 1
 80 700 l 1
 446 700 l 1xf0
 446 790 l 1
 512 790 l 1
 512 635 l 1
EndSplineSet
Validated: 1
EndChar

StartChar: brokenbar
Encoding: 166 166 130
Width: 226
Flags: MW
HStem: -168 21G<80 146 80 80> 680 20G<80 146 146 146>
VStem: 80 66<-168 204 328 700>
LayerCount: 2
Fore
SplineSet
146 700 m 1
 146 328 l 1
 80 328 l 1
 80 700 l 1
 146 700 l 1
146 -168 m 1
 80 -168 l 1
 80 204 l 1
 146 204 l 1
 146 -168 l 1
EndSplineSet
Validated: 1
EndChar

StartChar: section
Encoding: 167 167 131
Width: 513
Flags: MW
HStem: -168 65<148 344 148 371 141 344> 635 65<169 365 169 169>
VStem: 45 65<237 237 237 330> 60 65<525 590 525 618 525 618> 388 65<-58 7 7 7> 403 65<203 296 296 296>
LayerCount: 2
Fore
SplineSet
110 237 m 1xe4
 122 215 l 1
 328 121 l 1
 403 203 l 1
 403 296 l 1
 391 318 l 1
 184 411 l 1
 110 330 l 1
 110 237 l 1xe4
45 223 m 1
 45 355 l 1xe8
 123 439 l 1
 91 454 l 1
 60 512 l 1
 60 618 l 1
 142 700 l 1
 372 700 l 1
 473 666 l 1
 452 605 l 1
 365 635 l 1
 169 635 l 1
 125 590 l 1
 125 525 l 1
 138 503 l 1
 437 368 l 1
 468 310 l 1
 468 178 l 1xd4
 391 94 l 1
 422 79 l 1
 453 21 l 1
 453 -86 l 1
 371 -168 l 1
 141 -168 l 1
 40 -134 l 1
 61 -73 l 1
 148 -103 l 1
 344 -103 l 1
 388 -58 l 1
 388 7 l 1xe8
 375 30 l 1
 76 165 l 1
 45 223 l 1
EndSplineSet
Validated: 1
EndChar

StartChar: afii10023
Encoding: 1025 1025 132
Width: 533
Flags: MW
HStem: 0 65<145 513 145 513> 338 65<145 471 145 471> 635 65<145 513 145 145> 788 90<190 232 190 232 370 412>
VStem: 80 65<65 338 403 635>
LayerCount: 2
Fore
SplineSet
80 0 m 1
 80 700 l 1
 513 700 l 1
 513 635 l 1
 145 635 l 1
 145 403 l 1
 471 403 l 1
 471 338 l 1
 145 338 l 1
 145 65 l 1
 513 65 l 1
 513 0 l 1
 80 0 l 1
190 788 m 1
 166 812 l 1
 166 854 l 1
 190 878 l 1
 232 878 l 1
 256 854 l 1
 256 812 l 1
 232 788 l 1
 190 788 l 1
370 788 m 1
 346 812 l 1
 346 854 l 1
 370 878 l 1
 412 878 l 1
 436 854 l 1
 436 812 l 1
 412 788 l 1
 370 788 l 1
EndSplineSet
Validated: 1
EndChar

StartChar: copyright
Encoding: 169 169 133
Width: 859
Flags: MW
HStem: 0 65<223 636 223 663 196 636> 145 65<361 494 361 500 335 494> 490 65<361 493 361 361> 635 65<223 636 223 223>
VStem: 60 65<153 547 153 577 153 577> 253 65<254 446 254 472 254 472> 734 65<153 547 547 547>
LayerCount: 2
Fore
SplineSet
799 577 m 1
 799 123 l 1
 663 0 l 1
 196 0 l 1
 60 123 l 1
 60 577 l 1
 196 700 l 1
 663 700 l 1
 799 577 l 1
734 153 m 1
 734 547 l 1
 636 635 l 1
 223 635 l 1
 125 547 l 1
 125 153 l 1
 223 65 l 1
 636 65 l 1
 734 153 l 1
494 210 m 1
 582 238 l 1
 602 177 l 1
 500 145 l 1
 335 145 l 1
 253 228 l 1
 253 472 l 1
 335 555 l 1
 519 555 l 1
 601 472 l 1
 601 397 l 1
 536 397 l 1
 536 446 l 1
 493 490 l 1
 361 490 l 1
 318 446 l 1
 318 254 l 1
 361 210 l 1
 494 210 l 1
EndSplineSet
Validated: 1
EndChar

StartChar: afii10053
Encoding: 1028 1028 134
Width: 579
Flags: MW
HStem: 0 65<190 426 190 454 163 426> 319 65<125 411 125 411> 635 65<190 415 190 190>
VStem: 60 65<130 319 384 570> 480 65<485 570 570 570>
LayerCount: 2
Fore
SplineSet
426 65 m 1
 502 141 l 1
 549 95 l 1
 454 0 l 1
 163 0 l 1
 60 103 l 1
 60 597 l 1
 163 700 l 1
 442 700 l 1
 545 597 l 1
 545 485 l 1
 480 485 l 1
 480 570 l 1
 415 635 l 1
 190 635 l 1
 125 570 l 1
 125 384 l 1
 411 384 l 1
 411 319 l 1
 125 319 l 1
 125 130 l 1
 190 65 l 1
 426 65 l 1
EndSplineSet
Validated: 1
EndChar

StartChar: guillemotleft
Encoding: 171 171 135
Width: 597
Flags: MW
HStem: 3 21G<323 323 544 544> 503 20G<323 323 544 544>
LayerCount: 2
Fore
SplineSet
544 3 m 1
 241 263 l 1
 544 523 l 1
 587 474 l 1
 342 263 l 1
 587 52 l 1
 544 3 l 1
323 3 m 1
 20 263 l 1
 323 523 l 1
 366 474 l 1
 121 263 l 1
 366 52 l 1
 323 3 l 1
EndSplineSet
Validated: 1
EndChar

StartChar: logicalnot
Encoding: 172 172 136
Width: 410
Flags: MW
HStem: 212 165<324 324 324 390> 312 65<20 324 20 390>
VStem: 324 66<212 312 312 312>
LayerCount: 2
Fore
SplineSet
324 212 m 1xa0
 324 312 l 1
 20 312 l 1x60
 20 377 l 1
 390 377 l 1
 390 212 l 1
 324 212 l 1xa0
EndSplineSet
Validated: 1
EndChar

StartChar: uni00AD
Encoding: 173 173 137
Width: 450
Flags: MW
HStem: 312 65<20 430 20 430>
LayerCount: 2
Fore
SplineSet
20 312 m 1
 20 377 l 1
 430 377 l 1
 430 312 l 1
 20 312 l 1
EndSplineSet
Validated: 1
EndChar

StartChar: registered
Encoding: 174 174 138
Width: 859
Flags: MW
HStem: 0 65<223 636 223 663 196 636> 296 65<332 399 332 510 492 510 332 534 492 492> 490 65<332 510 332 332> 635 65<223 636 223 223>
VStem: 60 65<153 547 153 577 153 577> 267 65<145 296 361 490> 734 65<153 547 547 547>
LayerCount: 2
Fore
SplineSet
552 449 m 1
 510 490 l 1
 332 490 l 1
 332 361 l 1
 510 361 l 1
 525 376 536 387 552 402 c 1
 552 449 l 1
617 473 m 1
 617 378 l 1
 534 296 l 1
 492 296 l 1
 615 173 l 1
 569 126 l 1
 399 296 l 1
 332 296 l 1
 332 145 l 1
 267 145 l 1
 267 555 l 1
 534 555 l 1
 617 473 l 1
799 577 m 1
 799 123 l 1
 663 0 l 1
 196 0 l 1
 60 123 l 1
 60 577 l 1
 196 700 l 1
 663 700 l 1
 799 577 l 1
734 153 m 1
 734 547 l 1
 636 635 l 1
 223 635 l 1
 125 547 l 1
 125 153 l 1
 223 65 l 1
 636 65 l 1
 734 153 l 1
EndSplineSet
Validated: 1
EndChar

StartChar: afii10056
Encoding: 1031 1031 139
Width: 357
Flags: MW
HStem: 0 65<30 146 211 327 30 146> 635 65<30 146 30 327 211 211 211 327> 775 90<68 110 68 110 248 290>
VStem: 146 65<65 635 65 635>
LayerCount: 2
Fore
SplineSet
327 0 m 1
 30 0 l 1
 30 65 l 1
 146 65 l 1
 146 635 l 1
 30 635 l 1
 30 700 l 1
 327 700 l 1
 327 635 l 1
 211 635 l 1
 211 65 l 1
 327 65 l 1
 327 0 l 1
68 775 m 1
 44 799 l 1
 44 841 l 1
 68 865 l 1
 110 865 l 1
 134 841 l 1
 134 799 l 1
 110 775 l 1
 68 775 l 1
248 775 m 1
 224 799 l 1
 224 841 l 1
 248 865 l 1
 290 865 l 1
 314 841 l 1
 314 799 l 1
 290 775 l 1
 248 775 l 1
EndSplineSet
Validated: 1
EndChar

StartChar: degree
Encoding: 176 176 140
Width: 350
Flags: MW
HStem: 410 65<139 211 139 238 112 211> 635 65<139 211 139 139>
VStem: 30 65<519 591 519 618 519 618> 255 65<519 591 591 591>
LayerCount: 2
Fore
SplineSet
112 700 m 1
 238 700 l 1
 320 618 l 1
 320 492 l 1
 238 410 l 1
 112 410 l 1
 30 492 l 1
 30 618 l 1
 112 700 l 1
211 635 m 1
 139 635 l 1
 95 591 l 1
 95 519 l 1
 139 475 l 1
 211 475 l 1
 255 519 l 1
 255 591 l 1
 211 635 l 1
EndSplineSet
Validated: 1
EndChar

StartChar: plusminus
Encoding: 177 177 141
Width: 470
Flags: MW
HStem: 70 60<30 440 30 440> 332 65<20 202 20 202 267 450> 540 20G<202 267 267 267>
VStem: 202 65<170 332 170 332 397 560>
LayerCount: 2
Fore
SplineSet
202 560 m 1
 267 560 l 1
 267 397 l 1
 450 397 l 1
 450 332 l 1
 267 332 l 1
 267 170 l 1
 202 170 l 1
 202 332 l 1
 20 332 l 1
 20 397 l 1
 202 397 l 1
 202 560 l 1
30 70 m 1
 30 130 l 1
 440 130 l 1
 440 70 l 1
 30 70 l 1
EndSplineSet
Validated: 1
EndChar

StartChar: uni0406
Encoding: 1030 1030 142
Width: 357
Flags: MW
HStem: 0 65<30 146 211 327 30 146> 635 65<30 146 30 327 211 211 211 327>
VStem: 146 65<65 635 65 635>
LayerCount: 2
Fore
SplineSet
327 0 m 1
 30 0 l 1
 30 65 l 1
 146 65 l 1
 146 635 l 1
 30 635 l 1
 30 700 l 1
 327 700 l 1
 327 635 l 1
 211 635 l 1
 211 65 l 1
 327 65 l 1
 327 0 l 1
EndSplineSet
Validated: 1
EndChar

StartChar: afii10103
Encoding: 1110 1110 143
Width: 216
Flags: MW
HStem: 0 21G<79 144 79 79> 675 20G<90 132 132 132>
VStem: 79 65<0 433 433 433>
LayerCount: 2
Fore
SplineSet
79 433 m 1
 50 521 l 1
 111 541 l 1
 144 440 l 1
 144 0 l 1
 79 0 l 1
 79 433 l 1
90 605 m 1
 66 629 l 1
 66 671 l 1
 90 695 l 1
 132 695 l 1
 156 671 l 1
 156 629 l 1
 132 605 l 1
 90 605 l 1
EndSplineSet
Validated: 1
EndChar

StartChar: afii10098
Encoding: 1169 1169 144
Width: 430
Flags: MW
HStem: 0 21G<60 126 60 60> 468 145<364 430 364 430>
VStem: 60 66<0 468 0 533 0 533> 364 66<533 613>
LayerCount: 2
Fore
SplineSet
430 468 m 1
 126 468 l 1
 126 0 l 1
 60 0 l 1
 60 533 l 1
 364 533 l 1xf0
 364 613 l 1
 430 613 l 1
 430 468 l 1
EndSplineSet
Validated: 1
EndChar

StartChar: mu
Encoding: 181 181 145
Width: 561
Flags: MW
HStem: -168 21G<60 125 60 60> 0 65<170 351 170 377 142 351> 513 20G<60 125 125 125 418 483 483 483>
VStem: 60 65<-168 17 110 533> 418 65<132 533 120 533>
LayerCount: 2
Fore
SplineSet
483 533 m 1
 483 120 l 1
 511 7 l 1
 449 -8 l 1
 433 56 l 1
 377 0 l 1
 142 0 l 1
 125 17 l 1
 125 -168 l 1
 60 -168 l 1
 60 533 l 1
 125 533 l 1
 125 110 l 1
 170 65 l 1
 351 65 l 1
 418 132 l 1
 418 533 l 1
 483 533 l 1
EndSplineSet
Validated: 1
EndChar

StartChar: paragraph
Encoding: 182 182 146
Width: 521
Flags: MW
HStem: -168 21G<249 314 249 249 376 376 376 441> 680 20G<133 314 314 314 376 441 441 441>
VStem: 249 65<-168 182 182 182> 376 65<-168 700>
LayerCount: 2
Fore
SplineSet
314 -168 m 1
 249 -168 l 1
 249 182 l 1
 133 182 l 1
 30 287 l 1
 30 598 l 1
 133 700 l 1
 314 700 l 1
 314 -168 l 1
441 -168 m 1
 376 -168 l 1
 376 700 l 1
 441 700 l 1
 441 -168 l 1
EndSplineSet
Validated: 1
EndChar

StartChar: periodcentered
Encoding: 183 183 147
Width: 300
Flags: MW
HStem: 305 21G<129 129 129 171> 375 20G<129 171 171 171>
LayerCount: 2
Fore
SplineSet
129 305 m 1
 105 329 l 1
 105 371 l 1
 129 395 l 1
 171 395 l 1
 195 371 l 1
 195 329 l 1
 171 305 l 1
 129 305 l 1
EndSplineSet
Validated: 1
EndChar

StartChar: afii10071
Encoding: 1105 1105 148
Width: 524
Flags: MW
HStem: 0 65<169 376 169 382 142 376> 223 65<125 373 125 400 125 373> 468 65<169 169 169 373> 605 90<160 202 160 202 340 382>
VStem: 60 65<109 223 288 424> 417 65<332 424 424 424>
LayerCount: 2
Fore
SplineSet
376 65 m 1
 464 93 l 1
 484 32 l 1
 382 0 l 1
 142 0 l 1
 60 82 l 1
 60 451 l 1
 142 533 l 1
 400 533 l 1
 482 451 l 1
 482 304 l 1
 400 223 l 1
 125 223 l 1
 125 109 l 1
 169 65 l 1
 376 65 l 1
169 468 m 1
 125 424 l 1
 125 288 l 1
 373 288 l 1
 417 332 l 1
 417 424 l 1
 373 468 l 1
 169 468 l 1
160 605 m 1
 136 629 l 1
 136 671 l 1
 160 695 l 1
 202 695 l 1
 226 671 l 1
 226 629 l 1
 202 605 l 1
 160 605 l 1
340 605 m 1
 316 629 l 1
 316 671 l 1
 340 695 l 1
 382 695 l 1
 406 671 l 1
 406 629 l 1
 382 605 l 1
 340 605 l 1
EndSplineSet
Validated: 1
EndChar

StartChar: afii61352
Encoding: 8470 8470 149
Width: 939
Flags: MW
HStem: 0 21G<80 145 80 80 492 566 492 492> 300 65<628 900 628 900> 410 65<728 800 728 827 701 800> 635 65<728 800 728 728>
VStem: 80 65<0 587 0 700> 501 65<113 700 0 700> 619 65<519 591 519 618 519 618> 844 65<519 591 591 591>
LayerCount: 2
Fore
SplineSet
628 300 m 1
 628 365 l 1
 900 365 l 1
 900 300 l 1
 628 300 l 1
701 700 m 1
 827 700 l 1
 909 618 l 1
 909 492 l 1
 827 410 l 1
 701 410 l 1
 619 492 l 1
 619 618 l 1
 701 700 l 1
800 635 m 1
 728 635 l 1
 684 591 l 1
 684 519 l 1
 728 475 l 1
 800 475 l 1
 844 519 l 1
 844 591 l 1
 800 635 l 1
492 0 m 1
 145 587 l 1
 145 0 l 1
 80 0 l 1
 80 700 l 1
 154 700 l 1
 501 113 l 1
 501 700 l 1
 566 700 l 1
 566 0 l 1
 492 0 l 1
EndSplineSet
Validated: 1
EndChar

StartChar: afii10101
Encoding: 1108 1108 150
Width: 514
Flags: MW
HStem: 0 65<168 376 168 382 142 376> 232 66<125 375 125 375> 468 65<168 374 168 168>
VStem: 60 65<107 232 298 426> 417 65<340 426 426 426>
LayerCount: 2
Fore
SplineSet
376 65 m 1
 464 93 l 1
 484 32 l 1
 382 0 l 1
 142 0 l 1
 60 83 l 1
 60 450 l 1
 142 533 l 1
 400 533 l 1
 482 450 l 1
 482 340 l 1
 417 340 l 1
 417 426 l 1
 374 468 l 1
 168 468 l 1
 125 426 l 1
 125 298 l 1
 375 298 l 1
 375 232 l 1
 125 232 l 1
 125 107 l 1
 168 65 l 1
 376 65 l 1
EndSplineSet
Validated: 1
EndChar

StartChar: guillemotright
Encoding: 187 187 151
Width: 597
Flags: MW
HStem: 3 21G<53 53 274 274> 503 20G<53 53 274 274>
LayerCount: 2
Fore
SplineSet
356 263 m 1
 53 3 l 1
 10 52 l 1
 255 263 l 1
 10 474 l 1
 53 523 l 1
 356 263 l 1
577 263 m 1
 274 3 l 1
 231 52 l 1
 476 263 l 1
 231 474 l 1
 274 523 l 1
 577 263 l 1
EndSplineSet
Validated: 1
EndChar

StartChar: afii10105
Encoding: 1112 1112 152
Width: 214
Flags: MW
HStem: -178 21G<-49 -49> 675 20G<88 130 130 130>
VStem: 77 65<-32 433 433 433>
LayerCount: 2
Fore
SplineSet
91 -127 m 1
 -49 -178 l 1
 -70 -117 l 1
 46 -77 l 1
 77 -32 l 1
 77 433 l 1
 48 521 l 1
 109 541 l 1
 142 440 l 1
 142 -46 l 1
 91 -127 l 1
88 605 m 1
 64 629 l 1
 64 671 l 1
 88 695 l 1
 130 695 l 1
 154 671 l 1
 154 629 l 1
 130 605 l 1
 88 605 l 1
EndSplineSet
Validated: 1
EndChar

StartChar: afii10054
Encoding: 1029 1029 153
Width: 544
Flags: MW
HStem: 0 65<150 375 150 402 143 375> 635 65<169 392 169 169>
VStem: 40 65<499 571 499 598 499 598> 439 65<129 224 224 224>
LayerCount: 2
Fore
SplineSet
392 635 m 1
 169 635 l 1
 105 571 l 1
 105 499 l 1
 117 474 l 1
 473 301 l 1
 504 243 l 1
 504 102 l 1
 402 0 l 1
 143 0 l 1
 42 34 l 1
 63 95 l 1
 150 65 l 1
 375 65 l 1
 439 129 l 1
 439 224 l 1
 425 250 l 1
 67 424 l 1
 40 480 l 1
 40 598 l 1
 142 700 l 1
 404 700 l 1
 502 667 l 1
 482 607 l 1
 392 635 l 1
EndSplineSet
Validated: 1
EndChar

StartChar: afii10102
Encoding: 1109 1109 154
Width: 477
Flags: MW
HStem: 0 65<139 335 139 363 131 335> 468 65<142 339 142 142>
VStem: 380 65<110 170 170 170>
LayerCount: 2
Fore
SplineSet
380 170 m 1
 369 192 l 1
 63 300 l 1
 32 360 l 1
 32 451 l 1
 114 533 l 1
 346 533 l 1
 447 499 l 1
 426 438 l 1
 339 468 l 1
 142 468 l 1
 97 423 l 1
 97 376 l 1
 108 353 l 1
 414 245 l 1
 445 186 l 1
 445 82 l 1
 363 0 l 1
 131 0 l 1
 30 32 l 1
 50 94 l 1
 139 65 l 1
 335 65 l 1
 380 110 l 1
 380 170 l 1
EndSplineSet
Validated: 1
EndChar

StartChar: afii10104
Encoding: 1111 1111 155
Width: 216
Flags: MW
HStem: 0 21G<79 144 79 79> 605 90<8 50 8 50 172 214>
VStem: 79 65<0 433 433 433>
LayerCount: 2
Fore
SplineSet
8 605 m 1
 -16 629 l 1
 -16 671 l 1
 8 695 l 1
 50 695 l 1
 74 671 l 1
 74 629 l 1
 50 605 l 1
 8 605 l 1
172 605 m 1
 148 629 l 1
 148 671 l 1
 172 695 l 1
 214 695 l 1
 238 671 l 1
 238 629 l 1
 214 605 l 1
 172 605 l 1
79 433 m 1
 50 521 l 1
 111 541 l 1
 144 440 l 1
 144 0 l 1
 79 0 l 1
 79 433 l 1
EndSplineSet
Validated: 1
EndChar

StartChar: afii10017
Encoding: 1040 1040 156
Width: 578
Flags: MW
HStem: -10 21G<83 83 495 495> 212 65<155 402 176 402 176 423> 680 20G<243 335 335 335>
LayerCount: 2
Fore
SplineSet
155 212 m 1
 83 -10 l 1
 20 10 l 1
 243 700 l 1
 335 700 l 1
 558 10 l 1
 495 -10 l 1
 423 212 l 1
 155 212 l 1
176 277 m 1
 402 277 l 1
 289 627 l 1
 176 277 l 1
EndSplineSet
Validated: 1
EndChar

StartChar: afii10018
Encoding: 1041 1041 157
Width: 605
Flags: MW
HStem: 0 65<145 435 145 463> 352 65<145 435 145 463> 635 65<145 523 145 145>
VStem: 80 65<65 352 417 635> 500 65<132 285 285 285>
LayerCount: 2
Fore
SplineSet
80 0 m 1
 80 700 l 1
 523 700 l 1
 523 635 l 1
 145 635 l 1
 145 417 l 1
 463 417 l 1
 565 313 l 1
 565 104 l 1
 463 0 l 1
 80 0 l 1
500 285 m 1
 435 352 l 1
 145 352 l 1
 145 65 l 1
 435 65 l 1
 500 132 l 1
 500 285 l 1
EndSplineSet
Validated: 1
EndChar

StartChar: afii10019
Encoding: 1042 1042 158
Width: 615
Flags: MW
HStem: 0 65<145 437 145 462> 337 65<145 435 145 437 145 435> 635 65<145 145 145 435>
VStem: 80 65<65 337 402 635> 479 65<446 591 591 591> 500 65<128 273 273 273>
LayerCount: 2
Fore
SplineSet
495 370 m 1xf8
 565 299 l 1
 565 103 l 1xf4
 462 0 l 1
 80 0 l 1
 80 700 l 1
 461 700 l 1
 544 617 l 1
 544 419 l 1
 495 370 l 1xf8
500 273 m 1
 437 337 l 1
 145 337 l 1
 145 65 l 1
 437 65 l 1
 500 128 l 1
 500 273 l 1
145 635 m 1
 145 402 l 1
 435 402 l 1
 479 446 l 1
 479 591 l 1xf8
 435 635 l 1
 145 635 l 1
EndSplineSet
Validated: 1
EndChar

StartChar: afii10020
Encoding: 1043 1043 159
Width: 512
Flags: MW
HStem: 0 21G<80 145 80 80> 635 65<145 145 145 512>
VStem: 80 65<0 635 0 700>
LayerCount: 2
Fore
SplineSet
145 635 m 1
 145 0 l 1
 80 0 l 1
 80 700 l 1
 512 700 l 1
 512 635 l 1
 145 635 l 1
EndSplineSet
Validated: 1
EndChar

StartChar: afii10021
Encoding: 1044 1044 160
Width: 656
Flags: MW
HStem: -168 233<0 63 0 65 0 63 571 636 571 571> 0 65<137 498 563 571 0 65> 635 65<228 498 228 228>
VStem: 0 65<-168 0 -168 65> 498 65<65 635 635 635> 571 65<-168 0 0 0>
LayerCount: 2
Fore
SplineSet
636 65 m 1xbc
 636 -168 l 1
 571 -168 l 1xbc
 571 0 l 1
 65 0 l 1x7c
 65 -168 l 1
 0 -168 l 1
 0 65 l 1
 63 65 l 1
 109 147 l 1
 170 700 l 1
 563 700 l 1
 563 65 l 1
 636 65 l 1xbc
172 127 m 1
 137 65 l 1
 498 65 l 1
 498 635 l 1
 228 635 l 1
 208 448 191 314 172 127 c 1
EndSplineSet
Validated: 1
EndChar

StartChar: afii10022
Encoding: 1045 1045 161
Width: 533
Flags: MW
HStem: 0 65<145 513 145 513> 338 65<145 471 145 471> 635 65<145 513 145 145>
VStem: 80 65<65 338 403 635>
LayerCount: 2
Fore
SplineSet
80 0 m 1
 80 700 l 1
 513 700 l 1
 513 635 l 1
 145 635 l 1
 145 403 l 1
 471 403 l 1
 471 338 l 1
 145 338 l 1
 145 65 l 1
 513 65 l 1
 513 0 l 1
 80 0 l 1
EndSplineSet
Validated: 1
EndChar

StartChar: afii10024
Encoding: 1046 1046 162
Width: 829
Flags: MW
HStem: -20 20G<382 447 382 382> -10 21G<30 30 799 799> 317 65<311 382 311 382 447 518> 690 20G<30 30 799 799>
VStem: 382 65<0 317 0 317 382 700>
LayerCount: 2
Fore
SplineSet
382 382 m 1x78
 382 700 l 1
 447 700 l 1
 447 382 l 1
 518 382 l 1
 693 676 l 1
 799 710 l 1
 819 647 l 1
 738 621 l 1
 577 350 l 1
 739 79 l 1
 819 53 l 1
 799 -10 l 1x78
 693 24 l 1
 518 317 l 1
 447 317 l 1
 447 0 l 1
 382 0 l 1xb8
 382 317 l 1
 311 317 l 1
 136 24 l 1
 30 -10 l 1
 10 53 l 1
 90 79 l 1
 252 350 l 1
 91 621 l 1
 10 647 l 1
 30 710 l 1
 136 676 l 1
 311 382 l 1
 382 382 l 1x78
EndSplineSet
Validated: 1
EndChar

StartChar: afii10025
Encoding: 1047 1047 163
Width: 534
Flags: MW
HStem: 0 65<111 354 111 382 98 354> 326 65<153 354 153 355> 635 65<119 353 119 119>
VStem: 419 65<130 259 259 259>
LayerCount: 2
Fore
SplineSet
412 450 m 1
 412 575 l 1
 353 635 l 1
 119 635 l 1
 32 605 l 1
 10 666 l 1
 112 700 l 1
 381 700 l 1
 477 604 l 1
 477 421 l 1
 414 359 l 1
 484 287 l 1
 484 102 l 1
 382 0 l 1
 98 0 l 1
 0 33 l 1
 22 94 l 1
 111 65 l 1
 354 65 l 1
 419 130 l 1
 419 259 l 1
 354 326 l 1
 153 326 l 1
 153 391 l 1
 355 391 l 1
 412 450 l 1
EndSplineSet
Validated: 1
EndChar

StartChar: afii10026
Encoding: 1048 1048 164
Width: 646
Flags: MW
HStem: 0 21G<80 154 80 80 501 501 501 566> 680 20G<80 145 145 145 492 566 566 566>
VStem: 80 65<113 700 113 700 113 700> 501 65<0 587 587 587>
LayerCount: 2
Fore
SplineSet
501 587 m 1
 154 0 l 1
 80 0 l 1
 80 700 l 1
 145 700 l 1
 145 113 l 1
 492 700 l 1
 566 700 l 1
 566 0 l 1
 501 0 l 1
 501 587 l 1
EndSplineSet
Validated: 1
EndChar

StartChar: afii10027
Encoding: 1049 1049 165
Width: 646
Flags: MW
HStem: 0 21G<80 154 80 80 501 501 501 566> 772 65<234 411 234 438 207 411> 772 149<207 211 434 438 207 207>
VStem: 80 65<113 700 113 700 113 700> 146 65<860 921 860 921 860 921> 434 65<860 921> 501 65<0 587 587 587>
LayerCount: 2
Fore
SplineSet
499 832 m 1xbe
 438 772 l 1
 207 772 l 1
 146 832 l 1
 146 921 l 1
 211 921 l 1xbe
 211 860 l 1
 234 837 l 1
 411 837 l 1xde
 434 860 l 1
 434 921 l 1
 499 921 l 1
 499 832 l 1xbe
501 587 m 1
 154 0 l 1
 80 0 l 1
 80 700 l 1
 145 700 l 1
 145 113 l 1
 492 700 l 1
 566 700 l 1
 566 0 l 1
 501 0 l 1
 501 587 l 1
EndSplineSet
Validated: 1
EndChar

StartChar: afii10028
Encoding: 1050 1050 166
Width: 570
Flags: MW
HStem: -20 20G<80 146 80 80> -10 21G<540 540> 317 65<146 259 146 259> 690 20G<540 540>
VStem: 80 66<0 317 382 700>
LayerCount: 2
Fore
SplineSet
146 700 m 1xb8
 146 382 l 1
 259 382 l 1
 434 676 l 1
 540 710 l 1
 560 647 l 1
 479 621 l 1
 318 350 l 1
 480 79 l 1
 560 53 l 1
 540 -10 l 1x78
 434 24 l 1
 259 317 l 1
 146 317 l 1
 146 0 l 1
 80 0 l 1
 80 700 l 1
 146 700 l 1xb8
EndSplineSet
Validated: 1
EndChar

StartChar: afii10029
Encoding: 1051 1051 167
Width: 658
Flags: MW
HStem: -20 20G<513 578 513 513> -10 21G<20 20> 635 65<238 513 238 238>
VStem: 513 65<0 635 635 635>
LayerCount: 2
Fore
SplineSet
578 700 m 1x70
 578 0 l 1
 513 0 l 1xb0
 513 635 l 1
 238 635 l 1
 178 88 l 1
 115 20 l 1
 20 -10 l 1
 0 52 l 1
 78 77 l 1
 116 118 l 1
 180 700 l 1
 578 700 l 1x70
EndSplineSet
Validated: 1
EndChar

StartChar: afii10030
Encoding: 1052 1052 168
Width: 832
Flags: MW
HStem: 0 21G<80 145 80 80 687 687 687 752> 680 20G<80 152 152 152 680 752 752 752>
VStem: 80 65<0 581 0 700> 687 65<0 581 581 581>
LayerCount: 2
Fore
SplineSet
444 166 m 1
 388 166 l 1
 145 581 l 1
 145 0 l 1
 80 0 l 1
 80 700 l 1
 152 700 l 1
 416 249 l 1
 680 700 l 1
 752 700 l 1
 752 0 l 1
 687 0 l 1
 687 581 l 1
 444 166 l 1
EndSplineSet
Validated: 1
EndChar

StartChar: afii10031
Encoding: 1053 1053 169
Width: 645
Flags: MW
HStem: 0 21G<80 145 80 80 500 565 500 500> 331 65<145 500 145 500> 680 20G<80 145 145 145 500 565 565 565>
VStem: 80 65<0 331 396 700> 500 65<0 331 331 331 396 700 0 700>
LayerCount: 2
Fore
SplineSet
500 396 m 1
 500 700 l 1
 565 700 l 1
 565 0 l 1
 500 0 l 1
 500 331 l 1
 145 331 l 1
 145 0 l 1
 80 0 l 1
 80 700 l 1
 145 700 l 1
 145 396 l 1
 500 396 l 1
EndSplineSet
Validated: 1
EndChar

StartChar: afii10032
Encoding: 1054 1054 170
Width: 635
Flags: MW
HStem: 0 65<197 438 197 462 173 438> 635 65<197 438 197 197>
VStem: 60 65<130 570 130 597 130 597> 510 65<130 570 570 570>
LayerCount: 2
Fore
SplineSet
173 700 m 1
 462 700 l 1
 575 597 l 1
 575 103 l 1
 462 0 l 1
 173 0 l 1
 60 103 l 1
 60 597 l 1
 173 700 l 1
510 570 m 1
 438 635 l 1
 197 635 l 1
 125 570 l 1
 125 130 l 1
 197 65 l 1
 438 65 l 1
 510 130 l 1
 510 570 l 1
EndSplineSet
Validated: 1
EndChar

StartChar: afii10033
Encoding: 1055 1055 171
Width: 645
Flags: MW
HStem: 0 21G<80 145 80 80 500 500 500 565> 635 65<145 145 145 500>
VStem: 80 65<0 635 0 700> 500 65<0 635 635 635>
LayerCount: 2
Fore
SplineSet
145 635 m 1
 145 0 l 1
 80 0 l 1
 80 700 l 1
 565 700 l 1
 565 0 l 1
 500 0 l 1
 500 635 l 1
 145 635 l 1
EndSplineSet
Validated: 1
EndChar

StartChar: afii10034
Encoding: 1056 1056 172
Width: 605
Flags: MW
HStem: 0 21G<80 145 80 80> 267 65<145 434 145 434 145 462> 635 65<145 434 145 145>
VStem: 80 65<0 267 332 635> 500 65<397 570 570 570>
LayerCount: 2
Fore
SplineSet
145 267 m 1
 145 0 l 1
 80 0 l 1
 80 700 l 1
 462 700 l 1
 565 598 l 1
 565 369 l 1
 462 267 l 1
 145 267 l 1
434 635 m 1
 145 635 l 1
 145 332 l 1
 434 332 l 1
 500 397 l 1
 500 570 l 1
 434 635 l 1
EndSplineSet
Validated: 1
EndChar

StartChar: afii10035
Encoding: 1057 1057 173
Width: 579
Flags: MW
HStem: 0 65<190 426 190 454 163 426> 635 65<190 415 190 190>
VStem: 60 65<130 570 130 597 130 597> 480 65<485 570 570 570>
LayerCount: 2
Fore
SplineSet
426 65 m 1
 502 141 l 1
 549 95 l 1
 454 0 l 1
 163 0 l 1
 60 103 l 1
 60 597 l 1
 163 700 l 1
 442 700 l 1
 545 597 l 1
 545 485 l 1
 480 485 l 1
 480 570 l 1
 415 635 l 1
 190 635 l 1
 125 570 l 1
 125 130 l 1
 190 65 l 1
 426 65 l 1
EndSplineSet
Validated: 1
EndChar

StartChar: afii10036
Encoding: 1058 1058 174
Width: 505
Flags: MW
HStem: 0 21G<220 285 220 220> 635 65<0 220 0 505 285 505 285 285>
VStem: 220 65<0 635 0 635>
LayerCount: 2
Fore
SplineSet
285 635 m 1
 285 0 l 1
 220 0 l 1
 220 635 l 1
 0 635 l 1
 0 700 l 1
 505 700 l 1
 505 635 l 1
 285 635 l 1
EndSplineSet
Validated: 1
EndChar

StartChar: afii10037
Encoding: 1059 1059 175
Width: 558
Flags: MW
HStem: 0 65<100 213 100 238 100 213> 692 20G<57 57 500 500>
LayerCount: 2
Fore
SplineSet
269 149 m 1
 0 683 l 1
 57 712 l 1
 301 227 l 1
 500 712 l 1
 558 688 l 1
 300 60 l 1
 238 0 l 1
 100 0 l 1
 100 65 l 1
 213 65 l 1
 248 99 l 1
 269 149 l 1
EndSplineSet
Validated: 1
EndChar

StartChar: afii10038
Encoding: 1060 1060 176
Width: 805
Flags: MW
HStem: -25 21G<370 435 370 370> 90 65<180 370 180 370 153 370 435 625> 585 65<180 370 180 180 435 625> 745 20G<370 435 435 435>
VStem: 50 65<220 520 220 547 220 547> 370 65<-25 90 -25 90 155 585 650 765> 690 65<220 520 520 520>
CounterMasks: 1 0e
LayerCount: 2
Fore
SplineSet
153 650 m 1
 370 650 l 1
 370 765 l 1
 435 765 l 1
 435 650 l 1
 652 650 l 1
 755 547 l 1
 755 193 l 1
 652 90 l 1
 435 90 l 1
 435 -25 l 1
 370 -25 l 1
 370 90 l 1
 153 90 l 1
 50 193 l 1
 50 547 l 1
 153 650 l 1
625 585 m 1
 435 585 l 1
 435 155 l 1
 625 155 l 1
 690 220 l 1
 690 520 l 1
 625 585 l 1
370 585 m 1
 180 585 l 1
 115 520 l 1
 115 220 l 1
 180 155 l 1
 370 155 l 1
 370 585 l 1
EndSplineSet
Validated: 1
EndChar

StartChar: afii10039
Encoding: 1061 1061 177
Width: 544
Flags: MW
HStem: -10 21G<77 77 467 467> 690 20G<75 75 469 469>
LayerCount: 2
Fore
SplineSet
75 710 m 1
 272 410 l 1
 469 710 l 1
 524 674 l 1
 311 350 l 1
 522 26 l 1
 467 -10 l 1
 272 290 l 1
 77 -10 l 1
 22 26 l 1
 233 350 l 1
 20 674 l 1
 75 710 l 1
EndSplineSet
Validated: 1
EndChar

StartChar: afii10040
Encoding: 1062 1062 178
Width: 668
Flags: MW
HStem: -168 233<583 648 583 583> 0 65<145 499 564 583> 678 20G<80 145 145 145 499 564 564 564>
VStem: 80 65<65 698 65 698 65 698> 499 65<65 698 65 698> 583 65<-168 0 0 0>
LayerCount: 2
Fore
SplineSet
80 0 m 1x7c
 80 698 l 1
 145 698 l 1
 145 65 l 1
 499 65 l 1
 499 698 l 1
 564 698 l 1
 564 65 l 1
 648 65 l 1
 648 -168 l 1
 583 -168 l 1xbc
 583 0 l 1
 80 0 l 1x7c
EndSplineSet
Validated: 1
EndChar

StartChar: afii10041
Encoding: 1063 1063 179
Width: 622
Flags: MW
HStem: 0 21G<477 542 477 477> 268 65<168 443 168 449 142 443> 680 20G<60 125 125 125 477 542 542 542>
VStem: 60 65<375 700 375 700 375 700> 477 65<0 276 276 276 344 700 0 700>
LayerCount: 2
Fore
SplineSet
477 344 m 1
 477 700 l 1
 542 700 l 1
 542 0 l 1
 477 0 l 1
 477 276 l 1
 449 268 l 1
 142 268 l 1
 60 351 l 1
 60 700 l 1
 125 700 l 1
 125 375 l 1
 168 333 l 1
 443 333 l 1
 477 344 l 1
EndSplineSet
Validated: 1
EndChar

StartChar: afii10042
Encoding: 1064 1064 180
Width: 977
Flags: MW
HStem: 0 65<144 456 521 832 80 456> 680 20G<80 144 144 144 456 521 521 521 832 897 897 897>
VStem: 80 64<65 700 65 700 65 700> 456 65<65 700 65 700> 832 65<65 700>
LayerCount: 2
Fore
SplineSet
897 0 m 1
 80 0 l 1
 80 700 l 1
 144 700 l 1
 144 65 l 1
 456 65 l 1
 456 700 l 1
 521 700 l 1
 521 65 l 1
 832 65 l 1
 832 700 l 1
 897 700 l 1
 897 0 l 1
EndSplineSet
Validated: 1
EndChar

StartChar: afii10043
Encoding: 1065 1065 181
Width: 1002
Flags: MW
HStem: -168 233<917 982 917 917> 0 65<145 457 522 833 898 917> 680 20G<80 145 145 145 457 522 522 522 833 898 898 898>
VStem: 80 65<65 700 65 700 65 700> 457 65<65 700 65 700> 833 65<65 700 65 700> 917 65<-168 0 0 0>
LayerCount: 2
Fore
SplineSet
80 0 m 1x7e
 80 700 l 1
 145 700 l 1
 145 65 l 1
 457 65 l 1
 457 700 l 1
 522 700 l 1
 522 65 l 1
 833 65 l 1
 833 700 l 1
 898 700 l 1
 898 65 l 1
 982 65 l 1
 982 -168 l 1
 917 -168 l 1xbe
 917 0 l 1
 80 0 l 1x7e
EndSplineSet
Validated: 1
EndChar

StartChar: afii10044
Encoding: 1066 1066 182
Width: 672
Flags: MW
HStem: 0 65<223 512 223 540> 352 65<223 512 223 540> 635 65<0 158 0 223>
VStem: 0 223<635 700> 158 65<65 352 417 635 635 635> 577 65<132 285 285 285>
LayerCount: 2
Fore
SplineSet
158 0 m 1xf4
 158 635 l 1xec
 0 635 l 1
 0 700 l 1
 223 700 l 1
 223 417 l 1
 540 417 l 1
 642 313 l 1
 642 104 l 1
 540 0 l 1
 158 0 l 1xf4
577 285 m 1
 512 352 l 1
 223 352 l 1
 223 65 l 1
 512 65 l 1
 577 132 l 1
 577 285 l 1
EndSplineSet
Validated: 1
EndChar

StartChar: afii10045
Encoding: 1067 1067 183
Width: 822
Flags: MW
HStem: 0 65<145 434 145 462> 352 65<145 434 145 462> 680 20G<80 145 145 145 677 742 742 742>
VStem: 80 65<65 352 417 700> 499 65<132 285 285 285> 677 65<0 700 0 700>
LayerCount: 2
Fore
SplineSet
677 0 m 1
 677 700 l 1
 742 700 l 1
 742 0 l 1
 677 0 l 1
80 0 m 1
 80 700 l 1
 145 700 l 1
 145 417 l 1
 462 417 l 1
 564 313 l 1
 564 104 l 1
 462 0 l 1
 80 0 l 1
499 285 m 1
 434 352 l 1
 145 352 l 1
 145 65 l 1
 434 65 l 1
 499 132 l 1
 499 285 l 1
EndSplineSet
Validated: 1
EndChar

StartChar: afii10046
Encoding: 1068 1068 184
Width: 594
Flags: MW
HStem: 0 65<145 434 145 462> 352 65<145 434 145 462> 680 20G<80 145 145 145>
VStem: 80 65<65 352 417 700> 499 65<132 285 285 285>
LayerCount: 2
Fore
SplineSet
80 0 m 1
 80 700 l 1
 145 700 l 1
 145 417 l 1
 462 417 l 1
 564 313 l 1
 564 104 l 1
 462 0 l 1
 80 0 l 1
499 285 m 1
 434 352 l 1
 145 352 l 1
 145 65 l 1
 434 65 l 1
 499 132 l 1
 499 285 l 1
EndSplineSet
Validated: 1
EndChar

StartChar: afii10047
Encoding: 1069 1069 185
Width: 579
Flags: MW
HStem: 0 65<153 389 153 416 125 389> 319 65<168 454 168 454> 635 65<164 389 164 164>
VStem: 34 65<485 570 485 597 485 597> 454 65<130 319 319 319 384 570 570 570>
LayerCount: 2
Fore
SplineSet
77 141 m 1
 153 65 l 1
 389 65 l 1
 454 130 l 1
 454 319 l 1
 168 319 l 1
 168 384 l 1
 454 384 l 1
 454 570 l 1
 389 635 l 1
 164 635 l 1
 99 570 l 1
 99 485 l 1
 34 485 l 1
 34 597 l 1
 137 700 l 1
 416 700 l 1
 519 597 l 1
 519 103 l 1
 416 0 l 1
 125 0 l 1
 30 95 l 1
 77 141 l 1
EndSplineSet
Validated: 1
EndChar

StartChar: afii10048
Encoding: 1070 1070 186
Width: 865
Flags: MW
HStem: 0 65<458 668 458 692 434 668> 331 65<145 321 145 321> 635 65<458 668 458 458>
VStem: 80 65<0 331 396 700> 321 65<130 331 331 331 396 570 130 597 130 597> 740 65<130 570 570 570>
LayerCount: 2
Fore
SplineSet
434 700 m 1
 692 700 l 1
 805 597 l 1
 805 103 l 1
 692 0 l 1
 434 0 l 1
 321 103 l 1
 321 331 l 1
 145 331 l 1
 145 0 l 1
 80 0 l 1
 80 700 l 1
 145 700 l 1
 145 396 l 1
 321 396 l 1
 321 597 l 1
 434 700 l 1
740 570 m 1
 668 635 l 1
 458 635 l 1
 386 570 l 1
 386 130 l 1
 458 65 l 1
 668 65 l 1
 740 130 l 1
 740 570 l 1
EndSplineSet
Validated: 1
EndChar

StartChar: afii10049
Encoding: 1071 1071 187
Width: 609
Flags: MW
HStem: -20 20G<464 464 464 529> -10 21G<61 61> 266 65<175 236 147 464 313 464 313 313> 635 65<175 464 175 175>
VStem: 44 65<396 570 396 598 396 598> 464 65<0 266 266 266 331 635 635 635>
LayerCount: 2
Fore
SplineSet
464 0 m 1xbc
 464 266 l 1
 313 266 l 1
 163 24 l 1
 61 -10 l 1x7c
 40 52 l 1
 120 79 l 1
 236 266 l 1
 147 266 l 1
 44 368 l 1
 44 598 l 1
 147 700 l 1
 529 700 l 1
 529 0 l 1
 464 0 l 1xbc
464 635 m 1xbc
 175 635 l 1
 109 570 l 1
 109 396 l 1
 175 331 l 1
 464 331 l 1
 464 635 l 1xbc
EndSplineSet
Validated: 1
EndChar

StartChar: afii10065
Encoding: 1072 1072 188
Width: 551
Flags: MW
HStem: -8 21G<439 439> 0 65<160 341 160 367 133 341> 244 65<160 408 160 160> 468 65<171 363 171 171>
VStem: 50 65<109 200 109 227 109 227> 408 65<132 244 244 244 309 424 424 424>
LayerCount: 2
Fore
SplineSet
473 451 m 1x7c
 473 120 l 1
 501 7 l 1
 439 -8 l 1xbc
 423 56 l 1
 367 0 l 1
 133 0 l 1
 50 82 l 1
 50 227 l 1
 133 309 l 1
 408 309 l 1
 408 424 l 1
 363 468 l 1
 171 468 l 1
 84 438 l 1
 63 499 l 1
 164 533 l 1
 390 533 l 1
 473 451 l 1x7c
341 65 m 1x7c
 408 132 l 1
 408 244 l 1
 160 244 l 1
 115 200 l 1
 115 109 l 1
 160 65 l 1
 341 65 l 1x7c
EndSplineSet
Validated: 1
EndChar

StartChar: afii10066
Encoding: 1073 1073 189
Width: 559
Flags: MW
HStem: 0 65<169 378 169 405 142 378> 427 65<185 378 185 185> 779 20G<463 463>
VStem: 60 65<109 367 460 540> 422 65<109 383 383 383>
LayerCount: 2
Fore
SplineSet
125 460 m 1
 157 492 l 1
 405 492 l 1
 487 410 l 1
 487 82 l 1
 405 0 l 1
 142 0 l 1
 60 82 l 1
 60 568 l 1
 176 684 l 1
 384 720 l 1
 463 799 l 1
 509 752 l 1
 417 660 l 1
 209 624 l 1
 125 540 l 1
 125 460 l 1
125 367 m 1
 125 109 l 1
 169 65 l 1
 378 65 l 1
 422 109 l 1
 422 383 l 1
 378 427 l 1
 185 427 l 1
 125 367 l 1
EndSplineSet
Validated: 1
EndChar

StartChar: afii10067
Encoding: 1074 1074 190
Width: 532
Flags: MW
HStem: 0 65<125 373 125 401> 245 65<125 371 125 373> 468 65<125 373 125 125>
VStem: 60 65<65 245 310 468> 400 65<337 441 441 441> 417 65<109 200 200 200>
LayerCount: 2
Fore
SplineSet
465 468 m 1xf8
 465 309 l 1xf8
 433 277 l 1
 482 228 l 1
 482 81 l 1xf4
 401 0 l 1
 60 0 l 1
 60 533 l 1
 400 533 l 1
 465 468 l 1xf8
400 441 m 1
 373 468 l 1
 125 468 l 1
 125 310 l 1
 373 310 l 1
 400 337 l 1
 400 441 l 1
417 200 m 1xf4
 371 245 l 1
 125 245 l 1
 125 65 l 1
 373 65 l 1
 417 109 l 1
 417 200 l 1xf4
EndSplineSet
Validated: 1
EndChar

StartChar: afii10068
Encoding: 1075 1075 191
Width: 430
Flags: MW
HStem: 0 21G<60 126 60 60> 468 65<126 126 126 430>
VStem: 60 66<0 468 0 533 0 533>
LayerCount: 2
Fore
SplineSet
126 468 m 1
 126 0 l 1
 60 0 l 1
 60 533 l 1
 430 533 l 1
 430 468 l 1
 126 468 l 1
EndSplineSet
Validated: 1
EndChar

StartChar: afii10069
Encoding: 1076 1076 192
Width: 557
Flags: MW
HStem: -140 205<0 52 0 65 0 52 480 537> 0 65<127 415 0 65> 468 65<201 415 201 201>
VStem: 0 65<-140 0 -140 65> 415 65<65 468 468 468> 472 65<-140 0 0 0>
LayerCount: 2
Fore
SplineSet
472 0 m 1x74
 65 0 l 1x74
 65 -140 l 1
 0 -140 l 1
 0 65 l 1
 52 65 l 1
 98 142 l 1
 138 533 l 1
 480 533 l 1
 480 65 l 1xb8
 537 65 l 1
 537 -140 l 1
 472 -140 l 1xb4
 472 0 l 1x74
166 132 m 1
 127 65 l 1
 415 65 l 1
 415 468 l 1xb8
 201 468 l 1
 166 132 l 1
EndSplineSet
Validated: 1
EndChar

StartChar: afii10070
Encoding: 1077 1077 193
Width: 524
Flags: MW
HStem: 0 65<169 376 169 382 142 376> 223 65<125 373 125 400 125 373> 468 65<169 169 169 373>
VStem: 60 65<109 223 288 424> 417 65<332 424 424 424>
LayerCount: 2
Fore
SplineSet
376 65 m 1
 464 93 l 1
 484 32 l 1
 382 0 l 1
 142 0 l 1
 60 82 l 1
 60 451 l 1
 142 533 l 1
 400 533 l 1
 482 451 l 1
 482 304 l 1
 400 223 l 1
 125 223 l 1
 125 109 l 1
 169 65 l 1
 376 65 l 1
169 468 m 1
 125 424 l 1
 125 288 l 1
 373 288 l 1
 417 332 l 1
 417 424 l 1
 373 468 l 1
 169 468 l 1
EndSplineSet
Validated: 1
EndChar

StartChar: afii10072
Encoding: 1078 1078 194
Width: 709
Flags: MW
HStem: -20 20G<322 387 322 322> -10 21G<40 40 669 669> 233 65<267 322 267 322 266 322 387 442> 523 20G<40 40 669 669>
VStem: 322 65<0 233 0 233 298 533>
LayerCount: 2
Fore
SplineSet
387 233 m 1x78
 387 0 l 1
 322 0 l 1xb8
 322 233 l 1
 266 233 l 1
 119 32 l 1
 40 -10 l 1
 10 47 l 1
 72 80 l 1
 209 266 l 1
 72 453 l 1
 10 486 l 1
 40 543 l 1
 119 501 l 1
 267 298 l 1
 322 298 l 1
 322 533 l 1
 387 533 l 1
 387 298 l 1
 442 298 l 1
 590 501 l 1
 669 543 l 1
 699 486 l 1
 637 453 l 1
 500 266 l 1
 637 80 l 1
 699 47 l 1
 669 -10 l 1
 590 32 l 1
 443 233 l 1
 387 233 l 1x78
EndSplineSet
Validated: 1
EndChar

StartChar: afii10073
Encoding: 1079 1079 195
Width: 480
Flags: MW
HStem: 0 65<120 321 120 348 112 321> 240 65<121 320 121 323> 468 65<125 320 125 125>
VStem: 360 70
LayerCount: 2
Fore
SplineSet
425 317 m 1
 381 272 l 1
 430 223 l 1
 430 82 l 1
 348 0 l 1
 112 0 l 1
 10 32 l 1
 30 93 l 1
 120 65 l 1
 321 65 l 1
 365 109 l 1
 365 195 l 1
 320 240 l 1
 121 240 l 1
 121 305 l 1
 323 305 l 1
 360 341 l 1
 360 428 l 1
 320 468 l 1
 125 468 l 1
 100 460 60 446 37 439 c 1
 17 499 l 1
 118 533 l 1
 347 533 l 1
 425 455 l 1
 425 317 l 1
EndSplineSet
Validated: 1
EndChar

StartChar: afii10074
Encoding: 1080 1080 196
Width: 560
Flags: MW
HStem: 0 21G<79 150 79 79 435 435 435 500> 521 20G
VStem: 79 65<107 433 433 433> 435 65<0 426 426 426>
LayerCount: 2
Fore
SplineSet
150 0 m 1
 79 0 l 1
 79 433 l 1
 50 521 l 1
 111 541 l 1
 144 440 l 1
 144 107 l 1
 429 533 l 1
 500 533 l 1
 500 0 l 1
 435 0 l 1
 435 426 l 1
 150 0 l 1
EndSplineSet
Validated: 1
EndChar

StartChar: afii10075
Encoding: 1081 1081 197
Width: 560
Flags: MW
HStem: 0 21G<79 150 79 79 435 435 435 500> 610 65<206 373 206 400 179 373> 610 149<179 183 396 400 179 179>
VStem: 79 65<107 433 433 433> 118 65<698 759 698 759 698 759> 396 65<698 759> 435 65<0 426 426 426>
LayerCount: 2
Fore
SplineSet
461 670 m 1xb4
 400 610 l 1
 179 610 l 1
 118 670 l 1
 118 759 l 1
 183 759 l 1xac
 183 698 l 1
 206 675 l 1
 373 675 l 1xcc
 396 698 l 1
 396 759 l 1
 461 759 l 1
 461 670 l 1xb4
150 0 m 1
 79 0 l 1
 79 433 l 1
 50 521 l 1
 111 541 l 1
 144 440 l 1
 144 107 l 1
 429 533 l 1
 500 533 l 1
 500 0 l 1
 435 0 l 1
 435 426 l 1xd2
 150 0 l 1
EndSplineSet
Validated: 1
EndChar

StartChar: afii10076
Encoding: 1082 1082 198
Width: 486
Flags: MW
HStem: -20 20G<60 125 60 60> -10 21G<446 446> 233 65<125 219 125 220 125 219> 523 20G<446 446>
VStem: 60 65<0 233 298 533>
LayerCount: 2
Fore
SplineSet
125 533 m 1xb8
 125 298 l 1
 219 298 l 1
 367 501 l 1
 446 543 l 1
 476 486 l 1
 414 453 l 1
 277 266 l 1
 414 80 l 1
 476 47 l 1
 446 -10 l 1x78
 367 32 l 1
 220 233 l 1
 125 233 l 1
 125 0 l 1
 60 0 l 1
 60 533 l 1
 125 533 l 1xb8
EndSplineSet
Validated: 1
EndChar

StartChar: afii10077
Encoding: 1083 1083 199
Width: 553
Flags: MW
HStem: -20 20G<428 493 428 428> -10 21G<19 19> 468 65<212 428 212 212>
VStem: 428 65<0 468 468 468>
LayerCount: 2
Fore
SplineSet
493 533 m 1x70
 493 0 l 1
 428 0 l 1xb0
 428 468 l 1
 212 468 l 1
 172 84 l 1
 106 17 l 1
 19 -10 l 1
 0 53 l 1
 65 73 l 1
 109 118 l 1
 153 533 l 1
 493 533 l 1x70
EndSplineSet
Validated: 1
EndChar

StartChar: afii10078
Encoding: 1084 1084 200
Width: 666
Flags: MW
HStem: 0 21G<60 125 60 60 541 606 541 541> 513 20G<60 132 132 132 534 606 606 606>
VStem: 60 65<0 420 0 533> 541 65<0 420 420 420>
LayerCount: 2
Fore
SplineSet
333 201 m 1
 534 533 l 1
 606 533 l 1
 606 0 l 1
 541 0 l 1
 541 420 l 1
 362 126 l 1
 304 126 l 1
 125 420 l 1
 125 0 l 1
 60 0 l 1
 60 533 l 1
 132 533 l 1
 333 201 l 1
EndSplineSet
Validated: 1
EndChar

StartChar: afii10079
Encoding: 1085 1085 201
Width: 561
Flags: MW
HStem: 0 21G<79 79 79 144 436 436 436 501> 239 65<144 436 144 436> 521 20G
VStem: 79 65<0 239 304 433 433 433> 436 65<0 239 239 239 304 533 0 533>
LayerCount: 2
Fore
SplineSet
79 0 m 1
 79 433 l 1
 50 521 l 1
 111 541 l 1
 144 440 l 1
 144 304 l 1
 436 304 l 1
 436 533 l 1
 501 533 l 1
 501 0 l 1
 436 0 l 1
 436 239 l 1
 144 239 l 1
 144 0 l 1
 79 0 l 1
EndSplineSet
Validated: 1
EndChar

StartChar: afii10080
Encoding: 1086 1086 202
Width: 547
Flags: MW
HStem: 0 65<169 378 169 405 142 378> 468 65<169 378 169 169>
VStem: 60 65<110 423 110 450 110 450> 422 65<110 423 423 423>
LayerCount: 2
Fore
SplineSet
487 83 m 1
 405 0 l 1
 142 0 l 1
 60 83 l 1
 60 450 l 1
 142 533 l 1
 405 533 l 1
 487 450 l 1
 487 83 l 1
169 65 m 1
 378 65 l 1
 422 110 l 1
 422 423 l 1
 378 468 l 1
 169 468 l 1
 125 423 l 1
 125 110 l 1
 169 65 l 1
EndSplineSet
Validated: 1
EndChar

StartChar: afii10081
Encoding: 1087 1087 203
Width: 542
Flags: MW
HStem: 0 21G<60 125 60 60 417 417 417 482> 468 65<125 125 125 417>
VStem: 60 65<0 468 0 508 0 508> 417 65<0 468 468 468>
LayerCount: 2
Fore
SplineSet
125 468 m 1
 125 0 l 1
 60 0 l 1
 60 508 l 1
 85 533 l 1
 457 533 l 1
 482 508 l 1
 482 0 l 1
 417 0 l 1
 417 468 l 1
 125 468 l 1
EndSplineSet
Validated: 1
EndChar

StartChar: afii10082
Encoding: 1088 1088 204
Width: 560
Flags: MW
HStem: -168 21G<78 144 78 78> 0 65<203 392 203 419 175 392> 468 65<210 392 210 210> 521 20G<112 112>
VStem: 78 65<32 32 125 401> 435 65<108 425 425 425>
LayerCount: 2
Fore
SplineSet
143 125 m 1xec
 203 65 l 1
 392 65 l 1
 435 108 l 1
 435 425 l 1
 392 468 l 1
 210 468 l 1
 143 401 l 1
 143 125 l 1xec
143 32 m 1
 144 -168 l 1
 78 -168 l 1
 78 413 l 1
 50 526 l 1
 112 541 l 1xdc
 128 477 l 1
 184 533 l 1
 419 533 l 1
 500 452 l 1
 500 81 l 1
 419 0 l 1
 175 0 l 1
 143 32 l 1
EndSplineSet
Validated: 1
EndChar

StartChar: afii10083
Encoding: 1089 1089 205
Width: 514
Flags: MW
HStem: 0 65<168 376 168 382 142 376> 468 65<168 374 168 168>
VStem: 60 65<107 426 107 450 107 450> 417 65<340 426 426 426>
LayerCount: 2
Fore
SplineSet
376 65 m 1
 464 93 l 1
 484 32 l 1
 382 0 l 1
 142 0 l 1
 60 83 l 1
 60 450 l 1
 142 533 l 1
 400 533 l 1
 482 450 l 1
 482 340 l 1
 417 340 l 1
 417 426 l 1
 374 468 l 1
 168 468 l 1
 125 426 l 1
 125 107 l 1
 168 65 l 1
 376 65 l 1
EndSplineSet
Validated: 1
EndChar

StartChar: afii10084
Encoding: 1090 1090 206
Width: 421
Flags: MW
HStem: 0 21G<178 243 178 178> 468 65<0 178 0 421 243 421 243 243>
VStem: 178 65<0 468 0 468>
LayerCount: 2
Fore
SplineSet
0 533 m 1
 421 533 l 1
 421 468 l 1
 243 468 l 1
 243 0 l 1
 178 0 l 1
 178 468 l 1
 0 468 l 1
 0 533 l 1
EndSplineSet
Validated: 1
EndChar

StartChar: afii10085
Encoding: 1091 1091 207
Width: 493
Flags: MW
HStem: -168 65<86 189 86 214 86 189> -20 20G<223 241 223 223> 523 20G
LayerCount: 2
Fore
SplineSet
214 -168 m 1
 86 -168 l 1
 86 -103 l 1
 189 -103 l 1
 216 -76 l 1
 241 0 l 1
 223 0 l 1
 10 518 l 1
 72 543 l 1
 265 72 l 1
 422 543 l 1
 483 523 l 1
 273 -109 l 1
 214 -168 l 1
EndSplineSet
Validated: 1
EndChar

StartChar: afii10086
Encoding: 1092 1092 208
Width: 715
Flags: MW
HStem: -168 21G<325 390 325 325> 0 65<169 292 169 297 141 292 423 546> 468 65<169 292 169 169 423 423 423 546> 689 20G
VStem: 60 65<109 424 109 452 109 452> 325 65<-168 9 -168 9 76 456 523 601 601 601> 590 65<109 424 424 424>
CounterMasks: 1 0e
LayerCount: 2
Fore
SplineSet
325 523 m 1
 325 601 l 1
 296 689 l 1
 357 709 l 1
 390 608 l 1
 390 523 l 1
 418 533 l 1
 574 533 l 1
 655 452 l 1
 655 81 l 1
 574 0 l 1
 418 0 l 1
 390 9 l 1
 390 -168 l 1
 325 -168 l 1
 325 9 l 1
 297 0 l 1
 141 0 l 1
 60 81 l 1
 60 452 l 1
 141 533 l 1
 297 533 l 1
 325 523 l 1
325 76 m 1
 325 456 l 1
 292 468 l 1
 169 468 l 1
 125 424 l 1
 125 109 l 1
 169 65 l 1
 292 65 l 1
 325 76 l 1
390 456 m 1
 390 76 l 1
 423 65 l 1
 546 65 l 1
 590 109 l 1
 590 424 l 1
 546 468 l 1
 423 468 l 1
 390 456 l 1
EndSplineSet
Validated: 1
EndChar

StartChar: afii10087
Encoding: 1093 1093 209
Width: 452
Flags: MW
HStem: -10 21G<64 64 388 388> 523 20G<63 63 389 389>
LayerCount: 2
Fore
SplineSet
226 323 m 1
 389 543 l 1
 442 504 l 1
 266 266 l 1
 441 29 l 1
 388 -10 l 1
 226 209 l 1
 64 -10 l 1
 11 29 l 1
 186 266 l 1
 10 504 l 1
 63 543 l 1
 226 323 l 1
EndSplineSet
Validated: 1
EndChar

StartChar: afii10088
Encoding: 1094 1094 210
Width: 565
Flags: MW
HStem: -140 205<482 545 125 545 125 480> 0 65<125 417 125 480> 513 20G<60 125 125 125 417 482 482 482>
VStem: 60 65<65 533 65 533 65 533> 417 65<65 533 65 533> 480 65<-140 0 0 0>
LayerCount: 2
Fore
SplineSet
480 0 m 1x74
 60 0 l 1x74
 60 533 l 1
 125 533 l 1
 125 65 l 1
 417 65 l 1
 417 533 l 1
 482 533 l 1
 482 65 l 1xb8
 545 65 l 1
 545 -140 l 1
 480 -140 l 1xb4
 480 0 l 1x74
EndSplineSet
Validated: 1
EndChar

StartChar: afii10089
Encoding: 1095 1095 211
Width: 520
Flags: MW
HStem: 0 21G<395 460 395 395> 192 65<159 361 159 367 131 361> 513 20G<50 115 115 115 395 460 460 460>
VStem: 50 65<301 533 301 533 301 533> 395 65<0 200 200 200 268 533 0 533>
LayerCount: 2
Fore
SplineSet
395 268 m 1
 395 533 l 1
 460 533 l 1
 460 0 l 1
 395 0 l 1
 395 200 l 1
 367 192 l 1
 131 192 l 1
 50 273 l 1
 50 533 l 1
 115 533 l 1
 115 301 l 1
 159 257 l 1
 361 257 l 1
 395 268 l 1
EndSplineSet
Validated: 1
EndChar

StartChar: afii10090
Encoding: 1096 1096 212
Width: 813
Flags: MW
HStem: 0 65<125 374 439 688> 513 20G<60 125 125 125 374 439 439 439 688 753 753 753>
VStem: 60 65<65 533 65 533 65 533> 374 65<65 533 65 533> 688 65<65 533>
CounterMasks: 1 38
LayerCount: 2
Fore
SplineSet
753 0 m 1
 60 0 l 1
 60 533 l 1
 125 533 l 1
 125 65 l 1
 374 65 l 1
 374 533 l 1
 439 533 l 1
 439 65 l 1
 688 65 l 1
 688 533 l 1
 753 533 l 1
 753 0 l 1
EndSplineSet
Validated: 1
EndChar

StartChar: afii10091
Encoding: 1097 1097 213
Width: 836
Flags: MW
HStem: -140 205<753 816> 0 65<125 374 439 688> 513 20G<60 125 125 125 374 439 439 439 688 753 753 753>
VStem: 60 65<65 533 65 533 65 533> 374 65<65 533 65 533> 688 65<65 533 65 533> 751 65<-140 0 0 0>
LayerCount: 2
Fore
SplineSet
751 0 m 1x7a
 60 0 l 1x7a
 60 533 l 1
 125 533 l 1
 125 65 l 1
 374 65 l 1
 374 533 l 1
 439 533 l 1
 439 65 l 1
 688 65 l 1
 688 533 l 1
 753 533 l 1
 753 65 l 1xbc
 816 65 l 1
 816 -140 l 1
 751 -140 l 1xba
 751 0 l 1x7a
EndSplineSet
Validated: 1
EndChar

StartChar: afii10092
Encoding: 1098 1098 214
Width: 608
Flags: MW
HStem: 0 65<220 469 220 496> 263 65<220 469 220 496> 468 65<10 155 10 220>
VStem: 10 210<468 533> 155 65<65 263 328 468 468 468> 513 65<109 219 219 219>
LayerCount: 2
Fore
SplineSet
155 0 m 1xf4
 155 468 l 1xec
 10 468 l 1
 10 533 l 1
 220 533 l 1
 220 328 l 1
 496 328 l 1
 578 246 l 1
 578 82 l 1
 496 0 l 1
 155 0 l 1xf4
513 219 m 1
 469 263 l 1
 220 263 l 1
 220 65 l 1
 469 65 l 1
 513 109 l 1
 513 219 l 1
EndSplineSet
Validated: 1
EndChar

StartChar: afii10093
Encoding: 1099 1099 215
Width: 693
Flags: MW
HStem: 0 65<125 374 125 401> 263 65<125 374 125 401> 513 20G<60 125 125 125 568 633 633 633>
VStem: 60 65<65 263 328 533> 418 65<109 219 219 219> 568 65<0 533 0 533>
LayerCount: 2
Fore
SplineSet
633 533 m 1
 633 0 l 1
 568 0 l 1
 568 533 l 1
 633 533 l 1
60 0 m 1
 60 533 l 1
 125 533 l 1
 125 328 l 1
 401 328 l 1
 483 246 l 1
 483 82 l 1
 401 0 l 1
 60 0 l 1
418 219 m 1
 374 263 l 1
 125 263 l 1
 125 65 l 1
 374 65 l 1
 418 109 l 1
 418 219 l 1
EndSplineSet
Validated: 1
EndChar

StartChar: afii10094
Encoding: 1100 1100 216
Width: 513
Flags: MW
HStem: 0 65<125 374 125 401> 263 65<125 374 125 401> 513 20G<60 125 125 125>
VStem: 60 65<65 263 328 533> 418 65<109 219 219 219>
LayerCount: 2
Fore
SplineSet
60 0 m 1
 60 533 l 1
 125 533 l 1
 125 328 l 1
 401 328 l 1
 483 246 l 1
 483 82 l 1
 401 0 l 1
 60 0 l 1
418 219 m 1
 374 263 l 1
 125 263 l 1
 125 65 l 1
 374 65 l 1
 418 109 l 1
 418 219 l 1
EndSplineSet
Validated: 1
EndChar

StartChar: afii10095
Encoding: 1101 1101 217
Width: 514
Flags: MW
HStem: 0 65<138 346 138 372 132 346> 232 66<139 389 139 389> 468 65<140 346 140 140>
VStem: 32 65<340 426 340 450 340 450> 389 65<107 232 232 232 298 426 426 426>
LayerCount: 2
Fore
SplineSet
50 93 m 1
 138 65 l 1
 346 65 l 1
 389 107 l 1
 389 232 l 1
 139 232 l 1
 139 298 l 1
 389 298 l 1
 389 426 l 1
 346 468 l 1
 140 468 l 1
 97 426 l 1
 97 340 l 1
 32 340 l 1
 32 450 l 1
 114 533 l 1
 372 533 l 1
 454 450 l 1
 454 83 l 1
 372 0 l 1
 132 0 l 1
 30 32 l 1
 50 93 l 1
EndSplineSet
Validated: 1
EndChar

StartChar: afii10096
Encoding: 1102 1102 218
Width: 715
Flags: MW
HStem: 0 65<347 546 347 573 320 546> 239 65<125 238 125 238> 468 65<347 546 347 347>
VStem: 60 65<0 239 304 533> 238 65<109 239 239 239 304 424 109 450 109 450> 590 65<109 424 424 424>
LayerCount: 2
Fore
SplineSet
655 83 m 1
 573 0 l 1
 320 0 l 1
 238 83 l 1
 238 239 l 1
 125 239 l 1
 125 0 l 1
 60 0 l 1
 60 533 l 1
 125 533 l 1
 125 304 l 1
 238 304 l 1
 238 450 l 1
 320 533 l 1
 573 533 l 1
 655 450 l 1
 655 83 l 1
347 65 m 1
 546 65 l 1
 590 109 l 1
 590 424 l 1
 546 468 l 1
 347 468 l 1
 303 424 l 1
 303 109 l 1
 347 65 l 1
EndSplineSet
Validated: 1
EndChar

StartChar: afii10097
Encoding: 1103 1103 219
Width: 517
Flags: MW
HStem: -20 20G<392 457 392 392> -10 21G<60 60> 210 65<142 187 116 392 270 392 270 270> 468 65<142 392 142 142>
VStem: 35 65<318 425 318 453 318 453> 392 65<0 210 210 210 275 468 468 468>
LayerCount: 2
Fore
SplineSet
392 210 m 1xbc
 270 210 l 1
 137 31 l 1
 60 -10 l 1x7c
 30 47 l 1
 90 79 l 1
 187 210 l 1
 116 210 l 1
 35 290 l 1
 35 453 l 1
 116 533 l 1
 457 533 l 1
 457 0 l 1
 392 0 l 1
 392 210 l 1xbc
142 275 m 1
 392 275 l 1
 392 468 l 1
 142 468 l 1
 100 425 l 1
 100 318 l 1
 142 275 l 1
EndSplineSet
Validated: 1
EndChar

StartChar: odieresis
Encoding: 246 246 221
Width: 547
Flags: MW
HStem: 0 65<169 378 169 405 142 378> 468 65<169 378 169 169> 605 90<162 204 162 204 342 384>
VStem: 60 65<110 423 110 450 110 450> 422 65<110 423 423 423>
LayerCount: 2
Fore
SplineSet
487 83 m 1
 405 0 l 1
 142 0 l 1
 60 83 l 1
 60 450 l 1
 142 533 l 1
 405 533 l 1
 487 450 l 1
 487 83 l 1
169 65 m 1
 378 65 l 1
 422 110 l 1
 422 423 l 1
 378 468 l 1
 169 468 l 1
 125 423 l 1
 125 110 l 1
 169 65 l 1
162 605 m 1
 138 629 l 1
 138 671 l 1
 162 695 l 1
 204 695 l 1
 228 671 l 1
 228 629 l 1
 204 605 l 1
 162 605 l 1
342 605 m 1
 318 629 l 1
 318 671 l 1
 342 695 l 1
 384 695 l 1
 408 671 l 1
 408 629 l 1
 384 605 l 1
 342 605 l 1
EndSplineSet
Validated: 1
EndChar

StartChar: udieresis
Encoding: 252 252 222
Width: 561
Flags: MW
HStem: -8 21G<449 449> 0 65<170 351 170 377 142 351> 585 90<160 202 160 202 340 382>
VStem: 60 65<110 533 110 533 110 533> 418 65<132 533 120 533>
LayerCount: 2
Fore
SplineSet
483 533 m 1x78
 483 120 l 1
 511 7 l 1
 449 -8 l 1xb8
 433 56 l 1
 377 0 l 1
 142 0 l 1
 60 82 l 1
 60 533 l 1
 125 533 l 1
 125 110 l 1
 170 65 l 1
 351 65 l 1
 418 132 l 1
 418 533 l 1
 483 533 l 1x78
160 585 m 1
 136 609 l 1
 136 651 l 1
 160 675 l 1
 202 675 l 1
 226 651 l 1
 226 609 l 1
 202 585 l 1
 160 585 l 1
340 585 m 1
 316 609 l 1
 316 651 l 1
 340 675 l 1
 382 675 l 1
 406 651 l 1
 406 609 l 1
 382 585 l 1
 340 585 l 1
EndSplineSet
Validated: 1
EndChar

StartChar: Odieresis
Encoding: 214 214 223
Width: 635
Flags: MW
HStem: 0 65<197 438 197 462 173 438> 635 65<197 438 197 197> 788 90<207 249 207 249 387 429>
VStem: 60 65<130 570 130 597 130 597> 510 65<130 570 570 570>
LayerCount: 2
Fore
SplineSet
173 700 m 1
 462 700 l 1
 575 597 l 1
 575 103 l 1
 462 0 l 1
 173 0 l 1
 60 103 l 1
 60 597 l 1
 173 700 l 1
510 570 m 1
 438 635 l 1
 197 635 l 1
 125 570 l 1
 125 130 l 1
 197 65 l 1
 438 65 l 1
 510 130 l 1
 510 570 l 1
207 788 m 1
 183 812 l 1
 183 854 l 1
 207 878 l 1
 249 878 l 1
 273 854 l 1
 273 812 l 1
 249 788 l 1
 207 788 l 1
387 788 m 1
 363 812 l 1
 363 854 l 1
 387 878 l 1
 429 878 l 1
 453 854 l 1
 453 812 l 1
 429 788 l 1
 387 788 l 1
EndSplineSet
Validated: 1
EndChar

StartChar: Udieresis
Encoding: 220 220 224
Width: 625
Flags: MW
HStem: 0 65<173 424 201 424 201 452> 768 90<202 244 202 244 382 424>
VStem: 70 65<130 700 130 700 130 700> 490 65<130 700 102 700>
LayerCount: 2
Fore
SplineSet
173 0 m 1
 70 102 l 1
 70 700 l 1
 135 700 l 1
 135 130 l 1
 201 65 l 1
 424 65 l 1
 490 130 l 1
 490 700 l 1
 555 700 l 1
 555 102 l 1
 452 0 l 1
 173 0 l 1
202 768 m 1
 178 792 l 1
 178 834 l 1
 202 858 l 1
 244 858 l 1
 268 834 l 1
 268 792 l 1
 244 768 l 1
 202 768 l 1
382 768 m 1
 358 792 l 1
 358 834 l 1
 382 858 l 1
 424 858 l 1
 448 834 l 1
 448 792 l 1
 424 768 l 1
 382 768 l 1
EndSplineSet
Validated: 1
EndChar

StartChar: Tcommaaccent
Encoding: 354 354 225
Width: 505
Flags: MW
HStem: -285 21G<165 165 165 210> -45 45<220 285 220 295 220 295> 635 65<0 220 0 505 285 505 285 285>
VStem: 220 65<-45 635 0 635 0 635>
LayerCount: 2
Fore
SplineSet
285 635 m 1
 285 0 l 1
 220 0 l 1
 220 635 l 1
 0 635 l 1
 0 700 l 1
 505 700 l 1
 505 635 l 1
 285 635 l 1
165 -285 m 1
 220 -45 l 1
 295 -45 l 1
 210 -285 l 1
 165 -285 l 1
EndSplineSet
Validated: 1
EndChar

StartChar: tcommaaccent
Encoding: 355 355 226
Width: 428
Flags: MW
HStem: -285 21G<180 180 180 225> -45 45<235 310 310 310> 650 20G<115 180 180 180>
VStem: 115 65<109 445 510 670>
LayerCount: 2
Fore
SplineSet
115 445 m 1
 20 445 l 1
 20 510 l 1
 115 510 l 1
 115 670 l 1
 180 670 l 1
 180 510 l 1
 350 510 l 1
 350 445 l 1
 180 445 l 1
 180 109 l 1
 224 65 l 1
 318 65 l 1
 408 93 l 1
 428 32 l 1
 326 0 l 1
 197 0 l 1
 115 82 l 1
 115 445 l 1
180 -285 m 1
 235 -45 l 1
 310 -45 l 1
 225 -285 l 1
 180 -285 l 1
EndSplineSet
Validated: 1
EndChar

StartChar: zdotaccent
Encoding: 380 380 227
Width: 452
Flags: MW
HStem: 0 65<106 430 106 430> 468 65<22 346 22 432 22 432> 675 20G<211 253 253 253>
LayerCount: 2
Fore
SplineSet
346 468 m 1
 22 468 l 1
 22 533 l 1
 432 533 l 1
 432 468 l 1
 106 65 l 1
 430 65 l 1
 430 0 l 1
 20 0 l 1
 20 64 l 1
 346 468 l 1
211 605 m 1
 187 629 l 1
 187 671 l 1
 211 695 l 1
 253 695 l 1
 277 671 l 1
 277 629 l 1
 253 605 l 1
 211 605 l 1
EndSplineSet
Validated: 1
EndChar

StartChar: Zdotaccent
Encoding: 379 379 228
Width: 515
Flags: MW
HStem: 0 65<106 490 106 490> 635 65<25 409 25 495> 845 20G<244 286 286 286>
LayerCount: 2
Fore
SplineSet
106 65 m 1
 490 65 l 1
 490 0 l 1
 20 0 l 1
 20 62 l 1
 409 635 l 1
 25 635 l 1
 25 700 l 1
 495 700 l 1
 495 636 l 1
 106 65 l 1
244 775 m 1
 220 799 l 1
 220 841 l 1
 244 865 l 1
 286 865 l 1
 310 841 l 1
 310 799 l 1
 286 775 l 1
 244 775 l 1
EndSplineSet
Validated: 1
EndChar

StartChar: Adieresis
Encoding: 196 196 229
Width: 578
Flags: MW
HStem: -10 21G<83 83 495 495> 212 65<155 402 176 402 176 423> 768 90<178 220 178 220 358 400>
LayerCount: 2
Fore
SplineSet
155 212 m 1
 83 -10 l 1
 20 10 l 1
 243 700 l 1
 335 700 l 1
 558 10 l 1
 495 -10 l 1
 423 212 l 1
 155 212 l 1
176 277 m 1
 402 277 l 1
 289 627 l 1
 176 277 l 1
178 768 m 1
 154 792 l 1
 154 834 l 1
 178 858 l 1
 220 858 l 1
 244 834 l 1
 244 792 l 1
 220 768 l 1
 178 768 l 1
358 768 m 1
 334 792 l 1
 334 834 l 1
 358 858 l 1
 400 858 l 1
 424 834 l 1
 424 792 l 1
 400 768 l 1
 358 768 l 1
EndSplineSet
Validated: 1
EndChar

StartChar: scommaaccent
Encoding: 537 537 230
Width: 477
Flags: MW
HStem: -285 21G<155 155 155 200> -45 45<210 285 285 285> 0 65<139 335 139 363 131 335> 468 65<142 339 142 142>
VStem: 380 65<110 170 170 170>
LayerCount: 2
Fore
SplineSet
380 170 m 1xb8
 369 192 l 1
 63 300 l 1
 32 360 l 1
 32 451 l 1
 114 533 l 1
 346 533 l 1
 447 499 l 1
 426 438 l 1
 339 468 l 1
 142 468 l 1
 97 423 l 1
 97 376 l 1
 108 353 l 1
 414 245 l 1
 445 186 l 1
 445 82 l 1
 363 0 l 1
 131 0 l 1
 30 32 l 1
 50 94 l 1
 139 65 l 1
 335 65 l 1
 380 110 l 1
 380 170 l 1xb8
155 -285 m 1
 210 -45 l 1
 285 -45 l 1xd8
 200 -285 l 1
 155 -285 l 1
EndSplineSet
Validated: 1
EndChar

StartChar: Scommaaccent
Encoding: 536 536 231
Width: 544
Flags: MW
HStem: -285 21G<180 180 180 225> -45 45<235 310 310 310> 0 65<150 375 150 402 143 375> 635 65<169 392 169 169>
VStem: 40 65<499 571 499 598 499 598> 439 65<129 224 224 224>
LayerCount: 2
Fore
SplineSet
392 635 m 1xbc
 169 635 l 1
 105 571 l 1
 105 499 l 1
 117 474 l 1
 473 301 l 1
 504 243 l 1
 504 102 l 1
 402 0 l 1
 143 0 l 1
 42 34 l 1
 63 95 l 1
 150 65 l 1
 375 65 l 1
 439 129 l 1
 439 224 l 1
 425 250 l 1
 67 424 l 1
 40 480 l 1
 40 598 l 1
 142 700 l 1
 404 700 l 1
 502 667 l 1
 482 607 l 1
 392 635 l 1xbc
180 -285 m 1
 235 -45 l 1
 310 -45 l 1xdc
 225 -285 l 1
 180 -285 l 1
EndSplineSet
Validated: 1
EndChar

StartChar: adieresis
Encoding: 228 228 232
Width: 551
Flags: MW
HStem: -8 21G<439 439> 0 65<160 341 160 367 133 341> 244 65<160 408 160 160> 468 65<171 363 171 171> 605 90<168 210 168 210 348 390>
VStem: 50 65<109 200 109 227 109 227> 408 65<132 244 244 244 309 424 424 424>
LayerCount: 2
Fore
SplineSet
473 451 m 1x7e
 473 120 l 1
 501 7 l 1
 439 -8 l 1xbe
 423 56 l 1
 367 0 l 1
 133 0 l 1
 50 82 l 1
 50 227 l 1
 133 309 l 1
 408 309 l 1
 408 424 l 1
 363 468 l 1
 171 468 l 1
 84 438 l 1
 63 499 l 1
 164 533 l 1
 390 533 l 1
 473 451 l 1x7e
341 65 m 1x7e
 408 132 l 1
 408 244 l 1
 160 244 l 1
 115 200 l 1
 115 109 l 1
 160 65 l 1
 341 65 l 1x7e
168 605 m 1
 144 629 l 1
 144 671 l 1
 168 695 l 1
 210 695 l 1
 234 671 l 1
 234 629 l 1
 210 605 l 1
 168 605 l 1
348 605 m 1
 324 629 l 1
 324 671 l 1
 348 695 l 1
 390 695 l 1
 414 671 l 1
 414 629 l 1
 390 605 l 1
 348 605 l 1
EndSplineSet
Validated: 1
EndChar

StartChar: Edieresis
Encoding: 203 203 233
Width: 533
Flags: MW
HStem: 0 65<145 513 145 513> 338 65<145 471 145 471> 635 65<145 513 145 145> 788 90<190 232 190 232 370 412>
VStem: 80 65<65 338 403 635>
LayerCount: 2
Fore
SplineSet
80 0 m 1
 80 700 l 1
 513 700 l 1
 513 635 l 1
 145 635 l 1
 145 403 l 1
 471 403 l 1
 471 338 l 1
 145 338 l 1
 145 65 l 1
 513 65 l 1
 513 0 l 1
 80 0 l 1
190 788 m 1
 166 812 l 1
 166 854 l 1
 190 878 l 1
 232 878 l 1
 256 854 l 1
 256 812 l 1
 232 788 l 1
 190 788 l 1
370 788 m 1
 346 812 l 1
 346 854 l 1
 370 878 l 1
 412 878 l 1
 436 854 l 1
 436 812 l 1
 412 788 l 1
 370 788 l 1
EndSplineSet
Validated: 1
EndChar

StartChar: edieresis
Encoding: 235 235 234
Width: 524
Flags: MW
HStem: 0 65<169 376 169 382 142 376> 223 65<125 373 125 400 125 373> 468 65<169 169 169 373> 605 90<160 202 160 202 340 382>
VStem: 60 65<109 223 288 424> 417 65<332 424 424 424>
LayerCount: 2
Fore
SplineSet
376 65 m 1
 464 93 l 1
 484 32 l 1
 382 0 l 1
 142 0 l 1
 60 82 l 1
 60 451 l 1
 142 533 l 1
 400 533 l 1
 482 451 l 1
 482 304 l 1
 400 223 l 1
 125 223 l 1
 125 109 l 1
 169 65 l 1
 376 65 l 1
169 468 m 1
 125 424 l 1
 125 288 l 1
 373 288 l 1
 417 332 l 1
 417 424 l 1
 373 468 l 1
 169 468 l 1
160 605 m 1
 136 629 l 1
 136 671 l 1
 160 695 l 1
 202 695 l 1
 226 671 l 1
 226 629 l 1
 202 605 l 1
 160 605 l 1
340 605 m 1
 316 629 l 1
 316 671 l 1
 340 695 l 1
 382 695 l 1
 406 671 l 1
 406 629 l 1
 382 605 l 1
 340 605 l 1
EndSplineSet
Validated: 1
EndChar

StartChar: dcroat
Encoding: 273 273 235
Width: 560
Flags: MW
HStem: -8 21G<448 448> 0 65<168 350 168 376 141 350> 388 65<168 357 168 168> 524 65<248 417 248 417 482 567> 680 20G<417 482 482 482>
VStem: 60 65<108 345 108 372 108 372> 417 65<132 328 328 328 421 524 120 524 589 700>
LayerCount: 2
Fore
SplineSet
248 589 m 1x7e
 417 589 l 1
 417 700 l 1
 482 700 l 1
 482 589 l 1
 567 589 l 1
 567 524 l 1
 482 524 l 1
 482 120 l 1
 510 7 l 1
 448 -8 l 1xbe
 432 56 l 1
 376 0 l 1
 141 0 l 1
 60 81 l 1
 60 372 l 1
 141 453 l 1
 385 453 l 1
 417 421 l 1
 417 524 l 1
 248 524 l 1
 248 589 l 1x7e
417 328 m 1
 357 388 l 1
 168 388 l 1
 125 345 l 1
 125 108 l 1
 168 65 l 1
 350 65 l 1x7e
 417 132 l 1
 417 328 l 1
EndSplineSet
Validated: 1
EndChar

StartChar: Dcroat
Encoding: 272 272 236
Width: 626
Flags: MW
HStem: 0 65<145 436 145 463> 318 65<-5 80 -5 80 145 314> 635 65<145 436 145 145>
VStem: 80 65<65 318 65 318 65 318 383 635> 501 65<131 569 569 569>
LayerCount: 2
Fore
SplineSet
-5 383 m 1
 80 383 l 1
 80 700 l 1
 463 700 l 1
 566 596 l 1
 566 104 l 1
 463 0 l 1
 80 0 l 1
 80 318 l 1
 -5 318 l 1
 -5 383 l 1
501 569 m 1
 436 635 l 1
 145 635 l 1
 145 383 l 1
 314 383 l 1
 314 318 l 1
 145 318 l 1
 145 65 l 1
 436 65 l 1
 501 131 l 1
 501 569 l 1
EndSplineSet
Validated: 1
EndChar

StartChar: abreve
Encoding: 259 259 237
Width: 551
Flags: MW
HStem: -8 21G<439 439> 0 65<160 341 160 367 133 341> 244 65<160 408 160 160> 468 65<171 363 171 171> 610 65<213 340 213 367 186 340> 610 149<186 190 363 367 186 186>
VStem: 50 65<109 200 109 227 109 227> 125 65<698 759 698 759 698 759> 363 65<698 759> 408 65<132 244 244 244 309 424 424 424>
LayerCount: 2
Fore
SplineSet
473 451 m 1x7b40
 473 120 l 1
 501 7 l 1
 439 -8 l 1xbb40
 423 56 l 1
 367 0 l 1
 133 0 l 1
 50 82 l 1
 50 227 l 1
 133 309 l 1
 408 309 l 1
 408 424 l 1x7b40
 363 468 l 1x7b80
 171 468 l 1
 84 438 l 1
 63 499 l 1
 164 533 l 1
 390 533 l 1
 473 451 l 1x7b40
341 65 m 1x7b40
 408 132 l 1
 408 244 l 1
 160 244 l 1
 115 200 l 1
 115 109 l 1
 160 65 l 1
 341 65 l 1x7b40
428 670 m 1x7780
 367 610 l 1
 186 610 l 1
 125 670 l 1
 125 759 l 1
 190 759 l 1x7780
 190 698 l 1
 213 675 l 1
 340 675 l 1x7b80
 363 698 l 1
 363 759 l 1
 428 759 l 1
 428 670 l 1x7780
EndSplineSet
Validated: 1
EndChar

StartChar: Abreve
Encoding: 258 258 238
Width: 578
Flags: MW
HStem: -10 21G<83 83 495 495> 212 65<155 402 176 402 176 423> 772 65<220 358 220 385 193 358> 772 149<193 197 381 385 193 193>
VStem: 132 65<860 921 860 921 860 921> 381 65<860 921>
LayerCount: 2
Fore
SplineSet
155 212 m 1xdc
 83 -10 l 1
 20 10 l 1
 243 700 l 1
 335 700 l 1
 558 10 l 1
 495 -10 l 1
 423 212 l 1
 155 212 l 1xdc
176 277 m 1
 402 277 l 1
 289 627 l 1
 176 277 l 1
446 832 m 1
 385 772 l 1
 193 772 l 1
 132 832 l 1
 132 921 l 1
 197 921 l 1xdc
 197 860 l 1
 220 837 l 1
 358 837 l 1xec
 381 860 l 1
 381 921 l 1
 446 921 l 1
 446 832 l 1
EndSplineSet
Validated: 1
EndChar

StartChar: Sacute
Encoding: 346 346 239
Width: 544
Flags: MW
HStem: 0 65<150 375 150 402 143 375> 635 65<169 392 169 169> 935 20G<351 430 430 430>
VStem: 40 65<499 571 499 598 499 598> 439 65<129 224 224 224>
LayerCount: 2
Fore
SplineSet
392 635 m 1
 169 635 l 1
 105 571 l 1
 105 499 l 1
 117 474 l 1
 473 301 l 1
 504 243 l 1
 504 102 l 1
 402 0 l 1
 143 0 l 1
 42 34 l 1
 63 95 l 1
 150 65 l 1
 375 65 l 1
 439 129 l 1
 439 224 l 1
 425 250 l 1
 67 424 l 1
 40 480 l 1
 40 598 l 1
 142 700 l 1
 404 700 l 1
 502 667 l 1
 482 607 l 1
 392 635 l 1
223 755 m 1
 351 955 l 1
 430 955 l 1
 279 755 l 1
 223 755 l 1
EndSplineSet
Validated: 1
EndChar

StartChar: Zacute
Encoding: 377 377 240
Width: 515
Flags: MW
HStem: 0 65<106 490 106 490> 635 65<25 409 25 495> 935 20G<349 428 428 428>
LayerCount: 2
Fore
SplineSet
106 65 m 1
 490 65 l 1
 490 0 l 1
 20 0 l 1
 20 62 l 1
 409 635 l 1
 25 635 l 1
 25 700 l 1
 495 700 l 1
 495 636 l 1
 106 65 l 1
221 755 m 1
 349 955 l 1
 428 955 l 1
 277 755 l 1
 221 755 l 1
EndSplineSet
Validated: 1
EndChar

StartChar: sacute
Encoding: 347 347 241
Width: 477
Flags: MW
HStem: 0 65<139 335 139 363 131 335> 468 65<142 339 142 142> 758 20G<332 411 411 411>
VStem: 380 65<110 170 170 170>
LayerCount: 2
Fore
SplineSet
380 170 m 1
 369 192 l 1
 63 300 l 1
 32 360 l 1
 32 451 l 1
 114 533 l 1
 346 533 l 1
 447 499 l 1
 426 438 l 1
 339 468 l 1
 142 468 l 1
 97 423 l 1
 97 376 l 1
 108 353 l 1
 414 245 l 1
 445 186 l 1
 445 82 l 1
 363 0 l 1
 131 0 l 1
 30 32 l 1
 50 94 l 1
 139 65 l 1
 335 65 l 1
 380 110 l 1
 380 170 l 1
204 578 m 1
 332 778 l 1
 411 778 l 1
 260 578 l 1
 204 578 l 1
EndSplineSet
Validated: 1
EndChar

StartChar: zacute
Encoding: 378 378 242
Width: 452
Flags: MW
HStem: 0 65<106 430 106 430> 468 65<22 346 22 432 22 432> 758 20G<323 402 402 402>
LayerCount: 2
Fore
SplineSet
346 468 m 1
 22 468 l 1
 22 533 l 1
 432 533 l 1
 432 468 l 1
 106 65 l 1
 430 65 l 1
 430 0 l 1
 20 0 l 1
 20 64 l 1
 346 468 l 1
195 578 m 1
 323 778 l 1
 402 778 l 1
 251 578 l 1
 195 578 l 1
EndSplineSet
Validated: 1
EndChar

StartChar: Aacute
Encoding: 193 193 243
Width: 578
Flags: MW
HStem: -10 21G<83 83 495 495> 212 65<155 402 176 402 176 423> 925 20G<371 450 450 450>
LayerCount: 2
Fore
SplineSet
155 212 m 1
 83 -10 l 1
 20 10 l 1
 243 700 l 1
 335 700 l 1
 558 10 l 1
 495 -10 l 1
 423 212 l 1
 155 212 l 1
176 277 m 1
 402 277 l 1
 289 627 l 1
 176 277 l 1
243 745 m 1
 371 945 l 1
 450 945 l 1
 299 745 l 1
 243 745 l 1
EndSplineSet
Validated: 1
EndChar

StartChar: Racute
Encoding: 340 340 244
Width: 605
Flags: MW
HStem: -20 20G<80 145 80 80> -15 21G<517 517> 274 65<145 434 145 229 321 321 321 434 145 462> 635 65<145 434 145 145> 935 20G<382 461 461 461>
VStem: 80 65<0 274 339 635> 500 65<404 570 570 570>
LayerCount: 2
Fore
SplineSet
145 274 m 1x7e
 145 0 l 1
 80 0 l 1xbe
 80 700 l 1
 462 700 l 1
 565 598 l 1
 565 376 l 1
 462 274 l 1
 321 274 l 1
 563 32 l 1
 517 -15 l 1
 229 274 l 1
 145 274 l 1x7e
434 635 m 1
 145 635 l 1
 145 339 l 1
 434 339 l 1
 500 404 l 1
 500 570 l 1
 434 635 l 1
254 755 m 1
 382 955 l 1
 461 955 l 1
 310 755 l 1
 254 755 l 1
EndSplineSet
Validated: 1
EndChar

StartChar: Lacute
Encoding: 313 313 245
Width: 513
Flags: MW
HStem: 0 65<145 513 145 513> 925 20G<208 287 287 287>
VStem: 80 65<65 700 65 700 65 700 65 745>
LayerCount: 2
Fore
SplineSet
80 0 m 1
 80 700 l 1
 145 700 l 1
 145 65 l 1
 513 65 l 1
 513 0 l 1
 80 0 l 1
80 745 m 1
 208 945 l 1
 287 945 l 1
 136 745 l 1
 80 745 l 1
EndSplineSet
Validated: 1
EndChar

StartChar: Cacute
Encoding: 262 262 246
Width: 579
Flags: MW
HStem: 0 65<190 426 190 454 163 426> 635 65<190 415 190 190> 935 20G<395 474 474 474>
VStem: 60 65<130 570 130 597 130 597> 480 65<485 570 570 570>
LayerCount: 2
Fore
SplineSet
426 65 m 1
 502 141 l 1
 549 95 l 1
 454 0 l 1
 163 0 l 1
 60 103 l 1
 60 597 l 1
 163 700 l 1
 442 700 l 1
 545 597 l 1
 545 485 l 1
 480 485 l 1
 480 570 l 1
 415 635 l 1
 190 635 l 1
 125 570 l 1
 125 130 l 1
 190 65 l 1
 426 65 l 1
267 755 m 1
 395 955 l 1
 474 955 l 1
 323 755 l 1
 267 755 l 1
EndSplineSet
Validated: 1
EndChar

StartChar: Eacute
Encoding: 201 201 247
Width: 533
Flags: MW
HStem: 0 65<145 513 145 513> 338 65<145 471 145 471> 635 65<145 513 145 145> 935 20G<394 473 473 473>
VStem: 80 65<65 338 403 635>
LayerCount: 2
Fore
SplineSet
80 0 m 1
 80 700 l 1
 513 700 l 1
 513 635 l 1
 145 635 l 1
 145 403 l 1
 471 403 l 1
 471 338 l 1
 145 338 l 1
 145 65 l 1
 513 65 l 1
 513 0 l 1
 80 0 l 1
266 755 m 1
 394 955 l 1
 473 955 l 1
 322 755 l 1
 266 755 l 1
EndSplineSet
Validated: 1
EndChar

StartChar: Iacute
Encoding: 205 205 248
Width: 357
Flags: MW
HStem: 0 65<30 146 211 327 30 146> 635 65<30 146 30 327 211 211 211 327> 935 20G<270 349 349 349>
VStem: 146 65<65 635 65 635>
LayerCount: 2
Fore
SplineSet
327 0 m 1
 30 0 l 1
 30 65 l 1
 146 65 l 1
 146 635 l 1
 30 635 l 1
 30 700 l 1
 327 700 l 1
 327 635 l 1
 211 635 l 1
 211 65 l 1
 327 65 l 1
 327 0 l 1
142 755 m 1
 270 955 l 1
 349 955 l 1
 198 755 l 1
 142 755 l 1
EndSplineSet
Validated: 1
EndChar

StartChar: Nacute
Encoding: 323 323 249
Width: 646
Flags: MW
HStem: 0 21G<80 145 80 80 493 566 493 493> 915 20G<412 491 491 491>
VStem: 80 65<0 587 0 700> 501 65<113 700 0 700>
LayerCount: 2
Fore
SplineSet
493 0 m 1
 145 587 l 1
 145 0 l 1
 80 0 l 1
 80 700 l 1
 153 700 l 1
 501 113 l 1
 501 700 l 1
 566 700 l 1
 566 0 l 1
 493 0 l 1
284 735 m 1
 412 935 l 1
 491 935 l 1
 340 735 l 1
 284 735 l 1
EndSplineSet
Validated: 1
EndChar

StartChar: Oacute
Encoding: 211 211 250
Width: 635
Flags: MW
HStem: 0 65<197 438 197 462 173 438> 635 65<197 438 197 197> 935 20G<409 488 488 488>
VStem: 60 65<130 570 130 597 130 597> 510 65<130 570 570 570>
LayerCount: 2
Fore
SplineSet
173 700 m 1
 462 700 l 1
 575 597 l 1
 575 103 l 1
 462 0 l 1
 173 0 l 1
 60 103 l 1
 60 597 l 1
 173 700 l 1
510 570 m 1
 438 635 l 1
 197 635 l 1
 125 570 l 1
 125 130 l 1
 197 65 l 1
 438 65 l 1
 510 130 l 1
 510 570 l 1
281 755 m 1
 409 955 l 1
 488 955 l 1
 337 755 l 1
 281 755 l 1
EndSplineSet
Validated: 1
EndChar

StartChar: Uacute
Encoding: 218 218 251
Width: 625
Flags: MW
HStem: 0 65<173 424 201 424 201 452> 915 20G<403 482 482 482>
VStem: 70 65<130 700 130 700 130 700> 490 65<130 700 102 700>
LayerCount: 2
Fore
SplineSet
173 0 m 1
 70 102 l 1
 70 700 l 1
 135 700 l 1
 135 130 l 1
 201 65 l 1
 424 65 l 1
 490 130 l 1
 490 700 l 1
 555 700 l 1
 555 102 l 1
 452 0 l 1
 173 0 l 1
275 735 m 1
 403 935 l 1
 482 935 l 1
 331 735 l 1
 275 735 l 1
EndSplineSet
Validated: 1
EndChar

StartChar: Yacute
Encoding: 221 221 252
Width: 560
Flags: MW
HStem: 0 21G<247 312 247 247> 915 20G<372 451 451 451>
VStem: 247 65<0 263>
LayerCount: 2
Fore
SplineSet
312 0 m 1
 247 0 l 1
 247 264 l 1
 10 676 l 1
 68 710 l 1
 280 342 l 1
 492 710 l 1
 550 676 l 1
 312 263 l 1
 312 0 l 1
244 735 m 1
 372 935 l 1
 451 935 l 1
 300 735 l 1
 244 735 l 1
EndSplineSet
Validated: 1
EndChar

StartChar: racute
Encoding: 341 341 253
Width: 459
Flags: MW
HStem: 0 21G<78 143 78 78> 758 20G<357 436 436 436>
VStem: 78 65<0 401 0 413 0 413>
LayerCount: 2
Fore
SplineSet
335 468 m 1
 210 468 l 1
 143 401 l 1
 143 0 l 1
 78 0 l 1
 78 413 l 1
 50 526 l 1
 112 541 l 1
 128 477 l 1
 184 533 l 1
 362 533 l 1
 459 438 l 1
 414 391 l 1
 335 468 l 1
229 578 m 1
 357 778 l 1
 436 778 l 1
 285 578 l 1
 229 578 l 1
EndSplineSet
Validated: 1
EndChar

StartChar: aacute
Encoding: 225 225 254
Width: 551
Flags: MW
HStem: -8 21G<439 439> 0 65<160 341 160 367 133 341> 244 65<160 408 160 160> 468 65<171 363 171 171> 758 20G<365 444 444 444>
VStem: 50 65<109 200 109 227 109 227> 408 65<132 244 244 244 309 424 424 424>
LayerCount: 2
Fore
SplineSet
473 451 m 1x7e
 473 120 l 1
 501 7 l 1
 439 -8 l 1xbe
 423 56 l 1
 367 0 l 1
 133 0 l 1
 50 82 l 1
 50 227 l 1
 133 309 l 1
 408 309 l 1
 408 424 l 1
 363 468 l 1
 171 468 l 1
 84 438 l 1
 63 499 l 1
 164 533 l 1
 390 533 l 1
 473 451 l 1x7e
341 65 m 1x7e
 408 132 l 1
 408 244 l 1
 160 244 l 1
 115 200 l 1
 115 109 l 1
 160 65 l 1
 341 65 l 1x7e
237 578 m 1
 365 778 l 1
 444 778 l 1
 293 578 l 1
 237 578 l 1
EndSplineSet
Validated: 1
EndChar

StartChar: lacute
Encoding: 314 314 255
Width: 204
Flags: MW
HStem: 0 21G<79 144 79 79> 925 20G<178 257 257 257>
VStem: 79 65<0 599 599 599>
LayerCount: 2
Fore
SplineSet
144 606 m 1
 144 0 l 1
 79 0 l 1
 79 599 l 1
 50 687 l 1
 111 707 l 1
 144 606 l 1
50 745 m 1
 178 945 l 1
 257 945 l 1
 106 745 l 1
 50 745 l 1
EndSplineSet
Validated: 1
EndChar

StartChar: cacute
Encoding: 263 263 256
Width: 514
Flags: MW
HStem: 0 65<168 376 168 382 142 376> 468 65<168 374 168 168> 758 20G<366 445 445 445>
VStem: 60 65<107 426 107 450 107 450> 417 65<340 426 426 426>
LayerCount: 2
Fore
SplineSet
376 65 m 1
 464 93 l 1
 484 32 l 1
 382 0 l 1
 142 0 l 1
 60 83 l 1
 60 450 l 1
 142 533 l 1
 400 533 l 1
 482 450 l 1
 482 340 l 1
 417 340 l 1
 417 426 l 1
 374 468 l 1
 168 468 l 1
 125 426 l 1
 125 107 l 1
 168 65 l 1
 376 65 l 1
238 578 m 1
 366 778 l 1
 445 778 l 1
 294 578 l 1
 238 578 l 1
EndSplineSet
Validated: 1
EndChar

StartChar: eacute
Encoding: 233 233 257
Width: 524
Flags: MW
HStem: 0 65<169 376 169 382 142 376> 223 65<125 373 125 400 125 373> 468 65<169 169 169 373> 758 20G<366 445 445 445>
VStem: 60 65<109 223 288 424> 417 65<332 424 424 424>
LayerCount: 2
Fore
SplineSet
376 65 m 1
 464 93 l 1
 484 32 l 1
 382 0 l 1
 142 0 l 1
 60 82 l 1
 60 451 l 1
 142 533 l 1
 400 533 l 1
 482 451 l 1
 482 304 l 1
 400 223 l 1
 125 223 l 1
 125 109 l 1
 169 65 l 1
 376 65 l 1
169 468 m 1
 125 424 l 1
 125 288 l 1
 373 288 l 1
 417 332 l 1
 417 424 l 1
 373 468 l 1
 169 468 l 1
238 578 m 1
 366 778 l 1
 445 778 l 1
 294 578 l 1
 238 578 l 1
EndSplineSet
Validated: 1
EndChar

StartChar: iacute
Encoding: 237 237 258
Width: 216
Flags: MW
HStem: 0 21G<79 144 79 79> 758 20G<178 257 257 257>
VStem: 79 65<0 433 433 433>
LayerCount: 2
Fore
SplineSet
79 433 m 1
 50 521 l 1
 111 541 l 1
 144 440 l 1
 144 0 l 1
 79 0 l 1
 79 433 l 1
50 578 m 1
 178 778 l 1
 257 778 l 1
 106 578 l 1
 50 578 l 1
EndSplineSet
Validated: 1
EndChar

StartChar: nacute
Encoding: 324 324 259
Width: 561
Flags: MW
HStem: 0 21G<78 78 78 143 436 436 436 501> 468 65<210 391 210 210> 758 20G<390 469 469 469>
VStem: 78 65<0 401 0 413 0 413> 436 65<0 423 423 423>
LayerCount: 2
Fore
SplineSet
78 0 m 1
 78 413 l 1
 50 526 l 1
 112 541 l 1
 128 477 l 1
 184 533 l 1
 419 533 l 1
 501 451 l 1
 501 0 l 1
 436 0 l 1
 436 423 l 1
 391 468 l 1
 210 468 l 1
 143 401 l 1
 143 0 l 1
 78 0 l 1
262 578 m 1
 390 778 l 1
 469 778 l 1
 318 578 l 1
 262 578 l 1
EndSplineSet
Validated: 1
EndChar

StartChar: oacute
Encoding: 243 243 260
Width: 547
Flags: MW
HStem: 0 65<169 378 169 405 142 378> 468 65<169 378 169 169> 758 20G<374 453 453 453>
VStem: 60 65<110 423 110 450 110 450> 422 65<110 423 423 423>
LayerCount: 2
Fore
SplineSet
487 83 m 1
 405 0 l 1
 142 0 l 1
 60 83 l 1
 60 450 l 1
 142 533 l 1
 405 533 l 1
 487 450 l 1
 487 83 l 1
169 65 m 1
 378 65 l 1
 422 110 l 1
 422 423 l 1
 378 468 l 1
 169 468 l 1
 125 423 l 1
 125 110 l 1
 169 65 l 1
246 578 m 1
 374 778 l 1
 453 778 l 1
 302 578 l 1
 246 578 l 1
EndSplineSet
Validated: 1
EndChar

StartChar: uacute
Encoding: 250 250 261
Width: 561
Flags: MW
HStem: -8 21G<449 449> 0 65<170 351 170 377 142 351> 738 20G<371 450 450 450>
VStem: 60 65<110 533 110 533 110 533> 418 65<132 533 120 533>
LayerCount: 2
Fore
SplineSet
483 533 m 1x78
 483 120 l 1
 511 7 l 1
 449 -8 l 1xb8
 433 56 l 1
 377 0 l 1
 142 0 l 1
 60 82 l 1
 60 533 l 1
 125 533 l 1
 125 110 l 1
 170 65 l 1
 351 65 l 1
 418 132 l 1
 418 533 l 1
 483 533 l 1x78
243 558 m 1
 371 758 l 1
 450 758 l 1
 299 558 l 1
 243 558 l 1
EndSplineSet
Validated: 1
EndChar

StartChar: yacute
Encoding: 253 253 262
Width: 493
Flags: MW
HStem: -168 65<86 189 86 214 86 189> -20 20G<223 241 223 223> 738 20G<342 421 421 421>
LayerCount: 2
Fore
SplineSet
214 -168 m 1
 86 -168 l 1
 86 -103 l 1
 189 -103 l 1
 216 -76 l 1
 241 0 l 1
 223 0 l 1
 10 518 l 1
 72 543 l 1
 265 72 l 1
 422 543 l 1
 483 523 l 1
 273 -109 l 1
 214 -168 l 1
214 558 m 1
 342 758 l 1
 421 758 l 1
 270 558 l 1
 214 558 l 1
EndSplineSet
Validated: 1
EndChar

StartChar: uhungarumlaut
Encoding: 369 369 263
Width: 561
Flags: MW
HStem: -8 21G<449 449> 0 65<170 351 170 377 142 351> 558 200<170 377 170 377 316 372 316 316>
VStem: 60 65<110 533 110 533 110 533> 418 65<132 533 120 533>
LayerCount: 2
Fore
SplineSet
483 533 m 1x78
 483 120 l 1
 511 7 l 1
 449 -8 l 1xb8
 433 56 l 1
 377 0 l 1
 142 0 l 1
 60 82 l 1
 60 533 l 1
 125 533 l 1
 125 110 l 1
 170 65 l 1
 351 65 l 1
 418 132 l 1
 418 533 l 1
 483 533 l 1x78
170 558 m 1
 298 758 l 1
 377 758 l 1
 226 558 l 1
 170 558 l 1
316 558 m 1
 444 758 l 1
 523 758 l 1
 372 558 l 1
 316 558 l 1
EndSplineSet
Validated: 1
EndChar

StartChar: ohungarumlaut
Encoding: 337 337 264
Width: 547
Flags: MW
HStem: 0 65<169 378 169 405 142 378> 468 65<169 378 169 169> 578 200<173 380 173 380 319 375 319 319>
VStem: 60 65<110 423 110 450 110 450> 422 65<110 423 423 423>
LayerCount: 2
Fore
SplineSet
487 83 m 1
 405 0 l 1
 142 0 l 1
 60 83 l 1
 60 450 l 1
 142 533 l 1
 405 533 l 1
 487 450 l 1
 487 83 l 1
169 65 m 1
 378 65 l 1
 422 110 l 1
 422 423 l 1
 378 468 l 1
 169 468 l 1
 125 423 l 1
 125 110 l 1
 169 65 l 1
173 578 m 1
 301 778 l 1
 380 778 l 1
 229 578 l 1
 173 578 l 1
319 578 m 1
 447 778 l 1
 526 778 l 1
 375 578 l 1
 319 578 l 1
EndSplineSet
Validated: 1
EndChar

StartChar: Ohungarumlaut
Encoding: 336 336 265
Width: 635
Flags: MW
HStem: 0 65<197 438 197 462 173 438> 635 65<197 438 197 197> 755 200<208 415 208 415 354 410 354 354>
VStem: 60 65<130 570 130 597 130 597> 510 65<130 570 570 570>
LayerCount: 2
Fore
SplineSet
173 700 m 1
 462 700 l 1
 575 597 l 1
 575 103 l 1
 462 0 l 1
 173 0 l 1
 60 103 l 1
 60 597 l 1
 173 700 l 1
510 570 m 1
 438 635 l 1
 197 635 l 1
 125 570 l 1
 125 130 l 1
 197 65 l 1
 438 65 l 1
 510 130 l 1
 510 570 l 1
208 755 m 1
 336 955 l 1
 415 955 l 1
 264 755 l 1
 208 755 l 1
354 755 m 1
 482 955 l 1
 561 955 l 1
 410 755 l 1
 354 755 l 1
EndSplineSet
Validated: 1
EndChar

StartChar: Uhungarumlaut
Encoding: 368 368 266
Width: 625
Flags: MW
HStem: 0 65<173 424 201 424 201 452> 735 200<202 409 202 409 348 404 348 348>
VStem: 70 65<130 700 130 700 130 700> 490 65<130 700 102 700>
LayerCount: 2
Fore
SplineSet
173 0 m 1
 70 102 l 1
 70 700 l 1
 135 700 l 1
 135 130 l 1
 201 65 l 1
 424 65 l 1
 490 130 l 1
 490 700 l 1
 555 700 l 1
 555 102 l 1
 452 0 l 1
 173 0 l 1
202 735 m 1
 330 935 l 1
 409 935 l 1
 258 735 l 1
 202 735 l 1
348 735 m 1
 476 935 l 1
 555 935 l 1
 404 735 l 1
 348 735 l 1
EndSplineSet
Validated: 1
EndChar

StartChar: Scaron
Encoding: 352 352 267
Width: 544
Flags: MW
HStem: 0 65<150 375 150 402 143 375> 635 65<169 392 169 169> 635 245<169 182 379 392 169 169>
VStem: 40 65<499 571 499 598 499 598> 439 65<129 224 224 224>
LayerCount: 2
Fore
SplineSet
392 635 m 1xd8
 169 635 l 1
 105 571 l 1
 105 499 l 1
 117 474 l 1
 473 301 l 1
 504 243 l 1
 504 102 l 1
 402 0 l 1
 143 0 l 1
 42 34 l 1
 63 95 l 1
 150 65 l 1
 375 65 l 1
 439 129 l 1
 439 224 l 1
 425 250 l 1
 67 424 l 1
 40 480 l 1
 40 598 l 1
 142 700 l 1
 404 700 l 1
 502 667 l 1
 482 607 l 1
 392 635 l 1xd8
246 745 m 1
 126 880 l 1
 182 880 l 1
 280 787 l 1
 379 880 l 1
 435 880 l 1xb8
 315 745 l 1
 246 745 l 1
EndSplineSet
Validated: 1
EndChar

StartChar: Tcaron
Encoding: 356 356 268
Width: 505
Flags: MW
HStem: 0 21G<220 285 220 220> 635 65<0 220 0 505 285 505 285 285> 635 245<97 153 97 220 0 153 350 406 97 285>
VStem: 220 65<0 635 0 635>
LayerCount: 2
Fore
SplineSet
285 635 m 1xd0
 285 0 l 1
 220 0 l 1
 220 635 l 1
 0 635 l 1
 0 700 l 1
 505 700 l 1
 505 635 l 1
 285 635 l 1xd0
217 745 m 1
 97 880 l 1
 153 880 l 1
 251 787 l 1
 350 880 l 1
 406 880 l 1xb0
 286 745 l 1
 217 745 l 1
EndSplineSet
Validated: 1
EndChar

StartChar: Zcaron
Encoding: 381 381 269
Width: 515
Flags: MW
HStem: 0 65<106 490 106 490> 635 65<25 409 25 495> 635 245<111 167 364 409 25 167>
LayerCount: 2
Fore
SplineSet
106 65 m 1xc0
 490 65 l 1
 490 0 l 1
 20 0 l 1
 20 62 l 1
 409 635 l 1
 25 635 l 1
 25 700 l 1
 495 700 l 1
 495 636 l 1
 106 65 l 1xc0
231 745 m 1
 111 880 l 1
 167 880 l 1
 265 787 l 1
 364 880 l 1
 420 880 l 1xa0
 300 745 l 1
 231 745 l 1
EndSplineSet
Validated: 1
EndChar

StartChar: scaron
Encoding: 353 353 270
Width: 477
Flags: MW
HStem: 0 65<139 335 139 363 131 335> 468 65<142 339 142 142> 693 20G<86 142 142 142 339 395 395 395>
VStem: 380 65<110 170 170 170>
LayerCount: 2
Fore
SplineSet
380 170 m 1
 369 192 l 1
 63 300 l 1
 32 360 l 1
 32 451 l 1
 114 533 l 1
 346 533 l 1
 447 499 l 1
 426 438 l 1
 339 468 l 1
 142 468 l 1
 97 423 l 1
 97 376 l 1
 108 353 l 1
 414 245 l 1
 445 186 l 1
 445 82 l 1
 363 0 l 1
 131 0 l 1
 30 32 l 1
 50 94 l 1
 139 65 l 1
 335 65 l 1
 380 110 l 1
 380 170 l 1
206 578 m 1
 86 713 l 1
 142 713 l 1
 240 620 l 1
 339 713 l 1
 395 713 l 1
 275 578 l 1
 206 578 l 1
EndSplineSet
Validated: 1
EndChar

StartChar: zcaron
Encoding: 382 382 271
Width: 452
Flags: MW
HStem: 0 65<106 430 106 430> 468 65<22 346 22 432 22 432> 468 245<76 132 329 346 22 132>
LayerCount: 2
Fore
SplineSet
346 468 m 1xc0
 22 468 l 1
 22 533 l 1
 432 533 l 1
 432 468 l 1
 106 65 l 1
 430 65 l 1
 430 0 l 1
 20 0 l 1
 20 64 l 1
 346 468 l 1xc0
196 578 m 1
 76 713 l 1
 132 713 l 1
 230 620 l 1
 329 713 l 1
 385 713 l 1xa0
 265 578 l 1
 196 578 l 1
EndSplineSet
Validated: 1
EndChar

StartChar: Lcaron
Encoding: 317 317 272
Width: 513
Flags: MW
HStem: 0 65<145 513 145 513> 850 20G<-42 14 14 14 211 267 267 267>
VStem: 80 65<65 700 65 700 65 700>
LayerCount: 2
Fore
SplineSet
80 0 m 1
 80 700 l 1
 145 700 l 1
 145 65 l 1
 513 65 l 1
 513 0 l 1
 80 0 l 1
78 735 m 1
 -42 870 l 1
 14 870 l 1
 112 777 l 1
 211 870 l 1
 267 870 l 1
 147 735 l 1
 78 735 l 1
EndSplineSet
Validated: 1
EndChar

StartChar: Ccaron
Encoding: 268 268 273
Width: 579
Flags: MW
HStem: 0 65<190 426 190 454 163 426> 635 65<190 415 190 190> 635 245<190 205 402 415 190 190>
VStem: 60 65<130 570 130 597 130 597> 480 65<485 570 570 570>
LayerCount: 2
Fore
SplineSet
426 65 m 1xb8
 502 141 l 1
 549 95 l 1
 454 0 l 1
 163 0 l 1
 60 103 l 1
 60 597 l 1
 163 700 l 1
 442 700 l 1xd8
 545 597 l 1
 545 485 l 1
 480 485 l 1
 480 570 l 1
 415 635 l 1
 190 635 l 1
 125 570 l 1
 125 130 l 1
 190 65 l 1
 426 65 l 1xb8
269 745 m 1
 149 880 l 1
 205 880 l 1
 303 787 l 1
 402 880 l 1
 458 880 l 1xb8
 338 745 l 1
 269 745 l 1
EndSplineSet
Validated: 1
EndChar

StartChar: Ecaron
Encoding: 282 282 274
Width: 533
Flags: MW
HStem: 0 65<145 513 145 513> 338 65<145 471 145 471> 635 65<145 513 145 145> 635 245<149 205 402 458 145 205>
VStem: 80 65<65 338 403 635>
LayerCount: 2
Fore
SplineSet
80 0 m 1xe8
 80 700 l 1
 513 700 l 1
 513 635 l 1
 145 635 l 1
 145 403 l 1
 471 403 l 1
 471 338 l 1
 145 338 l 1
 145 65 l 1
 513 65 l 1
 513 0 l 1
 80 0 l 1xe8
269 745 m 1
 149 880 l 1
 205 880 l 1
 303 787 l 1
 402 880 l 1
 458 880 l 1xd8
 338 745 l 1
 269 745 l 1
EndSplineSet
Validated: 1
EndChar

StartChar: Dcaron
Encoding: 270 270 275
Width: 626
Flags: MW
HStem: 0 65<145 436 145 463> 635 65<145 436 145 145> 635 245<149 205 402 436 145 205>
VStem: 80 65<65 635 65 700> 501 65<131 569 569 569>
LayerCount: 2
Fore
SplineSet
80 700 m 1xd8
 463 700 l 1
 566 596 l 1
 566 104 l 1
 463 0 l 1
 80 0 l 1
 80 700 l 1xd8
501 569 m 1
 436 635 l 1
 145 635 l 1
 145 65 l 1
 436 65 l 1
 501 131 l 1
 501 569 l 1
269 745 m 1
 149 880 l 1
 205 880 l 1
 303 787 l 1
 402 880 l 1
 458 880 l 1xb8
 338 745 l 1
 269 745 l 1
EndSplineSet
Validated: 1
EndChar

StartChar: Ncaron
Encoding: 327 327 276
Width: 646
Flags: MW
HStem: 0 21G<80 145 80 80 493 566 493 493> 840 20G<175 231 231 231 428 484 484 484>
VStem: 80 65<0 587 0 700> 501 65<113 700 0 700>
LayerCount: 2
Fore
SplineSet
493 0 m 1
 145 587 l 1
 145 0 l 1
 80 0 l 1
 80 700 l 1
 153 700 l 1
 501 113 l 1
 501 700 l 1
 566 700 l 1
 566 0 l 1
 493 0 l 1
295 725 m 1
 175 860 l 1
 231 860 l 1
 329 767 l 1
 428 860 l 1
 484 860 l 1
 364 725 l 1
 295 725 l 1
EndSplineSet
Validated: 1
EndChar

StartChar: Rcaron
Encoding: 344 344 277
Width: 605
Flags: MW
HStem: -20 20G<80 145 80 80> -15 21G<517 517> 274 65<145 434 145 229 321 321 321 434 145 462> 635 65<145 434 145 145> 635 245<158 214 411 434 145 214>
VStem: 80 65<0 274 339 635> 500 65<404 570 570 570>
LayerCount: 2
Fore
SplineSet
145 274 m 1x76
 145 0 l 1
 80 0 l 1xb6
 80 700 l 1
 462 700 l 1
 565 598 l 1
 565 376 l 1
 462 274 l 1
 321 274 l 1
 563 32 l 1
 517 -15 l 1
 229 274 l 1
 145 274 l 1x76
434 635 m 1
 145 635 l 1
 145 339 l 1
 434 339 l 1
 500 404 l 1
 500 570 l 1
 434 635 l 1
278 745 m 1
 158 880 l 1
 214 880 l 1
 312 787 l 1
 411 880 l 1
 467 880 l 1x6e
 347 745 l 1
 278 745 l 1
EndSplineSet
Validated: 1
EndChar

StartChar: ccaron
Encoding: 269 269 278
Width: 514
Flags: MW
HStem: 0 65<168 376 168 382 142 376> 468 65<168 374 168 168> 468 245<168 181 125 374 168 168>
VStem: 60 65<107 426 107 450 107 450> 417 65<340 426 426 426>
LayerCount: 2
Fore
SplineSet
376 65 m 1xd8
 464 93 l 1
 484 32 l 1
 382 0 l 1
 142 0 l 1
 60 83 l 1
 60 450 l 1
 142 533 l 1
 400 533 l 1
 482 450 l 1
 482 340 l 1
 417 340 l 1
 417 426 l 1
 374 468 l 1
 168 468 l 1
 125 426 l 1
 125 107 l 1
 168 65 l 1
 376 65 l 1xd8
245 578 m 1
 125 713 l 1
 181 713 l 1
 279 620 l 1
 378 713 l 1
 434 713 l 1xb8
 314 578 l 1
 245 578 l 1
EndSplineSet
Validated: 1
EndChar

StartChar: ecaron
Encoding: 283 283 279
Width: 524
Flags: MW
HStem: 0 65<169 376 169 382 142 376> 223 65<125 373 125 400 125 373> 468 65<169 169 169 373> 468 245<169 169 169 181 125 373>
VStem: 60 65<109 223 288 424> 417 65<332 424 424 424>
LayerCount: 2
Fore
SplineSet
376 65 m 1xec
 464 93 l 1
 484 32 l 1
 382 0 l 1
 142 0 l 1
 60 82 l 1
 60 451 l 1
 142 533 l 1
 400 533 l 1
 482 451 l 1
 482 304 l 1
 400 223 l 1
 125 223 l 1
 125 109 l 1
 169 65 l 1
 376 65 l 1xec
169 468 m 1
 125 424 l 1
 125 288 l 1
 373 288 l 1
 417 332 l 1
 417 424 l 1
 373 468 l 1
 169 468 l 1
245 578 m 1
 125 713 l 1
 181 713 l 1
 279 620 l 1
 378 713 l 1
 434 713 l 1xdc
 314 578 l 1
 245 578 l 1
EndSplineSet
Validated: 1
EndChar

StartChar: ncaron
Encoding: 328 328 280
Width: 561
Flags: MW
HStem: 0 21G<78 78 78 143 436 436 436 501> 468 65<210 391 210 210> 693 20G<143 199 199 199 396 452 452 452>
VStem: 78 65<0 401 0 413 0 413> 436 65<0 423 423 423>
LayerCount: 2
Fore
SplineSet
78 0 m 1
 78 413 l 1
 50 526 l 1
 112 541 l 1
 128 477 l 1
 184 533 l 1
 419 533 l 1
 501 451 l 1
 501 0 l 1
 436 0 l 1
 436 423 l 1
 391 468 l 1
 210 468 l 1
 143 401 l 1
 143 0 l 1
 78 0 l 1
263 578 m 1
 143 713 l 1
 199 713 l 1
 297 620 l 1
 396 713 l 1
 452 713 l 1
 332 578 l 1
 263 578 l 1
EndSplineSet
Validated: 1
EndChar

StartChar: rcaron
Encoding: 345 345 281
Width: 459
Flags: MW
HStem: 0 21G<78 143 78 78> 468 65<210 335 210 210> 693 20G<120 176 176 176 373 429 429 429>
VStem: 78 65<0 401 0 413 0 413>
LayerCount: 2
Fore
SplineSet
335 468 m 1
 210 468 l 1
 143 401 l 1
 143 0 l 1
 78 0 l 1
 78 413 l 1
 50 526 l 1
 112 541 l 1
 128 477 l 1
 184 533 l 1
 362 533 l 1
 459 438 l 1
 414 391 l 1
 335 468 l 1
240 578 m 1
 120 713 l 1
 176 713 l 1
 274 620 l 1
 373 713 l 1
 429 713 l 1
 309 578 l 1
 240 578 l 1
EndSplineSet
Validated: 1
EndChar

StartChar: lcaron
Encoding: 318 318 282
Width: 290
Flags: MW
HStem: 0 21G<79 144 79 79> 687 20G
VStem: 79 65<0 599 599 599>
LayerCount: 2
Fore
SplineSet
144 606 m 1
 144 0 l 1
 79 0 l 1
 79 599 l 1
 50 687 l 1
 111 707 l 1
 144 606 l 1
180 460 m 1
 235 700 l 1
 310 700 l 1
 225 460 l 1
 180 460 l 1
EndSplineSet
Validated: 1
EndChar

StartChar: tcaron
Encoding: 357 357 283
Width: 465
Flags: MW
HStem: 0 65<224 318 224 326 197 318> 445 65<20 115 20 115 180 340> 680 20G<410 485 485 485>
VStem: 115 65<109 445 109 445 109 445 510 670>
LayerCount: 2
Fore
SplineSet
115 445 m 1
 20 445 l 1
 20 510 l 1
 115 510 l 1
 115 670 l 1
 180 670 l 1
 180 510 l 1
 340 510 l 1
 340 445 l 1
 180 445 l 1
 180 109 l 1
 224 65 l 1
 318 65 l 1
 408 93 l 1
 428 32 l 1
 326 0 l 1
 197 0 l 1
 115 82 l 1
 115 445 l 1
355 460 m 1
 410 700 l 1
 485 700 l 1
 400 460 l 1
 355 460 l 1
EndSplineSet
Validated: 1
EndChar

StartChar: dcaron
Encoding: 271 271 284
Width: 628
Flags: MW
HStem: -8 21G<448 448> 0 65<168 350 168 376 141 350> 468 65<168 357 168 168> 680 20G<417 482 482 482 573 648 648 648>
VStem: 60 65<108 425 108 452 108 452> 417 65<132 408 408 408 501 700 120 700>
LayerCount: 2
Fore
SplineSet
417 408 m 1x7c
 357 468 l 1
 168 468 l 1
 125 425 l 1
 125 108 l 1
 168 65 l 1
 350 65 l 1
 417 132 l 1
 417 408 l 1x7c
417 501 m 1
 417 700 l 1
 482 700 l 1
 482 120 l 1
 510 7 l 1
 448 -8 l 1xbc
 432 56 l 1
 376 0 l 1
 141 0 l 1
 60 81 l 1
 60 452 l 1
 141 533 l 1
 385 533 l 1
 417 501 l 1
518 460 m 1
 573 700 l 1
 648 700 l 1
 563 460 l 1
 518 460 l 1
EndSplineSet
Validated: 1
EndChar

StartChar: ocircumflex
Encoding: 244 244 285
Width: 547
Flags: MW
HStem: 0 65<169 378 169 405 142 378> 468 65<169 378 169 169> 468 245<244 313 244 378 169 313>
VStem: 60 65<110 423 110 450 110 450> 422 65<110 423 423 423>
LayerCount: 2
Fore
SplineSet
487 83 m 1xd8
 405 0 l 1
 142 0 l 1
 60 83 l 1
 60 450 l 1
 142 533 l 1
 405 533 l 1
 487 450 l 1
 487 83 l 1xd8
169 65 m 1
 378 65 l 1
 422 110 l 1
 422 423 l 1
 378 468 l 1
 169 468 l 1
 125 423 l 1
 125 110 l 1
 169 65 l 1
124 578 m 1
 244 713 l 1
 313 713 l 1xb8
 433 578 l 1
 377 578 l 1
 278 671 l 1
 180 578 l 1
 124 578 l 1
EndSplineSet
Validated: 1
EndChar

StartChar: icircumflex
Encoding: 238 238 286
Width: 216
Flags: MW
HStem: 0 21G<79 144 79 79> 693 20G<77 146 146 146>
VStem: 79 65<0 433 433 433>
LayerCount: 2
Fore
SplineSet
79 433 m 1
 50 521 l 1
 111 541 l 1
 144 440 l 1
 144 0 l 1
 79 0 l 1
 79 433 l 1
-43 578 m 1
 77 713 l 1
 146 713 l 1
 266 578 l 1
 210 578 l 1
 111 671 l 1
 13 578 l 1
 -43 578 l 1
EndSplineSet
Validated: 1
EndChar

StartChar: acircumflex
Encoding: 226 226 287
Width: 551
Flags: MW
HStem: -8 21G<439 439> 0 65<160 341 160 367 133 341> 244 65<160 408 160 160> 468 65<171 363 171 171> 468 245<244 313 244 363 171 313>
VStem: 50 65<109 200 109 227 109 227> 408 65<132 244 244 244 309 424 424 424>
LayerCount: 2
Fore
SplineSet
473 451 m 1x76
 473 120 l 1
 501 7 l 1
 439 -8 l 1xb6
 423 56 l 1
 367 0 l 1
 133 0 l 1
 50 82 l 1
 50 227 l 1
 133 309 l 1
 408 309 l 1
 408 424 l 1
 363 468 l 1
 171 468 l 1
 84 438 l 1
 63 499 l 1
 164 533 l 1
 390 533 l 1
 473 451 l 1x76
341 65 m 1x6e
 408 132 l 1
 408 244 l 1
 160 244 l 1
 115 200 l 1
 115 109 l 1
 160 65 l 1
 341 65 l 1x6e
124 578 m 1
 244 713 l 1
 313 713 l 1
 433 578 l 1
 377 578 l 1
 278 671 l 1
 180 578 l 1
 124 578 l 1
EndSplineSet
Validated: 1
EndChar

StartChar: Ocircumflex
Encoding: 212 212 288
Width: 635
Flags: MW
HStem: 0 65<197 438 197 462 173 438> 635 65<197 438 197 197> 700 45<173 223 420 462 462 462> 860 20G<287 287 356 356>
VStem: 60 65<130 570 130 597 130 597> 510 65<130 570 570 570>
LayerCount: 2
Fore
SplineSet
462 700 m 1xdc
 575 597 l 1
 575 103 l 1
 462 0 l 1
 173 0 l 1
 60 103 l 1
 60 597 l 1
 173 700 l 1
 462 700 l 1xdc
438 635 m 1
 197 635 l 1
 125 570 l 1
 125 130 l 1
 197 65 l 1
 438 65 l 1
 510 130 l 1
 510 570 l 1
 438 635 l 1
167 745 m 1xbc
 287 880 l 1
 287 805 l 1
 223 745 l 1
 167 745 l 1xbc
420 745 m 1
 356 805 l 1
 356 880 l 1
 476 745 l 1
 420 745 l 1
EndSplineSet
Validated: 1
EndChar

StartChar: Icircumflex
Encoding: 206 206 289
Width: 357
Flags: MW
HStem: 0 65<30 146 211 327 30 146> 635 65<30 146 30 327 211 211 211 327> 700 45<30 80 277 327 327 327> 860 20G<144 144 213 213>
VStem: 146 65<65 635 65 635>
LayerCount: 2
Fore
SplineSet
327 0 m 1xd8
 30 0 l 1
 30 65 l 1
 146 65 l 1
 146 635 l 1
 30 635 l 1
 30 700 l 1
 327 700 l 1
 327 635 l 1
 211 635 l 1
 211 65 l 1
 327 65 l 1
 327 0 l 1xd8
24 745 m 1xb8
 144 880 l 1
 144 805 l 1
 80 745 l 1
 24 745 l 1xb8
277 745 m 1
 213 805 l 1
 213 880 l 1
 333 745 l 1
 277 745 l 1
EndSplineSet
Validated: 1
EndChar

StartChar: Acircumflex
Encoding: 194 194 290
Width: 578
Flags: MW
HStem: -10 21G<83 83 495 495> 212 65<155 402 176 402 176 423> 860 20G<254 254 323 323>
VStem: 254 69<805 880 805 880>
LayerCount: 2
Fore
SplineSet
155 212 m 1
 83 -10 l 1
 20 10 l 1
 243 700 l 1
 335 700 l 1
 558 10 l 1
 495 -10 l 1
 423 212 l 1
 155 212 l 1
176 277 m 1
 402 277 l 1
 289 627 l 1
 176 277 l 1
134 745 m 1
 254 880 l 1
 254 805 l 1
 190 745 l 1
 134 745 l 1
387 745 m 1
 323 805 l 1
 323 880 l 1
 443 745 l 1
 387 745 l 1
EndSplineSet
Validated: 1
EndChar

StartChar: Agrave
Encoding: 192 192 291
Width: 578
Flags: MW
HStem: -10 21G<83 83 495 495> 212 65<155 402 176 402 176 423> 925 20G<127 206 206 206>
LayerCount: 2
Fore
SplineSet
155 212 m 1
 83 -10 l 1
 20 10 l 1
 243 700 l 1
 335 700 l 1
 558 10 l 1
 495 -10 l 1
 423 212 l 1
 155 212 l 1
176 277 m 1
 402 277 l 1
 289 627 l 1
 176 277 l 1
206 945 m 1
 334 745 l 1
 278 745 l 1
 127 945 l 1
 206 945 l 1
EndSplineSet
Validated: 1
EndChar

StartChar: Egrave
Encoding: 200 200 292
Width: 533
Flags: MW
HStem: 0 65<145 513 145 513> 338 65<145 471 145 471> 635 65<145 513 145 145> 935 20G<151 230 230 230>
VStem: 80 65<65 338 403 635>
LayerCount: 2
Fore
SplineSet
80 0 m 1
 80 700 l 1
 513 700 l 1
 513 635 l 1
 145 635 l 1
 145 403 l 1
 471 403 l 1
 471 338 l 1
 145 338 l 1
 145 65 l 1
 513 65 l 1
 513 0 l 1
 80 0 l 1
230 955 m 1
 358 755 l 1
 302 755 l 1
 151 955 l 1
 230 955 l 1
EndSplineSet
Validated: 1
EndChar

StartChar: Ecircumflex
Encoding: 202 202 293
Width: 533
Flags: MW
HStem: 0 65<145 513 145 513> 338 65<145 471 145 471> 635 65<145 513 145 145> 700 45<144 144 144 200 397 453> 860 20G<264 264 333 333>
VStem: 80 65<65 338 403 635>
LayerCount: 2
Fore
SplineSet
80 0 m 1xec
 80 700 l 1
 513 700 l 1
 513 635 l 1
 145 635 l 1
 145 403 l 1
 471 403 l 1
 471 338 l 1
 145 338 l 1
 145 65 l 1
 513 65 l 1
 513 0 l 1
 80 0 l 1xec
144 745 m 1xdc
 264 880 l 1
 264 805 l 1
 200 745 l 1
 144 745 l 1xdc
397 745 m 1
 333 805 l 1
 333 880 l 1
 453 745 l 1
 397 745 l 1
EndSplineSet
Validated: 1
EndChar

StartChar: Igrave
Encoding: 204 204 294
Width: 357
Flags: MW
HStem: 0 65<30 146 211 327 30 146> 635 65<30 146 30 327 211 211 211 327> 935 20G<17 96 96 96>
VStem: 146 65<65 635 65 635>
LayerCount: 2
Fore
SplineSet
327 0 m 1
 30 0 l 1
 30 65 l 1
 146 65 l 1
 146 635 l 1
 30 635 l 1
 30 700 l 1
 327 700 l 1
 327 635 l 1
 211 635 l 1
 211 65 l 1
 327 65 l 1
 327 0 l 1
96 955 m 1
 224 755 l 1
 168 755 l 1
 17 955 l 1
 96 955 l 1
EndSplineSet
Validated: 1
EndChar

StartChar: Idieresis
Encoding: 207 207 295
Width: 357
Flags: MW
HStem: 0 65<30 146 211 327 30 146> 635 65<30 146 30 327 211 211 211 327> 775 90<68 110 68 110 248 290>
VStem: 146 65<65 635 65 635>
LayerCount: 2
Fore
SplineSet
327 0 m 1
 30 0 l 1
 30 65 l 1
 146 65 l 1
 146 635 l 1
 30 635 l 1
 30 700 l 1
 327 700 l 1
 327 635 l 1
 211 635 l 1
 211 65 l 1
 327 65 l 1
 327 0 l 1
68 775 m 1
 44 799 l 1
 44 841 l 1
 68 865 l 1
 110 865 l 1
 134 841 l 1
 134 799 l 1
 110 775 l 1
 68 775 l 1
248 775 m 1
 224 799 l 1
 224 841 l 1
 248 865 l 1
 290 865 l 1
 314 841 l 1
 314 799 l 1
 290 775 l 1
 248 775 l 1
EndSplineSet
Validated: 1
EndChar

StartChar: idieresis
Encoding: 239 239 296
Width: 216
Flags: MW
HStem: 0 21G<79 144 79 79> 605 90<8 50 8 50 172 214>
VStem: 79 65<0 433 433 433>
LayerCount: 2
Fore
SplineSet
8 605 m 1
 -16 629 l 1
 -16 671 l 1
 8 695 l 1
 50 695 l 1
 74 671 l 1
 74 629 l 1
 50 605 l 1
 8 605 l 1
172 605 m 1
 148 629 l 1
 148 671 l 1
 172 695 l 1
 214 695 l 1
 238 671 l 1
 238 629 l 1
 214 605 l 1
 172 605 l 1
79 433 m 1
 50 521 l 1
 111 541 l 1
 144 440 l 1
 144 0 l 1
 79 0 l 1
 79 433 l 1
EndSplineSet
Validated: 1
EndChar

StartChar: Gbreve
Encoding: 286 286 297
Width: 605
Flags: MW
HStem: 0 65<188 417 188 443 162 417> 296 65<312 480 312 545> 635 65<188 417 188 188> 772 65<230 368 230 395 203 368> 772 149<203 207 391 395 203 203>
VStem: 60 65<129 571 129 598 129 598> 142 65<860 921 860 921 860 921> 312 233<296 361 102 361> 391 65<860 921> 480 65<129 296 296 296 485 571 571 571>
LayerCount: 2
Fore
SplineSet
545 598 m 1xef
 545 485 l 1
 480 485 l 1
 480 571 l 1
 417 635 l 1
 188 635 l 1
 125 571 l 1
 125 129 l 1
 188 65 l 1
 417 65 l 1
 480 129 l 1
 480 296 l 1xeec0
 312 296 l 1
 312 361 l 1
 545 361 l 1
 545 102 l 1
 443 0 l 1
 162 0 l 1
 60 102 l 1
 60 598 l 1
 162 700 l 1
 443 700 l 1
 545 598 l 1xef
456 832 m 1
 395 772 l 1
 203 772 l 1
 142 832 l 1
 142 921 l 1
 207 921 l 1xeec0
 207 860 l 1
 230 837 l 1
 368 837 l 1xf7
 391 860 l 1
 391 921 l 1
 456 921 l 1
 456 832 l 1
EndSplineSet
Validated: 1
EndChar

StartChar: gbreve
Encoding: 287 287 298
Width: 518
Flags: MW
HStem: -168 65<150 392 150 420 125 392> -6 65<142 392 113 420> 125 65<155 371 181 371 181 398> 468 65<162 348 162 162> 610 65<206 333 206 360 179 333> 610 149<179 183 356 360 179 179>
VStem: 53 65<253 424 253 451 253 451> 118 65<698 759 698 759 698 759> 356 65<698 759> 415 65<-80 -29 -29 -29 234 401 401 401>
LayerCount: 2
Fore
SplineSet
155 125 m 1xfa40
 135 144 l 1
 119 128 l 1
 119 82 l 1
 142 59 l 1
 420 59 l 1
 480 -1 l 1
 480 -108 l 1
 420 -168 l 1
 125 -168 l 1
 50 -95 l 1
 94 -49 l 1
 150 -103 l 1
 392 -103 l 1
 415 -80 l 1
 415 -29 l 1
 392 -6 l 1
 113 -6 l 1
 53 54 l 1
 53 156 l 1
 88 191 l 1
 53 226 l 1
 53 451 l 1
 135 533 l 1
 360 533 l 1
 473 561 l 1
 488 499 l 1
 425 483 l 1
 480 428 l 1
 480 207 l 1
 398 125 l 1
 155 125 l 1xfa40
348 468 m 1
 162 468 l 1
 118 424 l 1
 118 253 l 1
 181 190 l 1
 371 190 l 1
 415 234 l 1
 415 401 l 1
 348 468 l 1
421 670 m 1xf680
 360 610 l 1
 179 610 l 1
 118 670 l 1
 118 759 l 1
 183 759 l 1xf580
 183 698 l 1
 206 675 l 1
 333 675 l 1xf980
 356 698 l 1
 356 759 l 1
 421 759 l 1
 421 670 l 1xf680
EndSplineSet
Validated: 1
EndChar

StartChar: Ograve
Encoding: 210 210 299
Width: 635
Flags: MW
HStem: 0 65<197 438 197 462 173 438> 635 65<197 438 197 197> 935 20G<165 244 244 244>
VStem: 60 65<130 570 130 597 130 597> 510 65<130 570 570 570>
LayerCount: 2
Fore
SplineSet
173 700 m 1
 462 700 l 1
 575 597 l 1
 575 103 l 1
 462 0 l 1
 173 0 l 1
 60 103 l 1
 60 597 l 1
 173 700 l 1
510 570 m 1
 438 635 l 1
 197 635 l 1
 125 570 l 1
 125 130 l 1
 197 65 l 1
 438 65 l 1
 510 130 l 1
 510 570 l 1
244 955 m 1
 372 755 l 1
 316 755 l 1
 165 955 l 1
 244 955 l 1
EndSplineSet
Validated: 1
EndChar

StartChar: Ugrave
Encoding: 217 217 300
Width: 625
Flags: MW
HStem: 0 65<173 424 201 424 201 452> 915 20G<179 258 258 258>
VStem: 70 65<130 700 130 700 130 700> 490 65<130 700 102 700>
LayerCount: 2
Fore
SplineSet
173 0 m 1
 70 102 l 1
 70 700 l 1
 135 700 l 1
 135 130 l 1
 201 65 l 1
 424 65 l 1
 490 130 l 1
 490 700 l 1
 555 700 l 1
 555 102 l 1
 452 0 l 1
 173 0 l 1
258 935 m 1
 386 735 l 1
 330 735 l 1
 179 935 l 1
 258 935 l 1
EndSplineSet
Validated: 1
EndChar

StartChar: Ucircumflex
Encoding: 219 219 301
Width: 625
Flags: MW
HStem: 0 65<173 424 201 424 201 452> 860 20G<278 278 347 347>
VStem: 70 65<130 700 130 700 130 700> 490 65<130 700 102 700>
LayerCount: 2
Fore
SplineSet
173 0 m 1
 70 102 l 1
 70 700 l 1
 135 700 l 1
 135 130 l 1
 201 65 l 1
 424 65 l 1
 490 130 l 1
 490 700 l 1
 555 700 l 1
 555 102 l 1
 452 0 l 1
 173 0 l 1
158 745 m 1
 278 880 l 1
 278 805 l 1
 214 745 l 1
 158 745 l 1
411 745 m 1
 347 805 l 1
 347 880 l 1
 467 745 l 1
 411 745 l 1
EndSplineSet
Validated: 1
EndChar

StartChar: Idotaccent
Encoding: 304 304 302
Width: 357
Flags: MW
HStem: 0 65<30 146 211 327 30 146> 635 65<30 146 30 327 211 211 211 327> 845 20G<157 199 199 199>
VStem: 146 65<65 635 65 635>
LayerCount: 2
Fore
SplineSet
327 0 m 1
 30 0 l 1
 30 65 l 1
 146 65 l 1
 146 635 l 1
 30 635 l 1
 30 700 l 1
 327 700 l 1
 327 635 l 1
 211 635 l 1
 211 65 l 1
 327 65 l 1
 327 0 l 1
157 775 m 1
 133 799 l 1
 133 841 l 1
 157 865 l 1
 199 865 l 1
 223 841 l 1
 223 799 l 1
 199 775 l 1
 157 775 l 1
EndSplineSet
Validated: 1
EndChar

StartChar: Scedilla
Encoding: 350 350 303
Width: 544
Flags: MW
HStem: -285 21G<180 180 180 225> -45 45<235 310 310 310> 0 65<150 375 150 402 143 375> 635 65<169 392 169 169>
VStem: 40 65<499 571 499 598 499 598> 439 65<129 224 224 224>
LayerCount: 2
Fore
SplineSet
392 635 m 1xbc
 169 635 l 1
 105 571 l 1
 105 499 l 1
 117 474 l 1
 473 301 l 1
 504 243 l 1
 504 102 l 1
 402 0 l 1
 143 0 l 1
 42 34 l 1
 63 95 l 1
 150 65 l 1
 375 65 l 1
 439 129 l 1
 439 224 l 1
 425 250 l 1
 67 424 l 1
 40 480 l 1
 40 598 l 1
 142 700 l 1
 404 700 l 1
 502 667 l 1
 482 607 l 1
 392 635 l 1xbc
180 -285 m 1
 235 -45 l 1
 310 -45 l 1xdc
 225 -285 l 1
 180 -285 l 1
EndSplineSet
Validated: 1
EndChar

StartChar: agrave
Encoding: 224 224 304
Width: 551
Flags: MW
HStem: -8 21G<439 439> 0 65<160 341 160 367 133 341> 244 65<160 408 160 160> 468 65<171 363 171 171> 758 20G<118 197 197 197>
VStem: 50 65<109 200 109 227 109 227> 408 65<132 244 244 244 309 424 424 424>
LayerCount: 2
Fore
SplineSet
473 451 m 1x7e
 473 120 l 1
 501 7 l 1
 439 -8 l 1xbe
 423 56 l 1
 367 0 l 1
 133 0 l 1
 50 82 l 1
 50 227 l 1
 133 309 l 1
 408 309 l 1
 408 424 l 1
 363 468 l 1
 171 468 l 1
 84 438 l 1
 63 499 l 1
 164 533 l 1
 390 533 l 1
 473 451 l 1x7e
341 65 m 1x7e
 408 132 l 1
 408 244 l 1
 160 244 l 1
 115 200 l 1
 115 109 l 1
 160 65 l 1
 341 65 l 1x7e
197 778 m 1
 325 578 l 1
 269 578 l 1
 118 778 l 1
 197 778 l 1
EndSplineSet
Validated: 1
EndChar

StartChar: egrave
Encoding: 232 232 305
Width: 524
Flags: MW
HStem: 0 65<169 376 169 382 142 376> 223 65<125 373 125 400 125 373> 468 65<169 169 169 373> 758 20G<103 182 182 182>
VStem: 60 65<109 223 288 424> 417 65<332 424 424 424>
LayerCount: 2
Fore
SplineSet
376 65 m 1
 464 93 l 1
 484 32 l 1
 382 0 l 1
 142 0 l 1
 60 82 l 1
 60 451 l 1
 142 533 l 1
 400 533 l 1
 482 451 l 1
 482 304 l 1
 400 223 l 1
 125 223 l 1
 125 109 l 1
 169 65 l 1
 376 65 l 1
169 468 m 1
 125 424 l 1
 125 288 l 1
 373 288 l 1
 417 332 l 1
 417 424 l 1
 373 468 l 1
 169 468 l 1
182 778 m 1
 310 578 l 1
 254 578 l 1
 103 778 l 1
 182 778 l 1
EndSplineSet
Validated: 1
EndChar

StartChar: ecircumflex
Encoding: 234 234 306
Width: 524
Flags: MW
HStem: 0 65<169 376 169 382 142 376> 223 65<125 373 125 400 125 373> 468 65<169 169 169 373> 468 245<169 305 236 305 236 373>
VStem: 60 65<109 223 288 424> 417 65<332 424 424 424>
LayerCount: 2
Fore
SplineSet
376 65 m 1xec
 464 93 l 1
 484 32 l 1
 382 0 l 1
 142 0 l 1
 60 82 l 1
 60 451 l 1
 142 533 l 1
 400 533 l 1
 482 451 l 1
 482 304 l 1
 400 223 l 1
 125 223 l 1
 125 109 l 1
 169 65 l 1
 376 65 l 1xec
169 468 m 1
 125 424 l 1
 125 288 l 1
 373 288 l 1
 417 332 l 1
 417 424 l 1
 373 468 l 1
 169 468 l 1
116 578 m 1
 236 713 l 1
 305 713 l 1xdc
 425 578 l 1
 369 578 l 1
 270 671 l 1
 172 578 l 1
 116 578 l 1
EndSplineSet
Validated: 1
EndChar

StartChar: igrave
Encoding: 236 236 307
Width: 216
Flags: MW
HStem: 0 21G<79 144 79 79> 758 20G<-56 23 23 23>
VStem: 79 65<0 433 433 433>
LayerCount: 2
Fore
SplineSet
79 433 m 1
 50 521 l 1
 111 541 l 1
 144 440 l 1
 144 0 l 1
 79 0 l 1
 79 433 l 1
23 778 m 1
 151 578 l 1
 95 578 l 1
 -56 778 l 1
 23 778 l 1
EndSplineSet
Validated: 1
EndChar

StartChar: ograve
Encoding: 242 242 308
Width: 547
Flags: MW
HStem: 0 65<169 378 169 405 142 378> 468 65<169 378 169 169> 758 20G<101 180 180 180>
VStem: 60 65<110 423 110 450 110 450> 422 65<110 423 423 423>
LayerCount: 2
Fore
SplineSet
487 83 m 1
 405 0 l 1
 142 0 l 1
 60 83 l 1
 60 450 l 1
 142 533 l 1
 405 533 l 1
 487 450 l 1
 487 83 l 1
169 65 m 1
 378 65 l 1
 422 110 l 1
 422 423 l 1
 378 468 l 1
 169 468 l 1
 125 423 l 1
 125 110 l 1
 169 65 l 1
180 778 m 1
 308 578 l 1
 252 578 l 1
 101 778 l 1
 180 778 l 1
EndSplineSet
Validated: 1
EndChar

StartChar: ugrave
Encoding: 249 249 309
Width: 561
Flags: MW
HStem: -8 21G<449 449> 0 65<170 351 170 377 142 351> 738 20G<118 197 197 197>
VStem: 60 65<110 533 110 533 110 533> 418 65<132 533 120 533>
LayerCount: 2
Fore
SplineSet
483 533 m 1x78
 483 120 l 1
 511 7 l 1
 449 -8 l 1xb8
 433 56 l 1
 377 0 l 1
 142 0 l 1
 60 82 l 1
 60 533 l 1
 125 533 l 1
 125 110 l 1
 170 65 l 1
 351 65 l 1
 418 132 l 1
 418 533 l 1
 483 533 l 1x78
197 758 m 1
 325 558 l 1
 269 558 l 1
 118 758 l 1
 197 758 l 1
EndSplineSet
Validated: 1
EndChar

StartChar: ucircumflex
Encoding: 251 251 310
Width: 561
Flags: MW
HStem: -8 21G<449 449> 0 65<170 351 170 377 142 351> 693 20G<237 306 306 306>
VStem: 60 65<110 533 110 533 110 533> 418 65<132 533 120 533>
LayerCount: 2
Fore
SplineSet
483 533 m 1x78
 483 120 l 1
 511 7 l 1
 449 -8 l 1xb8
 433 56 l 1
 377 0 l 1
 142 0 l 1
 60 82 l 1
 60 533 l 1
 125 533 l 1
 125 110 l 1
 170 65 l 1
 351 65 l 1
 418 132 l 1
 418 533 l 1
 483 533 l 1x78
117 578 m 1
 237 713 l 1
 306 713 l 1
 426 578 l 1
 370 578 l 1
 271 671 l 1
 173 578 l 1
 117 578 l 1
EndSplineSet
Validated: 1
EndChar

StartChar: dotlessi
Encoding: 305 305 311
Width: 216
Flags: MW
HStem: 0 21G<79 144 79 79> 521 20G
VStem: 79 65<0 433 433 433>
LayerCount: 2
Fore
SplineSet
79 433 m 1
 50 521 l 1
 111 541 l 1
 144 440 l 1
 144 0 l 1
 79 0 l 1
 79 433 l 1
EndSplineSet
Validated: 1
EndChar

StartChar: scedilla
Encoding: 351 351 312
Width: 477
Flags: MW
HStem: -285 21G<155 155 155 200> -45 45<210 285 285 285> 0 65<139 335 139 363 131 335> 468 65<142 339 142 142>
VStem: 380 65<110 170 170 170>
LayerCount: 2
Fore
SplineSet
380 170 m 1xb8
 369 192 l 1
 63 300 l 1
 32 360 l 1
 32 451 l 1
 114 533 l 1
 346 533 l 1
 447 499 l 1
 426 438 l 1
 339 468 l 1
 142 468 l 1
 97 423 l 1
 97 376 l 1
 108 353 l 1
 414 245 l 1
 445 186 l 1
 445 82 l 1
 363 0 l 1
 131 0 l 1
 30 32 l 1
 50 94 l 1
 139 65 l 1
 335 65 l 1
 380 110 l 1
 380 170 l 1xb8
155 -285 m 1
 210 -45 l 1
 285 -45 l 1xd8
 200 -285 l 1
 155 -285 l 1
EndSplineSet
Validated: 1
EndChar

StartChar: ydieresis
Encoding: 255 255 313
Width: 493
Flags: MW
HStem: -168 65<86 189 86 214 86 189> -20 20G<223 241 223 223> 585 90<138 180 138 180 318 360>
LayerCount: 2
Fore
SplineSet
214 -168 m 1
 86 -168 l 1
 86 -103 l 1
 189 -103 l 1
 216 -76 l 1
 241 0 l 1
 223 0 l 1
 10 518 l 1
 72 543 l 1
 265 72 l 1
 422 543 l 1
 483 523 l 1
 273 -109 l 1
 214 -168 l 1
138 585 m 1
 114 609 l 1
 114 651 l 1
 138 675 l 1
 180 675 l 1
 204 651 l 1
 204 609 l 1
 180 585 l 1
 138 585 l 1
318 585 m 1
 294 609 l 1
 294 651 l 1
 318 675 l 1
 360 675 l 1
 384 651 l 1
 384 609 l 1
 360 585 l 1
 318 585 l 1
EndSplineSet
Validated: 1
EndChar

StartChar: Ydieresis
Encoding: 376 376 314
Width: 560
Flags: MW
HStem: 0 21G<247 312 247 247> 768 90<169 211 169 211 349 391>
VStem: 247 65<0 263>
LayerCount: 2
Fore
SplineSet
312 0 m 1
 247 0 l 1
 247 264 l 1
 10 676 l 1
 68 710 l 1
 280 342 l 1
 492 710 l 1
 550 676 l 1
 312 263 l 1
 312 0 l 1
169 768 m 1
 145 792 l 1
 145 834 l 1
 169 858 l 1
 211 858 l 1
 235 834 l 1
 235 792 l 1
 211 768 l 1
 169 768 l 1
349 768 m 1
 325 792 l 1
 325 834 l 1
 349 858 l 1
 391 858 l 1
 415 834 l 1
 415 792 l 1
 391 768 l 1
 349 768 l 1
EndSplineSet
Validated: 1
EndChar

StartChar: Ccedilla
Encoding: 199 199 315
Width: 579
Flags: MW
HStem: -228 65<245 333 245 360 245 333> -89 154<260 260 260 333> 0 65<190 260 163 426 325 325 325 426 190 454> 635 65<190 415 190 190>
VStem: 60 65<130 570 130 597 130 597> 480 65<485 570 570 570>
LayerCount: 2
Fore
SplineSet
260 -89 m 1xdc
 260 0 l 1
 163 0 l 1
 60 103 l 1
 60 597 l 1
 163 700 l 1
 442 700 l 1
 545 597 l 1
 545 485 l 1
 480 485 l 1
 480 570 l 1
 415 635 l 1
 190 635 l 1
 125 570 l 1
 125 130 l 1
 190 65 l 1
 426 65 l 1
 502 141 l 1
 549 95 l 1
 454 0 l 1
 325 0 l 1xbc
 325 -24 l 1
 360 -24 l 1
 422 -86 l 1
 422 -166 l 1
 360 -228 l 1
 245 -228 l 1
 245 -163 l 1
 333 -163 l 1
 357 -139 l 1
 357 -113 l 1
 333 -89 l 1
 260 -89 l 1xdc
EndSplineSet
Validated: 1
EndChar

StartChar: ccedilla
Encoding: 231 231 316
Width: 514
Flags: MW
HStem: -228 65<220 308 220 335 220 308> -89 154<235 235 235 308> 0 65<168 235 142 376 300 300 300 376 168 382> 468 65<168 374 168 168>
VStem: 60 65<107 426 107 450 107 450> 417 65<340 426 426 426>
LayerCount: 2
Fore
SplineSet
235 -89 m 1xdc
 235 0 l 1
 142 0 l 1
 60 83 l 1
 60 450 l 1
 142 533 l 1
 400 533 l 1
 482 450 l 1
 482 340 l 1
 417 340 l 1
 417 426 l 1
 374 468 l 1
 168 468 l 1
 125 426 l 1
 125 107 l 1
 168 65 l 1
 376 65 l 1
 464 93 l 1
 484 32 l 1
 382 0 l 1
 300 0 l 1xbc
 300 -24 l 1
 335 -24 l 1
 397 -86 l 1
 397 -166 l 1
 335 -228 l 1
 220 -228 l 1
 220 -163 l 1
 308 -163 l 1
 332 -139 l 1
 332 -113 l 1
 308 -89 l 1
 235 -89 l 1xdc
EndSplineSet
Validated: 1
EndChar

StartChar: eogonek
Encoding: 281 281 317
Width: 524
Flags: MW
HStem: -168 65<324 422 324 422 297 422> 0 65<169 235 142 376 300 376 169 382 300 300> 223 65<125 373 125 400 125 373> 468 65<169 169 169 373>
VStem: 60 65<109 223 288 424> 235 65<-79 0 -79 0 -79 0> 417 65<332 424 424 424>
LayerCount: 2
Fore
SplineSet
376 65 m 1
 464 93 l 1
 484 32 l 1
 382 0 l 1
 300 0 l 1
 300 -79 l 1
 324 -103 l 1
 422 -103 l 1
 422 -168 l 1
 297 -168 l 1
 235 -106 l 1
 235 0 l 1
 142 0 l 1
 60 82 l 1
 60 451 l 1
 142 533 l 1
 400 533 l 1
 482 451 l 1
 482 304 l 1
 400 223 l 1
 125 223 l 1
 125 109 l 1
 169 65 l 1
 376 65 l 1
169 468 m 1
 125 424 l 1
 125 288 l 1
 373 288 l 1
 417 332 l 1
 417 424 l 1
 373 468 l 1
 169 468 l 1
EndSplineSet
Validated: 1
EndChar

StartChar: Eogonek
Encoding: 280 280 318
Width: 533
Flags: MW
HStem: -168 65<340 438 340 438 313 438> 0 65<145 251 316 316 316 513> 338 65<145 471 145 471> 635 65<145 513 145 145>
VStem: 80 65<65 338 403 635> 251 65<-79 0 -79 0 -79 0>
LayerCount: 2
Fore
SplineSet
80 0 m 1
 80 700 l 1
 513 700 l 1
 513 635 l 1
 145 635 l 1
 145 403 l 1
 471 403 l 1
 471 338 l 1
 145 338 l 1
 145 65 l 1
 513 65 l 1
 513 0 l 1
 316 0 l 1
 316 -79 l 1
 340 -103 l 1
 438 -103 l 1
 438 -168 l 1
 313 -168 l 1
 251 -106 l 1
 251 0 l 1
 80 0 l 1
EndSplineSet
Validated: 1
EndChar

StartChar: divide
Encoding: 247 247 319
Width: 470
Flags: MW
HStem: 160 21G<213 213 213 255> 312 65<20 450 20 450> 510 20G<213 255 255 255>
VStem: 189 90<184 226 184 226 464 506>
LayerCount: 2
Fore
SplineSet
20 377 m 1
 450 377 l 1
 450 312 l 1
 20 312 l 1
 20 377 l 1
213 160 m 1
 189 184 l 1
 189 226 l 1
 213 250 l 1
 255 250 l 1
 279 226 l 1
 279 184 l 1
 255 160 l 1
 213 160 l 1
213 440 m 1
 189 464 l 1
 189 506 l 1
 213 530 l 1
 255 530 l 1
 279 506 l 1
 279 464 l 1
 255 440 l 1
 213 440 l 1
EndSplineSet
Validated: 1
EndChar

StartChar: multiply
Encoding: 215 215 320
Width: 389
Flags: MW
HStem: 170 21G<66 66 323 323> 500 20G<65 65 324 324>
LayerCount: 2
Fore
SplineSet
19 474 m 1
 65 520 l 1
 195 390 l 1
 324 520 l 1
 370 474 l 1
 241 344 l 1
 369 216 l 1
 323 170 l 1
 195 298 l 1
 66 170 l 1
 20 216 l 1
 149 344 l 1
 19 474 l 1
EndSplineSet
Validated: 1
EndChar

StartChar: Atilde
Encoding: 195 195 321
Width: 578
Flags: MW
HStem: -10 21G<83 83 495 495> 212 65<155 402 176 402 176 423> 860 20G<314 375 375 375>
LayerCount: 2
Fore
SplineSet
155 212 m 1
 83 -10 l 1
 20 10 l 1
 243 700 l 1
 335 700 l 1
 558 10 l 1
 495 -10 l 1
 423 212 l 1
 155 212 l 1
176 277 m 1
 402 277 l 1
 289 627 l 1
 176 277 l 1
335 815 m 1
 259 745 l 1
 198 745 l 1
 114 829 l 1
 161 875 l 1
 227 810 l 1
 238 810 l 1
 314 880 l 1
 375 880 l 1
 459 796 l 1
 412 750 l 1
 346 815 l 1
 335 815 l 1
EndSplineSet
Validated: 1
EndChar

StartChar: Ntilde
Encoding: 209 209 322
Width: 646
Flags: MW
HStem: 0 21G<80 145 80 80 493 566 493 493> 860 20G<352 413 413 413>
VStem: 80 65<0 587 0 700> 501 65<113 700 0 700>
LayerCount: 2
Fore
SplineSet
493 0 m 1
 145 587 l 1
 145 0 l 1
 80 0 l 1
 80 700 l 1
 153 700 l 1
 501 113 l 1
 501 700 l 1
 566 700 l 1
 566 0 l 1
 493 0 l 1
373 815 m 1
 297 745 l 1
 236 745 l 1
 152 829 l 1
 199 875 l 1
 265 810 l 1
 276 810 l 1
 352 880 l 1
 413 880 l 1
 497 796 l 1
 450 750 l 1
 384 815 l 1
 373 815 l 1
EndSplineSet
Validated: 1
EndChar

StartChar: Otilde
Encoding: 213 213 323
Width: 635
Flags: MW
HStem: 0 65<197 438 197 462 173 438> 635 65<197 438 197 197> 635 245<352 413 352 438 197 413>
VStem: 60 65<130 570 130 597 130 597> 510 65<130 570 570 570>
LayerCount: 2
Fore
SplineSet
173 700 m 1xd8
 462 700 l 1
 575 597 l 1
 575 103 l 1
 462 0 l 1
 173 0 l 1
 60 103 l 1
 60 597 l 1
 173 700 l 1xd8
510 570 m 1
 438 635 l 1
 197 635 l 1
 125 570 l 1
 125 130 l 1
 197 65 l 1
 438 65 l 1
 510 130 l 1
 510 570 l 1
373 815 m 1
 297 745 l 1
 236 745 l 1
 152 829 l 1
 199 875 l 1
 265 810 l 1
 276 810 l 1
 352 880 l 1
 413 880 l 1xb8
 497 796 l 1
 450 750 l 1
 384 815 l 1
 373 815 l 1
EndSplineSet
Validated: 1
EndChar

StartChar: atilde
Encoding: 227 227 324
Width: 551
Flags: MW
HStem: -8 21G<439 439> 0 65<160 341 160 367 133 341> 244 65<160 408 160 160> 468 65<171 363 171 171> 468 245<295 356 295 363 171 356>
VStem: 50 65<109 200 109 227 109 227> 408 65<132 244 244 244 309 424 424 424>
LayerCount: 2
Fore
SplineSet
473 451 m 1x76
 473 120 l 1
 501 7 l 1
 439 -8 l 1xb6
 423 56 l 1
 367 0 l 1
 133 0 l 1
 50 82 l 1
 50 227 l 1
 133 309 l 1
 408 309 l 1
 408 424 l 1
 363 468 l 1
 171 468 l 1
 84 438 l 1
 63 499 l 1
 164 533 l 1
 390 533 l 1
 473 451 l 1x76
341 65 m 1x6e
 408 132 l 1
 408 244 l 1
 160 244 l 1
 115 200 l 1
 115 109 l 1
 160 65 l 1
 341 65 l 1x6e
316 648 m 1
 240 578 l 1
 179 578 l 1
 95 662 l 1
 142 708 l 1
 208 643 l 1
 219 643 l 1
 295 713 l 1
 356 713 l 1
 440 629 l 1
 393 583 l 1
 327 648 l 1
 316 648 l 1
EndSplineSet
Validated: 1
EndChar

StartChar: ntilde
Encoding: 241 241 325
Width: 561
Flags: MW
HStem: 0 21G<78 78 78 143 436 436 436 501> 468 65<210 391 210 210> 468 245<323 384 323 391 210 384>
VStem: 78 65<0 401 0 413 0 413> 436 65<0 423 423 423>
LayerCount: 2
Fore
SplineSet
78 0 m 1xb8
 78 413 l 1
 50 526 l 1
 112 541 l 1
 128 477 l 1
 184 533 l 1
 419 533 l 1xd8
 501 451 l 1
 501 0 l 1
 436 0 l 1
 436 423 l 1
 391 468 l 1
 210 468 l 1
 143 401 l 1
 143 0 l 1
 78 0 l 1xb8
344 648 m 1
 268 578 l 1
 207 578 l 1
 123 662 l 1
 170 708 l 1
 236 643 l 1
 247 643 l 1
 323 713 l 1
 384 713 l 1xb8
 468 629 l 1
 421 583 l 1
 355 648 l 1
 344 648 l 1
EndSplineSet
Validated: 1
EndChar

StartChar: otilde
Encoding: 245 245 326
Width: 547
Flags: MW
HStem: 0 65<169 378 169 405 142 378> 468 65<169 378 169 169> 468 245<312 373 312 378 169 373>
VStem: 60 65<110 423 110 450 110 450> 422 65<110 423 423 423>
LayerCount: 2
Fore
SplineSet
487 83 m 1xd8
 405 0 l 1
 142 0 l 1
 60 83 l 1
 60 450 l 1
 142 533 l 1
 405 533 l 1
 487 450 l 1
 487 83 l 1xd8
169 65 m 1
 378 65 l 1
 422 110 l 1
 422 423 l 1
 378 468 l 1
 169 468 l 1
 125 423 l 1
 125 110 l 1
 169 65 l 1
333 648 m 1
 257 578 l 1
 196 578 l 1
 112 662 l 1
 159 708 l 1
 225 643 l 1
 236 643 l 1
 312 713 l 1
 373 713 l 1xb8
 457 629 l 1
 410 583 l 1
 344 648 l 1
 333 648 l 1
EndSplineSet
Validated: 1
EndChar

StartChar: lcommaaccent
Encoding: 316 316 327
Width: 204
Flags: MW
HStem: -275 21G<26 26 26 71> -35 35<81 144 79 156 79 156> 687 20G
VStem: 79 65<0 599 599 599>
LayerCount: 2
Fore
SplineSet
144 606 m 1
 144 0 l 1
 79 0 l 1
 79 599 l 1
 50 687 l 1
 111 707 l 1
 144 606 l 1
26 -275 m 1
 81 -35 l 1
 156 -35 l 1
 71 -275 l 1
 26 -275 l 1
EndSplineSet
Validated: 1
EndChar

StartChar: kcommaaccent
Encoding: 311 311 328
Width: 493
Flags: MW
HStem: -275 21G<180 180 180 225> -20 20G<79 144 79 79> 687 20G
VStem: 79 65<0 192 277 599 599 599>
LayerCount: 2
Fore
SplineSet
144 606 m 1
 144 277 l 1
 445 543 l 1
 488 495 l 1
 280 311 l 1
 493 29 l 1
 441 -10 l 1
 231 268 l 1
 144 192 l 1
 144 0 l 1
 79 0 l 1
 79 599 l 1
 50 687 l 1
 111 707 l 1
 144 606 l 1
180 -275 m 1
 235 -35 l 1
 310 -35 l 1
 225 -275 l 1
 180 -275 l 1
EndSplineSet
Validated: 1
EndChar

StartChar: ncommaaccent
Encoding: 326 326 329
Width: 561
Flags: MW
HStem: -275 21G<209 209 209 254> -20 20G<78 78 78 143 436 436 436 501> 468 65<210 391 210 210> 521 20G<112 112>
VStem: 78 65<0 401 0 413 0 413> 436 65<0 423 423 423>
LayerCount: 2
Fore
SplineSet
78 0 m 1xec
 78 413 l 1
 50 526 l 1
 112 541 l 1xdc
 128 477 l 1
 184 533 l 1
 419 533 l 1
 501 451 l 1
 501 0 l 1
 436 0 l 1
 436 423 l 1
 391 468 l 1
 210 468 l 1
 143 401 l 1
 143 0 l 1
 78 0 l 1xec
209 -275 m 1
 264 -35 l 1
 339 -35 l 1
 254 -275 l 1
 209 -275 l 1
EndSplineSet
Validated: 1
EndChar

StartChar: gcommaaccent
Encoding: 291 291 330
Width: 518
Flags: MW
HStem: -168 65<150 392 150 420 125 392> -6 65<142 392 113 420> 59 66<155 155 155 398> 125 65<155 371 181 371 181 398> 468 65<162 348 162 162> 533 45<225 300 225 360> 798 20G<310 355 355 355>
VStem: 53 65<253 424 253 451 253 451> 415 65<-80 -29 -29 -29 234 401 401 401>
LayerCount: 2
Fore
SplineSet
155 125 m 1xab80
 135 144 l 1
 119 128 l 1
 119 82 l 1
 142 59 l 1
 420 59 l 1
 480 -1 l 1
 480 -108 l 1
 420 -168 l 1
 125 -168 l 1
 50 -95 l 1
 94 -49 l 1
 150 -103 l 1
 392 -103 l 1
 415 -80 l 1
 415 -29 l 1
 392 -6 l 1
 113 -6 l 1xbb80
 53 54 l 1
 53 156 l 1
 88 191 l 1
 53 226 l 1
 53 451 l 1
 135 533 l 1
 360 533 l 1
 473 561 l 1
 488 499 l 1
 425 483 l 1
 480 428 l 1
 480 207 l 1
 398 125 l 1
 155 125 l 1xab80
348 468 m 1
 162 468 l 1
 118 424 l 1
 118 253 l 1
 181 190 l 1
 371 190 l 1
 415 234 l 1
 415 401 l 1
 348 468 l 1
355 818 m 1
 300 578 l 1
 225 578 l 1xd780
 310 818 l 1
 355 818 l 1
EndSplineSet
Validated: 1
EndChar

StartChar: edotaccent
Encoding: 279 279 331
Width: 524
Flags: MW
HStem: 0 65<169 376 169 382 142 376> 223 65<125 373 125 400 125 373> 468 65<169 169 169 373> 675 20G<244 286 286 286>
VStem: 60 65<109 223 288 424> 417 65<332 424 424 424>
LayerCount: 2
Fore
SplineSet
376 65 m 1
 464 93 l 1
 484 32 l 1
 382 0 l 1
 142 0 l 1
 60 82 l 1
 60 451 l 1
 142 533 l 1
 400 533 l 1
 482 451 l 1
 482 304 l 1
 400 223 l 1
 125 223 l 1
 125 109 l 1
 169 65 l 1
 376 65 l 1
169 468 m 1
 125 424 l 1
 125 288 l 1
 373 288 l 1
 417 332 l 1
 417 424 l 1
 373 468 l 1
 169 468 l 1
244 605 m 1
 220 629 l 1
 220 671 l 1
 244 695 l 1
 286 695 l 1
 310 671 l 1
 310 629 l 1
 286 605 l 1
 244 605 l 1
EndSplineSet
Validated: 1
EndChar

StartChar: Ncommaaccent
Encoding: 325 325 332
Width: 646
Flags: MW
HStem: -275 21G<233 233 233 278> -20 20G<80 145 80 80 493 566 493 493> 680 20G<80 153 153 153 501 566 566 566>
VStem: 80 65<0 587 0 700> 501 65<113 700 0 700>
LayerCount: 2
Fore
SplineSet
493 0 m 1
 145 587 l 1
 145 0 l 1
 80 0 l 1
 80 700 l 1
 153 700 l 1
 501 113 l 1
 501 700 l 1
 566 700 l 1
 566 0 l 1
 493 0 l 1
233 -275 m 1
 288 -35 l 1
 363 -35 l 1
 278 -275 l 1
 233 -275 l 1
EndSplineSet
Validated: 1
EndChar

StartChar: Lcommaaccent
Encoding: 315 315 333
Width: 513
Flags: MW
HStem: -275 21G<214 214 214 259> -35 35<269 344 344 344> 0 65<145 513 145 513> 680 20G<80 145 145 145>
VStem: 80 65<65 700 65 700 65 700>
LayerCount: 2
Fore
SplineSet
80 0 m 1
 80 700 l 1
 145 700 l 1
 145 65 l 1
 513 65 l 1
 513 0 l 1
 80 0 l 1
214 -275 m 1
 269 -35 l 1
 344 -35 l 1
 259 -275 l 1
 214 -275 l 1
EndSplineSet
Validated: 1
EndChar

StartChar: Kcommaaccent
Encoding: 310 310 334
Width: 563
Flags: MW
HStem: -275 21G<222 222 222 267> -20 20G<80 145 80 80> 690 20G<510 510>
VStem: 80 65<0 232 326 700>
LayerCount: 2
Fore
SplineSet
314 409 m 1
 563 25 l 1
 509 -10 l 1
 268 361 l 1
 145 232 l 1
 145 0 l 1
 80 0 l 1
 80 700 l 1
 145 700 l 1
 145 326 l 1
 510 710 l 1
 557 665 l 1
 314 409 l 1
222 -275 m 1
 277 -35 l 1
 352 -35 l 1
 267 -275 l 1
 222 -275 l 1
EndSplineSet
Validated: 1
EndChar

StartChar: Gcommaaccent
Encoding: 290 290 335
Width: 605
Flags: MW
HStem: -275 21G<222 222 222 267> -35 35<277 352 352 352> 65 231<312 417 417 417> 361 124<480 545 480 545 480 545> 635 65<188 417 188 188>
VStem: 60 65<129 571 129 598 129 598> 312 233<296 361 102 361> 480 65<129 296 296 296 485 571 571 571>
LayerCount: 2
Fore
SplineSet
545 598 m 1xfe
 545 485 l 1
 480 485 l 1
 480 571 l 1
 417 635 l 1
 188 635 l 1
 125 571 l 1
 125 129 l 1
 188 65 l 1
 417 65 l 1
 480 129 l 1
 480 296 l 1xfd
 312 296 l 1
 312 361 l 1
 545 361 l 1
 545 102 l 1
 443 0 l 1
 162 0 l 1
 60 102 l 1
 60 598 l 1
 162 700 l 1
 443 700 l 1
 545 598 l 1xfe
222 -275 m 1
 277 -35 l 1
 352 -35 l 1
 267 -275 l 1
 222 -275 l 1
EndSplineSet
Validated: 1
EndChar

StartChar: Edotaccent
Encoding: 278 278 336
Width: 533
Flags: MW
HStem: 0 65<145 513 145 513> 338 65<145 471 145 471> 635 65<145 513 145 145> 858 20G<274 316 316 316>
VStem: 80 65<65 338 403 635>
LayerCount: 2
Fore
SplineSet
80 0 m 1
 80 700 l 1
 513 700 l 1
 513 635 l 1
 145 635 l 1
 145 403 l 1
 471 403 l 1
 471 338 l 1
 145 338 l 1
 145 65 l 1
 513 65 l 1
 513 0 l 1
 80 0 l 1
274 788 m 1
 250 812 l 1
 250 854 l 1
 274 878 l 1
 316 878 l 1
 340 854 l 1
 340 812 l 1
 316 788 l 1
 274 788 l 1
EndSplineSet
Validated: 1
EndChar

StartChar: rcommaaccent
Encoding: 343 343 337
Width: 459
Flags: MW
HStem: -275 21G<27 27 27 72> -35 35<82 143 78 157 78 157> 468 65<210 335 210 210> 521 20G<112 112>
VStem: 78 65<0 401 0 413 0 413>
LayerCount: 2
Fore
SplineSet
335 468 m 1xe8
 210 468 l 1xe8
 143 401 l 1
 143 0 l 1
 78 0 l 1
 78 413 l 1
 50 526 l 1
 112 541 l 1xd8
 128 477 l 1
 184 533 l 1
 362 533 l 1
 459 438 l 1
 414 391 l 1
 335 468 l 1xe8
27 -275 m 1
 82 -35 l 1
 157 -35 l 1
 72 -275 l 1
 27 -275 l 1
EndSplineSet
Validated: 1
EndChar

StartChar: Rcommaaccent
Encoding: 342 342 338
Width: 605
Flags: MW
HStem: -275 21G<214 214 214 259> -20 20G<80 145 80 80> 274 65<145 434 145 229 321 321 321 434 145 462> 635 65<145 434 145 145>
VStem: 80 65<0 274 339 635> 500 65<404 570 570 570>
LayerCount: 2
Fore
SplineSet
145 274 m 1
 145 0 l 1
 80 0 l 1
 80 700 l 1
 462 700 l 1
 565 598 l 1
 565 376 l 1
 462 274 l 1
 321 274 l 1
 563 32 l 1
 517 -15 l 1
 229 274 l 1
 145 274 l 1
434 635 m 1
 145 635 l 1
 145 339 l 1
 434 339 l 1
 500 404 l 1
 500 570 l 1
 434 635 l 1
214 -275 m 1
 269 -35 l 1
 344 -35 l 1
 259 -275 l 1
 214 -275 l 1
EndSplineSet
Validated: 1
EndChar

StartChar: Amacron
Encoding: 256 256 339
Width: 578
Flags: MW
HStem: -10 21G<83 83 495 495> 212 65<155 402 176 402 176 423> 765 65<153 425 153 425>
LayerCount: 2
Fore
SplineSet
155 212 m 1
 83 -10 l 1
 20 10 l 1
 243 700 l 1
 335 700 l 1
 558 10 l 1
 495 -10 l 1
 423 212 l 1
 155 212 l 1
176 277 m 1
 402 277 l 1
 289 627 l 1
 176 277 l 1
153 765 m 1
 153 830 l 1
 425 830 l 1
 425 765 l 1
 153 765 l 1
EndSplineSet
Validated: 1
EndChar

StartChar: Emacron
Encoding: 274 274 340
Width: 533
Flags: MW
HStem: 0 65<145 513 145 513> 338 65<145 471 145 471> 635 65<145 513 145 145> 765 65<164 436 164 436>
VStem: 80 65<65 338 403 635>
LayerCount: 2
Fore
SplineSet
80 0 m 1
 80 700 l 1
 513 700 l 1
 513 635 l 1
 145 635 l 1
 145 403 l 1
 471 403 l 1
 471 338 l 1
 145 338 l 1
 145 65 l 1
 513 65 l 1
 513 0 l 1
 80 0 l 1
164 765 m 1
 164 830 l 1
 436 830 l 1
 436 765 l 1
 164 765 l 1
EndSplineSet
Validated: 1
EndChar

StartChar: Omacron
Encoding: 332 332 341
Width: 635
Flags: MW
HStem: 0 65<197 438 197 462 173 438> 635 65<197 438 197 197> 765 65<180 452 180 452>
VStem: 60 65<130 570 130 597 130 597> 510 65<130 570 570 570>
LayerCount: 2
Fore
SplineSet
173 700 m 1
 462 700 l 1
 575 597 l 1
 575 103 l 1
 462 0 l 1
 173 0 l 1
 60 103 l 1
 60 597 l 1
 173 700 l 1
510 570 m 1
 438 635 l 1
 197 635 l 1
 125 570 l 1
 125 130 l 1
 197 65 l 1
 438 65 l 1
 510 130 l 1
 510 570 l 1
180 765 m 1
 180 830 l 1
 452 830 l 1
 452 765 l 1
 180 765 l 1
EndSplineSet
Validated: 1
EndChar

StartChar: Umacron
Encoding: 362 362 342
Width: 625
Flags: MW
HStem: 0 65<173 424 201 424 201 452> 765 65<178 450 178 450>
VStem: 70 65<130 700 130 700 130 700> 490 65<130 700 102 700>
LayerCount: 2
Fore
SplineSet
173 0 m 1
 70 102 l 1
 70 700 l 1
 135 700 l 1
 135 130 l 1
 201 65 l 1
 424 65 l 1
 490 130 l 1
 490 700 l 1
 555 700 l 1
 555 102 l 1
 452 0 l 1
 173 0 l 1
178 765 m 1
 178 830 l 1
 450 830 l 1
 450 765 l 1
 178 765 l 1
EndSplineSet
Validated: 1
EndChar

StartChar: amacron
Encoding: 257 257 343
Width: 551
Flags: MW
HStem: -8 21G<439 439> 0 65<160 341 160 367 133 341> 244 65<160 408 160 160> 468 65<171 363 171 171> 598 65<140 412 140 412>
VStem: 50 65<109 200 109 227 109 227> 408 65<132 244 244 244 309 424 424 424>
LayerCount: 2
Fore
SplineSet
473 451 m 1x7e
 473 120 l 1
 501 7 l 1
 439 -8 l 1xbe
 423 56 l 1
 367 0 l 1
 133 0 l 1
 50 82 l 1
 50 227 l 1
 133 309 l 1
 408 309 l 1
 408 424 l 1
 363 468 l 1
 171 468 l 1
 84 438 l 1
 63 499 l 1
 164 533 l 1
 390 533 l 1
 473 451 l 1x7e
341 65 m 1x7e
 408 132 l 1
 408 244 l 1
 160 244 l 1
 115 200 l 1
 115 109 l 1
 160 65 l 1
 341 65 l 1x7e
140 598 m 1
 140 663 l 1
 412 663 l 1
 412 598 l 1
 140 598 l 1
EndSplineSet
Validated: 1
EndChar

StartChar: emacron
Encoding: 275 275 344
Width: 524
Flags: MW
HStem: 0 65<169 376 169 382 142 376> 223 65<125 373 125 400 125 373> 468 65<169 169 169 373> 598 65<140 412 140 412>
VStem: 60 65<109 223 288 424> 417 65<332 424 424 424>
LayerCount: 2
Fore
SplineSet
376 65 m 1
 464 93 l 1
 484 32 l 1
 382 0 l 1
 142 0 l 1
 60 82 l 1
 60 451 l 1
 142 533 l 1
 400 533 l 1
 482 451 l 1
 482 304 l 1
 400 223 l 1
 125 223 l 1
 125 109 l 1
 169 65 l 1
 376 65 l 1
169 468 m 1
 125 424 l 1
 125 288 l 1
 373 288 l 1
 417 332 l 1
 417 424 l 1
 373 468 l 1
 169 468 l 1
140 598 m 1
 140 663 l 1
 412 663 l 1
 412 598 l 1
 140 598 l 1
EndSplineSet
Validated: 1
EndChar

StartChar: imacron
Encoding: 299 299 345
Width: 216
Flags: MW
HStem: 0 21G<79 144 79 79> 598 65<-28 244 -28 244>
VStem: 79 65<0 433 433 433>
LayerCount: 2
Fore
SplineSet
79 433 m 1
 50 521 l 1
 111 541 l 1
 144 440 l 1
 144 0 l 1
 79 0 l 1
 79 433 l 1
-28 598 m 1
 -28 663 l 1
 244 663 l 1
 244 598 l 1
 -28 598 l 1
EndSplineSet
Validated: 1
EndChar

StartChar: omacron
Encoding: 333 333 346
Width: 547
Flags: MW
HStem: 0 65<169 378 169 405 142 378> 468 65<169 378 169 169> 598 65<137 409 137 409>
VStem: 60 65<110 423 110 450 110 450> 422 65<110 423 423 423>
LayerCount: 2
Fore
SplineSet
487 83 m 1
 405 0 l 1
 142 0 l 1
 60 83 l 1
 60 450 l 1
 142 533 l 1
 405 533 l 1
 487 450 l 1
 487 83 l 1
169 65 m 1
 378 65 l 1
 422 110 l 1
 422 423 l 1
 378 468 l 1
 169 468 l 1
 125 423 l 1
 125 110 l 1
 169 65 l 1
137 598 m 1
 137 663 l 1
 409 663 l 1
 409 598 l 1
 137 598 l 1
EndSplineSet
Validated: 1
EndChar

StartChar: umacron
Encoding: 363 363 347
Width: 561
Flags: MW
HStem: -8 21G<449 449> 0 65<170 351 170 377 142 351> 598 65<136 408 136 408>
VStem: 60 65<110 533 110 533 110 533> 418 65<132 533 120 533>
LayerCount: 2
Fore
SplineSet
483 533 m 1x78
 483 120 l 1
 511 7 l 1
 449 -8 l 1xb8
 433 56 l 1
 377 0 l 1
 142 0 l 1
 60 82 l 1
 60 533 l 1
 125 533 l 1
 125 110 l 1
 170 65 l 1
 351 65 l 1
 418 132 l 1
 418 533 l 1
 483 533 l 1x78
136 598 m 1
 136 663 l 1
 408 663 l 1
 408 598 l 1
 136 598 l 1
EndSplineSet
Validated: 1
EndChar

StartChar: aring
Encoding: 229 229 348
Width: 551
Flags: MW
HStem: -8 21G<439 439> 0 65<160 341 160 367 133 341> 244 65<160 408 160 160> 468 65<171 363 171 171> 578 205<231 312 231 312>
VStem: 50 65<109 200 109 227 109 227> 169 205<640 721 640 721> 408 65<132 244 244 244 309 424 424 424>
LayerCount: 2
Fore
SplineSet
473 451 m 1x7f
 473 120 l 1
 501 7 l 1
 439 -8 l 1xbf
 423 56 l 1
 367 0 l 1
 133 0 l 1
 50 82 l 1
 50 227 l 1
 133 309 l 1
 408 309 l 1
 408 424 l 1
 363 468 l 1
 171 468 l 1
 84 438 l 1
 63 499 l 1
 164 533 l 1
 390 533 l 1
 473 451 l 1x7f
341 65 m 1x7f
 408 132 l 1
 408 244 l 1
 160 244 l 1
 115 200 l 1
 115 109 l 1
 160 65 l 1
 341 65 l 1x7f
231 783 m 1
 312 783 l 1
 374 721 l 1
 374 640 l 1
 312 578 l 1
 231 578 l 1
 169 640 l 1
 169 721 l 1
 231 783 l 1
290 723 m 1
 253 723 l 1
 229 699 l 1
 229 662 l 1
 253 638 l 1
 290 638 l 1
 314 662 l 1
 314 699 l 1
 290 723 l 1
EndSplineSet
Validated: 1
EndChar

StartChar: Aring
Encoding: 197 197 349
Width: 578
Flags: MW
HStem: -10 21G<83 83 495 495> 212 65<176 402 176 423 155 402> 825 20G<248 329 329 329>
VStem: 186 205<702 783 702 783>
LayerCount: 2
Fore
SplineSet
248 845 m 1
 329 845 l 1
 391 783 l 1
 391 702 l 1
 348 659 l 1
 558 10 l 1
 495 -10 l 1
 423 212 l 1
 155 212 l 1
 83 -10 l 1
 20 10 l 1
 229 658 l 1
 186 702 l 1
 186 783 l 1
 248 845 l 1
176 277 m 1
 402 277 l 1
 289 627 l 1
 176 277 l 1
307 785 m 1
 270 785 l 1
 246 761 l 1
 246 724 l 1
 270 700 l 1
 307 700 l 1
 331 724 l 1
 331 761 l 1
 307 785 l 1
EndSplineSet
Validated: 1
EndChar

StartChar: uring
Encoding: 367 367 350
Width: 561
Flags: MW
HStem: -8 21G<449 449> 0 65<170 351 170 377 142 351> 568 205<231 312 231 312>
VStem: 60 65<110 533 110 533 110 533> 169 205<630 711 630 711> 418 65<132 533 120 533>
CounterMasks: 1 1c
LayerCount: 2
Fore
SplineSet
483 533 m 1x7c
 483 120 l 1
 511 7 l 1
 449 -8 l 1xbc
 433 56 l 1
 377 0 l 1
 142 0 l 1
 60 82 l 1
 60 533 l 1
 125 533 l 1
 125 110 l 1
 170 65 l 1
 351 65 l 1
 418 132 l 1
 418 533 l 1
 483 533 l 1x7c
231 773 m 1
 312 773 l 1
 374 711 l 1
 374 630 l 1
 312 568 l 1
 231 568 l 1
 169 630 l 1
 169 711 l 1
 231 773 l 1
290 713 m 1
 253 713 l 1
 229 689 l 1
 229 652 l 1
 253 628 l 1
 290 628 l 1
 314 652 l 1
 314 689 l 1
 290 713 l 1
EndSplineSet
Validated: 1
EndChar

StartChar: Uring
Encoding: 366 366 351
Width: 625
Flags: MW
HStem: 0 65<173 424 201 424 201 452> 735 205<272 353 272 353>
VStem: 70 65<130 700 130 700 130 700> 210 205<797 878 797 878> 490 65<130 700 102 700>
CounterMasks: 1 38
LayerCount: 2
Fore
SplineSet
173 0 m 1
 70 102 l 1
 70 700 l 1
 135 700 l 1
 135 130 l 1
 201 65 l 1
 424 65 l 1
 490 130 l 1
 490 700 l 1
 555 700 l 1
 555 102 l 1
 452 0 l 1
 173 0 l 1
272 940 m 1
 353 940 l 1
 415 878 l 1
 415 797 l 1
 353 735 l 1
 272 735 l 1
 210 797 l 1
 210 878 l 1
 272 940 l 1
331 880 m 1
 294 880 l 1
 270 856 l 1
 270 819 l 1
 294 795 l 1
 331 795 l 1
 355 819 l 1
 355 856 l 1
 331 880 l 1
EndSplineSet
Validated: 1
EndChar

StartChar: Uogonek
Encoding: 370 370 352
Width: 625
Flags: MW
HStem: -168 65<367 465 367 465 340 465> 0 65<173 424 201 278 343 343 343 424 201 452> 680 20G<70 135 135 135 490 555 555 555>
VStem: 70 65<130 700 130 700 130 700> 278 65<-79 0 -79 0 -79 0> 490 65<130 700 102 700>
LayerCount: 2
Fore
SplineSet
173 0 m 1
 70 102 l 1
 70 700 l 1
 135 700 l 1
 135 130 l 1
 201 65 l 1
 424 65 l 1
 490 130 l 1
 490 700 l 1
 555 700 l 1
 555 102 l 1
 452 0 l 1
 343 0 l 1
 343 -79 l 1
 367 -103 l 1
 465 -103 l 1
 465 -168 l 1
 340 -168 l 1
 278 -106 l 1
 278 0 l 1
 173 0 l 1
EndSplineSet
Validated: 1
EndChar

StartChar: Iogonek
Encoding: 302 302 353
Width: 357
Flags: MW
HStem: -168 65<235 333 235 333 208 333> 0 65<30 146 30 146 211 327> 635 65<30 146 30 327 211 211 211 327>
VStem: 146 65<-79 0 -79 0 -79 0 65 635>
LayerCount: 2
Fore
SplineSet
146 0 m 1
 30 0 l 1
 30 65 l 1
 146 65 l 1
 146 635 l 1
 30 635 l 1
 30 700 l 1
 327 700 l 1
 327 635 l 1
 211 635 l 1
 211 65 l 1
 327 65 l 1
 327 0 l 1
 211 0 l 1
 211 -79 l 1
 235 -103 l 1
 333 -103 l 1
 333 -168 l 1
 208 -168 l 1
 146 -106 l 1
 146 0 l 1
EndSplineSet
Validated: 1
EndChar

StartChar: Aogonek
Encoding: 260 260 354
Width: 578
Flags: MW
HStem: -168 65<494 592 494 592 467 592> 212 65<176 402 176 423 155 402> 680 20G<243 335 335 335>
LayerCount: 2
Fore
SplineSet
405 -8 m 1
 472 59 l 1
 423 212 l 1
 155 212 l 1
 83 -10 l 1
 20 10 l 1
 243 700 l 1
 335 700 l 1
 548 42 l 1
 470 -35 l 1
 470 -79 l 1
 494 -103 l 1
 592 -103 l 1
 592 -168 l 1
 467 -168 l 1
 405 -106 l 1
 405 -8 l 1
176 277 m 1
 402 277 l 1
 289 627 l 1
 176 277 l 1
EndSplineSet
Validated: 1
EndChar

StartChar: aogonek
Encoding: 261 261 355
Width: 551
Flags: MW
HStem: -168 56<434 539 434 539 414 539> 0 65<160 341 160 367 133 341> 244 65<160 408 160 160> 468 65<171 363 171 171>
VStem: 50 65<109 200 109 227 109 227> 408 65<132 244 244 244 309 424 424 424>
LayerCount: 2
Fore
SplineSet
473 451 m 1
 473 120 l 1
 502 5 l 1
 410 -67 l 1
 410 -91 l 1
 434 -112 l 1
 539 -112 l 1
 539 -168 l 1
 414 -168 l 1
 352 -109 l 1
 352 -47 l 1
 433 16 l 1
 423 56 l 1
 367 0 l 1
 133 0 l 1
 50 82 l 1
 50 227 l 1
 133 309 l 1
 408 309 l 1
 408 424 l 1
 363 468 l 1
 171 468 l 1
 84 438 l 1
 63 499 l 1
 164 533 l 1
 390 533 l 1
 473 451 l 1
341 65 m 1
 408 132 l 1
 408 244 l 1
 160 244 l 1
 115 200 l 1
 115 109 l 1
 160 65 l 1
 341 65 l 1
EndSplineSet
Validated: 1
EndChar

StartChar: uogonek
Encoding: 371 371 356
Width: 561
Flags: MW
HStem: -168 56<444 549 444 549 424 549> 0 65<170 351 170 377 142 351> 513 20G<60 125 125 125 418 483 483 483>
VStem: 60 65<110 533 110 533 110 533> 418 65<132 533 120 533>
LayerCount: 2
Fore
SplineSet
443 16 m 1
 433 56 l 1
 377 0 l 1
 142 0 l 1
 60 82 l 1
 60 533 l 1
 125 533 l 1
 125 110 l 1
 170 65 l 1
 351 65 l 1
 418 132 l 1
 418 533 l 1
 483 533 l 1
 483 120 l 1
 512 5 l 1
 420 -67 l 1
 420 -91 l 1
 444 -112 l 1
 549 -112 l 1
 549 -168 l 1
 424 -168 l 1
 362 -109 l 1
 362 -47 l 1
 443 16 l 1
EndSplineSet
Validated: 1
EndChar

StartChar: iogonek
Encoding: 303 303 357
Width: 216
Flags: MW
HStem: -168 56<76 181 76 181 56 181> 675 20G<90 132 132 132>
VStem: 79 65<19 433 433 433>
LayerCount: 2
Fore
SplineSet
79 433 m 1
 50 521 l 1
 111 541 l 1
 144 440 l 1
 144 5 l 1
 52 -67 l 1
 52 -91 l 1
 76 -112 l 1
 181 -112 l 1
 181 -168 l 1
 56 -168 l 1
 -6 -109 l 1
 -6 -47 l 1
 79 19 l 1
 79 433 l 1
90 605 m 1
 66 629 l 1
 66 671 l 1
 90 695 l 1
 132 695 l 1
 156 671 l 1
 156 629 l 1
 132 605 l 1
 90 605 l 1
EndSplineSet
Validated: 1
EndChar

StartChar: Lslash
Encoding: 321 321 358
Width: 513
Flags: MW
HStem: 0 65<145 513 145 513> 680 20G<80 145 145 145>
VStem: -20 165<199 281 281 281> 80 65<65 272 272 272 400 700> 80 190<0 491 272 491 411 491 411 700>
LayerCount: 2
Fore
SplineSet
270 491 m 1xc8
 270 411 l 1xc8
 145 319 l 1
 145 65 l 1
 513 65 l 1
 513 0 l 1
 80 0 l 1
 80 272 l 1xd0
 -20 199 l 1
 -20 281 l 1xe0
 80 353 l 1
 80 700 l 1xd0
 145 700 l 1
 145 400 l 1xe0
 270 491 l 1xc8
EndSplineSet
Validated: 1
EndChar

StartChar: lslash
Encoding: 322 322 359
Width: 204
Flags: MW
HStem: 0 21G<79 144 79 79> 687 20G
VStem: -20 164<174 256 256 256> 79 65<0 246 246 246 374 599 599 599> 79 191<0 466 246 466 386 466 386 599 386 599>
LayerCount: 2
Fore
SplineSet
270 466 m 1xc8
 270 386 l 1xc8
 144 294 l 1
 144 0 l 1
 79 0 l 1
 79 246 l 1xd0
 -20 174 l 1
 -20 256 l 1xe0
 79 327 l 1
 79 599 l 1xd0
 50 687 l 1
 111 707 l 1
 144 606 l 1
 144 374 l 1xe0
 270 466 l 1xc8
EndSplineSet
Validated: 1
EndChar

StartChar: ae
Encoding: 230 230 360
Width: 832
Flags: MW
HStem: 0 65<160 321 160 347 133 321 497 684> 234 65<160 388 160 160 453 681> 468 65<171 343 171 171 497 681 497 497>
VStem: 50 65<109 190 109 217 109 217> 388 65<132 234 109 234 299 424> 725 65<343 424 424 424>
CounterMasks: 1 e0
LayerCount: 2
Fore
SplineSet
684 65 m 1
 772 93 l 1
 792 32 l 1
 690 0 l 1
 470 0 l 1
 408 61 l 1
 347 0 l 1
 133 0 l 1
 50 82 l 1
 50 217 l 1
 133 299 l 1
 388 299 l 1
 388 424 l 1
 343 468 l 1
 171 468 l 1
 84 438 l 1
 63 499 l 1
 164 533 l 1
 370 533 l 1
 420 483 l 1
 470 533 l 1
 708 533 l 1
 790 451 l 1
 790 315 l 1
 708 234 l 1
 453 234 l 1
 453 109 l 1
 497 65 l 1
 684 65 l 1
497 468 m 1
 453 424 l 1
 453 299 l 1
 681 299 l 1
 725 343 l 1
 725 424 l 1
 681 468 l 1
 497 468 l 1
321 65 m 1
 388 132 l 1
 388 234 l 1
 160 234 l 1
 115 190 l 1
 115 109 l 1
 160 65 l 1
 321 65 l 1
EndSplineSet
Validated: 1
EndChar

StartChar: AE
Encoding: 198 198 361
Width: 858
Flags: MW
HStem: -10 21G<69 69> 0 65<500 838 500 838> 212 65<216 435 216 435 183 435> 338 65<500 796 500 796> 635 65<399 399 399 435 500 838 500 500>
VStem: 435 65<65 212 212 212 277 338 403 635>
LayerCount: 2
Fore
SplineSet
435 0 m 1x7c
 435 212 l 1
 183 212 l 1
 69 -10 l 1xbc
 10 20 l 1
 358 700 l 1
 838 700 l 1
 838 635 l 1
 500 635 l 1
 500 403 l 1
 796 403 l 1
 796 338 l 1
 500 338 l 1
 500 65 l 1
 838 65 l 1
 838 0 l 1
 435 0 l 1x7c
399 635 m 1x7c
 216 277 l 1
 435 277 l 1
 435 635 l 1
 399 635 l 1x7c
EndSplineSet
Validated: 1
EndChar

StartChar: oe
Encoding: 339 339 362
Width: 846
Flags: MW
HStem: 0 65<169 358 169 385 142 358 511 698> 223 65<467 695 467 722 467 695> 468 65<169 358 169 169 511 695 511 511>
VStem: 60 65<110 423 110 450 110 450> 402 65<110 223 288 423 423 423> 739 65<332 424 424 424>
LayerCount: 2
Fore
SplineSet
698 65 m 1
 786 93 l 1
 806 32 l 1
 704 0 l 1
 484 0 l 1
 434 50 l 1
 385 0 l 1
 142 0 l 1
 60 83 l 1
 60 450 l 1
 142 533 l 1
 385 533 l 1
 434 483 l 1
 484 533 l 1
 722 533 l 1
 804 451 l 1
 804 304 l 1
 722 223 l 1
 467 223 l 1
 467 109 l 1
 511 65 l 1
 698 65 l 1
169 65 m 1
 358 65 l 1
 402 110 l 1
 402 423 l 1
 358 468 l 1
 169 468 l 1
 125 423 l 1
 125 110 l 1
 169 65 l 1
511 468 m 1
 467 424 l 1
 467 288 l 1
 695 288 l 1
 739 332 l 1
 739 424 l 1
 695 468 l 1
 511 468 l 1
EndSplineSet
Validated: 1
EndChar

StartChar: OE
Encoding: 338 338 363
Width: 913
Flags: MW
HStem: 0 65<173 460 197 460 525 893> 338 65<525 851 525 851> 635 65<197 460 197 197 525 893 525 525>
VStem: 60 65<130 130 130 570> 460 65<65 338 403 635>
LayerCount: 2
Fore
SplineSet
173 0 m 1
 60 103 l 1
 60 597 l 1
 173 700 l 1
 893 700 l 1
 893 635 l 1
 525 635 l 1
 525 403 l 1
 851 403 l 1
 851 338 l 1
 525 338 l 1
 525 65 l 1
 893 65 l 1
 893 0 l 1
 173 0 l 1
125 130 m 1
 197 65 l 1
 460 65 l 1
 460 635 l 1
 197 635 l 1
 125 570 l 1
 125 130 l 1
EndSplineSet
Validated: 1
EndChar

StartChar: germandbls
Encoding: 223 223 364
Width: 605
Flags: MW
HStem: 0 65<311 445 319 445 319 473> 635 65<189 415 189 189>
VStem: 80 65<0 591 0 617 0 617> 490 65<110 215 215 215>
LayerCount: 2
Fore
SplineSet
145 591 m 1
 145 0 l 1
 80 0 l 1
 80 617 l 1
 163 700 l 1
 441 700 l 1
 524 617 l 1
 524 516 l 1
 394 402 l 1
 394 355 l 1
 405 332 l 1
 524 290 l 1
 555 231 l 1
 555 82 l 1
 473 0 l 1
 311 0 l 1
 210 32 l 1
 230 94 l 1
 319 65 l 1
 445 65 l 1
 490 110 l 1
 490 215 l 1
 479 237 l 1
 360 279 l 1
 329 339 l 1
 329 430 l 1
 459 544 l 1
 459 591 l 1
 415 635 l 1
 189 635 l 1
 145 591 l 1
EndSplineSet
Validated: 1
EndChar

StartChar: Oslash
Encoding: 216 216 365
Width: 635
Flags: MW
HStem: -14 21G<118 118> 0 65<197 438 197 462 173 438> 635 65<197 438 197 197> 692 20G<518 518>
VStem: 60 65<130 570 130 597 130 597> 510 65<130 570 570 570>
LayerCount: 2
Fore
SplineSet
65 20 m 1xac
 97 69 l 1
 60 103 l 1
 60 597 l 1
 173 700 l 1
 462 700 l 1x6c
 492 672 l 1
 518 712 l 1
 571 679 l 1
 539 630 l 1
 575 597 l 1
 575 103 l 1
 462 0 l 1
 173 0 l 1x5c
 144 26 l 1
 118 -14 l 1
 65 20 l 1xac
125 570 m 1
 125 130 l 1
 132 123 l 1
 456 618 l 1
 438 635 l 1
 197 635 l 1
 125 570 l 1
510 570 m 1
 503 576 l 1
 179 80 l 1
 197 65 l 1
 438 65 l 1
 510 130 l 1
 510 570 l 1
EndSplineSet
Validated: 1
EndChar

StartChar: oslash
Encoding: 248 248 366
Width: 547
Flags: MW
HStem: -10 21G<100 100> 0 65<169 378 169 405 142 378> 468 65<169 378 169 169 142 468> 523 20G<447 447>
VStem: 60 65<125 423 125 450 125 450> 422 65<110 408 408 408>
LayerCount: 2
Fore
SplineSet
50 28 m 1xac
 78 64 l 1
 60 83 l 1
 60 450 l 1
 142 533 l 1
 405 533 l 1x6c
 424 513 l 1
 447 543 l 1x5c
 497 505 l 1
 468 468 l 1
 487 450 l 1
 487 83 l 1
 405 0 l 1
 142 0 l 1x6c
 122 19 l 1
 100 -10 l 1
 50 28 l 1xac
169 65 m 1
 378 65 l 1
 422 110 l 1
 422 408 l 1
 162 71 l 1
 169 65 l 1
125 423 m 1
 125 125 l 1
 384 461 l 1
 378 468 l 1
 169 468 l 1
 125 423 l 1
EndSplineSet
Validated: 1
EndChar

StartChar: cent
Encoding: 162 162 367
Width: 514
Flags: MW
HStem: -70 135<244 309 244 244> 0 65<168 244 142 376 309 376 168 382 309 309> 468 65<168 245 310 374 168 168> 468 135<245 310 245 374 168 310>
VStem: 60 65<107 426 107 450 107 450> 245 65<533 603> 417 65<340 426 426 426>
LayerCount: 2
Fore
SplineSet
310 533 m 1xae
 400 533 l 1xae
 482 450 l 1
 482 340 l 1
 417 340 l 1
 417 426 l 1
 374 468 l 1
 168 468 l 1
 125 426 l 1
 125 107 l 1
 168 65 l 1
 376 65 l 1
 464 93 l 1
 484 32 l 1
 382 0 l 1
 309 0 l 1x5e
 309 -70 l 1
 244 -70 l 1x9e
 244 0 l 1
 142 0 l 1
 60 83 l 1
 60 450 l 1
 142 533 l 1
 245 533 l 1x6e
 245 603 l 1
 310 603 l 1x9e
 310 533 l 1xae
EndSplineSet
Validated: 1
EndChar

StartChar: yen
Encoding: 165 165 368
Width: 560
Flags: MW
HStem: 0 21G<247 312 247 247> 150 65<85 247 85 247 312 474> 263 65<85 210 85 210 85 247 349 474> 690 20G<68 68 492 492>
VStem: 247 65<0 150 0 150 215 263>
LayerCount: 2
Fore
SplineSet
85 263 m 1
 85 328 l 1
 210 328 l 1
 10 676 l 1
 68 710 l 1
 280 342 l 1
 492 710 l 1
 550 676 l 1
 349 328 l 1
 474 328 l 1
 474 263 l 1
 312 263 l 1
 312 215 l 1
 474 215 l 1
 474 150 l 1
 312 150 l 1
 312 0 l 1
 247 0 l 1
 247 150 l 1
 85 150 l 1
 85 215 l 1
 247 215 l 1
 247 263 l 1
 85 263 l 1
EndSplineSet
Validated: 1
EndChar

StartChar: apple
Encoding: 65537 -1 369
Width: 2345
Flags: MW
HStem: -20 20G<20 340 20 20 340 660 340 340 670 670 670 830 830 830 830 990 1380 1665 1380 1380 1700 1700 1700 2020> -10 21G<1137.5 1232.5 2030 2077.5> 665 20G<632.5 727.5>
VStem: 670 180<0 562.5 320 562.5> 2030 170<112.5 207.5 112.5 330 112.5 330>
LayerCount: 2
Fore
SplineSet
1355 160 m 0x78
 1355 65 1280 -10 1185 -10 c 0
 1090 -10 1015 65 1015 160 c 0
 1015 255 1090 330 1185 330 c 0
 1280 330 1355 255 1355 160 c 0x78
340 0 m 1xb8
 20 0 l 1
 20 320 l 1
 340 0 l 1xb8
2020 0 m 1
 1700 0 l 1
 1860 320 l 1
 2020 0 l 1
2200 160 m 0
 2200 65 2125 -10 2030 -10 c 1x78
 2030 330 l 1
 2125 330 2200 255 2200 160 c 0
1690 320 m 1
 1690 25 l 1
 1405 320 l 1
 1690 320 l 1
1380 0 m 1xb8
 1380 295 l 1
 1665 0 l 1
 1380 0 l 1xb8
670 320 m 1
 830 0 l 1
 670 0 l 1
 670 320 l 1
990 320 m 1
 990 0 l 1
 830 0 l 1
 990 320 l 1
340 0 m 1
 340 160 l 1
 660 0 l 1
 340 0 l 1
340 320 m 1
 660 320 l 1
 340 160 l 1
 340 320 l 1
485 355 m 1
 165 355 l 1
 485 675 l 1
 485 355 l 1
850 515 m 0
 850 420 775 345 680 345 c 0
 585 345 510 420 510 515 c 0
 510 610 585 685 680 685 c 0
 775 685 850 610 850 515 c 0
820 675 m 1
 1140 675 l 1
 980 355 l 1
 820 675 l 1
1345 355 m 1
 1025 355 l 1
 1185 675 l 1
 1345 355 l 1
1665 675 m 1
 1665 380 l 1
 1380 675 l 1
 1665 675 l 1
1355 355 m 1
 1355 650 l 1
 1640 355 l 1
 1355 355 l 1
2015 675 m 1
 2015 380 l 1
 1730 675 l 1
 2015 675 l 1
1705 355 m 1
 1705 650 l 1
 1990 355 l 1
 1705 355 l 1
2025 675 m 1
 2345 675 l 1
 2185 355 l 1
 2025 675 l 1
EndSplineSet
Validated: 5
EndChar

StartChar: exclam
Encoding: 33 33 370
Width: 250
Flags: MW
HStem: -10 21G<104 104 104 146> 680 20G<90 160 160 160>
VStem: 90 69
LayerCount: 2
Fore
SplineSet
91 125 m 1
 90 700 l 1
 160 700 l 1
 159 125 l 1
 91 125 l 1
104 -10 m 1
 80 14 l 1
 80 56 l 1
 104 80 l 1
 146 80 l 1
 170 56 l 1
 170 14 l 1
 146 -10 l 1
 104 -10 l 1
EndSplineSet
Validated: 1
EndChar

StartChar: universal
Encoding: 8704 8704 371
Width: 578
Flags: HW
HStem: -10 21G<83 83 495 495> 212 65<155 402 176 402 176 423> 680 20G<243 335 335 335>
LayerCount: 2
Fore
SplineSet
418 489 m 5
 490 711 l 5
 553 691 l 5
 330 1 l 5
 238 1 l 5
 15 691 l 5
 78 711 l 5
 150 489 l 5
 418 489 l 5
397 424 m 5
 171 424 l 5
 284 74 l 5
 397 424 l 5
EndSplineSet
Validated: 1
EndChar

StartChar: infinity
Encoding: 8734 8734 372
Width: 603
Flags: HW
HStem: 0 65<190 412 190 440 163 412> 332 65<191 412 191 414 190 412> 635 65<193 410 193 193>
VStem: 60 65<129 267 129 295 129 295> 478 65<130 268 268 268>
LayerCount: 2
Fore
SplineSet
206 130 m 1
 270 194 l 1
 270 418 l 1
 203 478 l 1
 139 478 l 1
 75 419 l 1
 75 197 l 1
 138 130 l 5
 206 130 l 1
525 194 m 1
 524 415 l 1
 461 478 l 1
 395 478 l 1
 335 417 l 1
 336 192 l 1
 396 131 l 1
 459 131 l 1
 525 194 l 1
10 169 m 1
 10 446 l 1
 112 543 l 1
 233 543 l 1
 303 478 l 1
 367 543 l 1
 487 543 l 1
 589 441 l 1
 590 164 l 1
 488 66 l 1
 368 66 l 1
 303 135 l 1
 233 65 l 1
 112 66 l 1
 10 169 l 1
EndSplineSet
Validated: 1
EndChar

